SplineFontDB: 3.2
FontName: OverusedGrotesk-Light
FullName: Overused Grotesk Light
FamilyName: Overused Grotesk
Weight: Light
Copyright: Copyright (c) 2023, Bao Nguyen (RandomMaerks) (rmforbusiness@gmail.com)
UComments: "2023-7-28: Created with FontForge (http://fontforge.org)"
Version: 0.2
ItalicAngle: 0
UnderlinePosition: -100
UnderlineWidth: 50
Ascent: 800
Descent: 200
InvalidEm: 0
LayerCount: 2
Layer: 0 0 "Back" 1
Layer: 1 0 "Fore" 0
XUID: [1021 36 -67577861 30019]
StyleMap: 0x0040
FSType: 0
OS2Version: 0
OS2_WeightWidthSlopeOnly: 0
OS2_UseTypoMetrics: 1
CreationTime: 1690548111
ModificationTime: 1693469354
PfmFamily: 17
TTFWeight: 300
TTFWidth: 5
LineGap: 90
VLineGap: 90
OS2TypoAscent: 800
OS2TypoAOffset: 0
OS2TypoDescent: -200
OS2TypoDOffset: 0
OS2TypoLinegap: 90
OS2WinAscent: 1054
OS2WinAOffset: 0
OS2WinDescent: 276
OS2WinDOffset: 0
HheadAscent: 1054
HheadAOffset: 0
HheadDescent: -276
HheadDOffset: 0
OS2Vendor: 'Rand'
Lookup: 1 0 0 "'cv01' Character Variants 01 in Latin lookup 16" { "'cv01' Character Variants 01 in Latin lookup 16-1" ("cv01") } ['cv01' ('DFLT' <'dflt' > 'latn' <'dflt' > ) ]
Lookup: 1 0 0 "'cv02' Character Variants 02 in Latin lookup 17" { "'cv02' Character Variants 02 in Latin lookup 17-1" ("cv02") } ['cv02' ('DFLT' <'dflt' > 'latn' <'dflt' > ) ]
Lookup: 1 0 0 "'cv03' Character Variants 03 in Latin lookup 18" { "'cv03' Character Variants 03 in Latin lookup 18-1"  } ['cv03' ('DFLT' <'dflt' > 'latn' <'dflt' > ) ]
Lookup: 1 0 0 "'cv04' Character Variants 04 in Latin lookup 19" { "'cv04' Character Variants 04 in Latin lookup 19-1"  } ['cv04' ('DFLT' <'dflt' > 'latn' <'dflt' > ) ]
Lookup: 1 0 0 "'cv05' Character Variants 05 in Latin lookup 20" { "'cv05' Character Variants 05 in Latin lookup 20-1" ("cv05") } ['cv05' ('DFLT' <'dflt' > 'latn' <'dflt' > ) ]
Lookup: 1 0 0 "'dnom' Denominators in Latin lookup 12" { "'dnom' Denominators in Latin lookup 12-1" ("dnom") } ['dnom' ('DFLT' <'dflt' > 'latn' <'dflt' > ) ]

StartChar: n
Encoding: 110 110 0
GlifName: n
Width: 510
Flags: HMW
AnchorPoint: "bottom1" 263 0 basechar 0
AnchorPoint: "top1" 260 560 basechar 0
LayerCount: 2
Fore
SplineSet
405 310 m 2
 405 415 348 460 259 460 c 0
 172 460 105 400 105 316 c 1
 76 322 l 1
 77 439 177 510 269 510 c 0
 377 510 455 443 455 320 c 2
 455 0 l 1
 405 0 l 1
 405 310 l 2
55 500 m 1
 105 500 l 1
 105 0 l 1
 55 0 l 1
 55 500 l 1
EndSplineSet
Substitution2: "'cv05' Character Variants 05 in Latin lookup 20-1" n.cv05
Substitution2: "'sups' Superscript in Latin lookup 15-1" uni207F
Substitution2: "'subs' Subscript in Latin lookup 14-1" uni2099
EndChar

StartChar: h
Encoding: 104 104 1
GlifName: h
Width: 510
Flags: HMW
AnchorPoint: "top1" 79 755 basechar 0
LayerCount: 2
Fore
SplineSet
405 310 m 6
 405 415 348 460 259 460 c 4
 172 460 105 400 105 316 c 5
 76 322 l 5
 77 439 177 510 269 510 c 4
 377 510 455 443 455 320 c 6
 455 0 l 5
 405 0 l 5
 405 310 l 6
55 700 m 5
 105 700 l 5
 105 0 l 5
 55 0 l 5
 55 700 l 5
EndSplineSet
Substitution2: "'cv05' Character Variants 05 in Latin lookup 20-1" h.cv05
EndChar

StartChar: m
Encoding: 109 109 2
GlifName: m
Width: 820
Flags: HMW
LayerCount: 2
Fore
SplineSet
715 310 m 6
 715 415 662 460 579 460 c 4
 498 460 435 400 435 316 c 5
 403 322 l 5
 403 439 500 510 589 510 c 4
 691 510 765 443 765 320 c 6
 765 0 l 5
 715 0 l 5
 715 310 l 6
385 310 m 6
 385 415 332 460 249 460 c 4
 168 460 105 400 105 316 c 5
 76 322 l 5
 76 439 172 510 259 510 c 4
 361 510 435 443 435 320 c 6
 435 0 l 5
 385 0 l 5
 385 310 l 6
55 500 m 5
 105 500 l 5
 105 0 l 5
 55 0 l 5
 55 500 l 5
EndSplineSet
Substitution2: "'cv05' Character Variants 05 in Latin lookup 20-1" m.cv05
EndChar

StartChar: u
Encoding: 117 117 3
GlifName: u
Width: 502
Flags: HMW
AnchorPoint: "top3" 397 500 basechar 0
AnchorPoint: "bottom2" 447 0 basechar 0
AnchorPoint: "bottom1" 243 0 basechar 0
AnchorPoint: "top1" 259 560 basechar 0
LayerCount: 2
Fore
SplineSet
105 200 m 6
 105 88 161 40 247 40 c 4
 332 40 397 104 397 194 c 5
 426 188 l 5
 426 65 327 -10 237 -10 c 4
 131 -10 55 61 55 190 c 6
 55 500 l 5
 105 500 l 5
 105 200 l 6
447 0 m 5
 397 0 l 5
 397 500 l 5
 447 500 l 5
 447 0 l 5
EndSplineSet
Substitution2: "'cv05' Character Variants 05 in Latin lookup 20-1" u.cv05
Substitution2: "'ss10' Style Set 10 in Latin lookup 9-1" u.ss10
EndChar

StartChar: i
Encoding: 105 105 4
GlifName: i
Width: 160
Flags: HMW
AnchorPoint: "bottom1" 81 0 basechar 0
AnchorPoint: "bottom2" 105 0 basechar 0
LayerCount: 2
Fore
SplineSet
48 643 m 1
 112 643 l 1
 112 573 l 1
 48 573 l 1
 48 643 l 1
55 500 m 5
 105 500 l 5
 105 0 l 5
 55 0 l 5
 55 500 l 5
EndSplineSet
Substitution2: "'cv05' Character Variants 05 in Latin lookup 20-1" i.cv05
Substitution2: "'ss03' Style Set 3 in Latin lookup 2-1" i.ss03
EndChar

StartChar: l
Encoding: 108 108 5
GlifName: l
Width: 160
Flags: HMW
AnchorPoint: "top2" 160 500 basechar 0
AnchorPoint: "bottom1" 80 0 basechar 0
AnchorPoint: "top1" 79 755 basechar 0
LayerCount: 2
Fore
SplineSet
55 700 m 5
 105 700 l 5
 105 0 l 5
 55 0 l 5
 55 700 l 5
EndSplineSet
Substitution2: "'cv05' Character Variants 05 in Latin lookup 20-1" l.cv05
Substitution2: "'ss02' Style Set 2 in Latin lookup 1-1" l.ss02
EndChar

StartChar: o
Encoding: 111 111 6
GlifName: o
Width: 545
Flags: HMW
AnchorPoint: "top3" 331 500 basechar 0
AnchorPoint: "bottom1" 273 0 basechar 0
AnchorPoint: "top1" 272 560 basechar 0
LayerCount: 2
Fore
SplineSet
45 252 m 4
 45 407 136 510 273 510 c 4
 409 510 500 407 500 252 c 4
 500 96 409 -8 273 -8 c 4
 136 -8 45 96 45 252 c 4
447 252 m 4
 447 384 383 460 273 460 c 4
 162 460 98 384 98 252 c 4
 98 119 162 42 273 42 c 4
 383 42 447 119 447 252 c 4
EndSplineSet
Substitution2: "'cv05' Character Variants 05 in Latin lookup 20-1" o.cv05
EndChar

StartChar: c
Encoding: 99 99 7
GlifName: c
Width: 537
Flags: HMW
AnchorPoint: "bottom1" 273 0 basechar 0
AnchorPoint: "top1" 273 560 basechar 0
LayerCount: 2
Fore
SplineSet
45 252 m 4
 45 407 136 510 272 510 c 4
 394 510 483 432 492 319 c 5
 439 319 l 5
 435 405 370 460 272 460 c 4
 161 460 98 384 98 252 c 4
 98 119 162 42 272 42 c 4
 369 42 434 93 439 174 c 5
 492 174 l 5
 481 64 394 -8 272 -8 c 4
 136 -8 45 96 45 252 c 4
EndSplineSet
Substitution2: "'cv05' Character Variants 05 in Latin lookup 20-1" c.cv05
EndChar

StartChar: e
Encoding: 101 101 8
GlifName: e
Width: 543
Flags: HMW
AnchorPoint: "bottom2" 423 36 basechar 0
AnchorPoint: "bottom1" 281 0 basechar 0
AnchorPoint: "top1" 271 560 basechar 0
LayerCount: 2
Fore
SplineSet
45 252 m 4
 45 411 133 510 273 510 c 4
 404 510 498 408 498 266 c 6
 498 236 l 5
 89 236 l 5
 89 284 l 5
 444 284 l 5
 435 391 368 460 273 460 c 4
 158 460 98 388 98 252 c 4
 98 115 161 42 279 42 c 4
 370 42 425 87 439 155 c 5
 492 155 l 5
 470 51 400 -8 279 -8 c 4
 135 -8 45 92 45 252 c 4
EndSplineSet
Substitution2: "'cv05' Character Variants 05 in Latin lookup 20-1" e.cv05
EndChar

StartChar: a
Encoding: 97 97 9
GlifName: a
Width: 501
Flags: HMW
AnchorPoint: "bottom2" 457 0 basechar 0
AnchorPoint: "bottom1" 276 0 basechar 0
AnchorPoint: "top1" 253 560 basechar 0
LayerCount: 2
Fore
SplineSet
445 138 m 6
 445 80 449 34 457 0 c 5
 405 0 l 5
 398 38 395 79 395 130 c 6
 395 336 l 6
 395 406 333 460 253 460 c 4
 161 460 112 421 103 342 c 5
 49 342 l 5
 56 444 135 510 252 510 c 4
 362 510 445 434 445 335 c 6
 445 138 l 6
430 220 m 5
 430 92 332 -10 210 -10 c 4
 113 -10 45 50 45 136 c 4
 45 213 98 263 186 269 c 6
 331 279 l 6
 377 282 395 298 395 334 c 5
 396 234 l 5
 201 221 l 6
 132 216 97 188 97 136 c 4
 97 77 145 40 220 40 c 4
 321 40 395 116 395 220 c 5
 430 220 l 5
EndSplineSet
Substitution2: "'cv05' Character Variants 05 in Latin lookup 20-1" a.cv05
Substitution2: "'ss01' Style Set 1 in Latin lookup 0-1" a.ss01
EndChar

StartChar: s
Encoding: 115 115 10
GlifName: s
Width: 490
Flags: HMW
AnchorPoint: "bottom1" 261 0 basechar 0
AnchorPoint: "top1" 236 560 basechar 0
LayerCount: 2
Fore
SplineSet
280 221 m 6
 205 231 l 6
 105 244 50 283 50 367 c 4
 50 454 121 509 237 509 c 4
 349 509 423 449 433 350 c 5
 381 350 l 5
 368 425 323 460 236 460 c 4
 154 460 100 424 100 369 c 4
 100 315 137 294 209 285 c 6
 284 275 l 6
 392 261 445 215 445 128 c 4
 445 45 371 -8 260 -8 c 4
 133 -8 56 55 45 150 c 5
 99 150 l 5
 112 75 164 41 261 41 c 4
 341 41 395 75 395 128 c 4
 395 182 357 212 280 221 c 6
EndSplineSet
Substitution2: "'cv05' Character Variants 05 in Latin lookup 20-1" s.cv05
EndChar

StartChar: b
Encoding: 98 98 11
GlifName: b
Width: 552
Flags: HMW
LayerCount: 2
Fore
SplineSet
55 700 m 1
 105 700 l 1
 105 0 l 1
 55 0 l 1
 55 700 l 1
72 252 m 0
 72 407 156 510 283 510 c 0
 417 510 507 407 507 252 c 0
 507 96 417 -8 283 -8 c 0
 156 -8 72 96 72 252 c 0
454 252 m 0
 454 384 390 460 280 460 c 0
 169 460 105 384 105 252 c 0
 105 119 169 42 280 42 c 0
 390 42 454 119 454 252 c 0
EndSplineSet
Substitution2: "'cv05' Character Variants 05 in Latin lookup 20-1" b.cv05
EndChar

StartChar: d
Encoding: 100 100 12
GlifName: d
Width: 552
Flags: HMW
AnchorPoint: "top2" 552 500 basechar 0
LayerCount: 2
Fore
SplineSet
497 700 m 5
 447 700 l 5
 447 0 l 5
 497 0 l 5
 497 700 l 5
480 252 m 4
 480 407 396 510 269 510 c 4
 135 510 45 407 45 252 c 4
 45 96 135 -8 269 -8 c 4
 396 -8 480 96 480 252 c 4
98 252 m 4
 98 384 162 460 272 460 c 4
 383 460 447 384 447 252 c 4
 447 119 383 42 272 42 c 4
 162 42 98 119 98 252 c 4
EndSplineSet
Substitution2: "'cv05' Character Variants 05 in Latin lookup 20-1" d.cv05
EndChar

StartChar: p
Encoding: 112 112 13
GlifName: p
Width: 552
Flags: HMW
LayerCount: 2
Fore
SplineSet
55 500 m 5
 105 500 l 5
 105 -163 l 5
 55 -163 l 5
 55 500 l 5
72 252 m 4
 72 407 156 510 283 510 c 4
 417 510 507 407 507 252 c 4
 507 96 417 -8 283 -8 c 4
 156 -8 72 96 72 252 c 4
454 252 m 4
 454 384 390 460 280 460 c 4
 169 460 105 384 105 252 c 4
 105 119 169 42 280 42 c 4
 390 42 454 119 454 252 c 4
EndSplineSet
Substitution2: "'cv05' Character Variants 05 in Latin lookup 20-1" p.cv05
EndChar

StartChar: q
Encoding: 113 113 14
GlifName: q
Width: 552
Flags: HMW
LayerCount: 2
Fore
SplineSet
497 500 m 1
 447 500 l 1
 447 -163 l 1
 497 -163 l 1
 497 500 l 1
480 252 m 0
 480 407 396 510 269 510 c 0
 135 510 45 407 45 252 c 0
 45 96 135 -8 269 -8 c 0
 396 -8 480 96 480 252 c 0
98 252 m 0
 98 384 162 460 272 460 c 0
 383 460 447 384 447 252 c 0
 447 119 383 42 272 42 c 0
 162 42 98 119 98 252 c 0
EndSplineSet
Substitution2: "'cv05' Character Variants 05 in Latin lookup 20-1" q.cv05
EndChar

StartChar: g
Encoding: 103 103 15
GlifName: g
Width: 552
Flags: HMW
AnchorPoint: "top1" 268 560 basechar 0
LayerCount: 2
Fore
SplineSet
98 259 m 0
 98 386 162 460 272 460 c 0
 383 460 447 386 447 259 c 0
 447 131 383 57 272 57 c 0
 162 57 98 131 98 259 c 0
480 259 m 0
 480 410 396 510 269 510 c 0
 135 510 45 409 45 259 c 0
 45 108 135 7 269 7 c 0
 396 7 480 108 480 259 c 0
497 500 m 1
 447 500 l 1
 447 -6 l 2
 447 -93 387 -143 283 -143 c 4
 181 -143 117 -102 108 -36 c 5
 55 -36 l 5
 70 -131 157 -193 283 -193 c 4
 412 -193 497 -120 497 -11 c 2
 497 500 l 1
EndSplineSet
Substitution2: "'cv05' Character Variants 05 in Latin lookup 20-1" g.cv05
EndChar

StartChar: t
Encoding: 116 116 16
GlifName: t
Width: 312
Flags: HMW
AnchorPoint: "top2" 232 549 basechar 0
AnchorPoint: "bottom1" 233 0 basechar 0
LayerCount: 2
Fore
SplineSet
35 500 m 5
 277 500 l 5
 277 452 l 5
 35 452 l 5
 35 500 l 5
277 48 m 5
 277 0 l 5
 235 0 l 6
 185 0 131 28 131 118 c 6
 131 630 l 5
 181 630 l 5
 181 124 l 6
 181 62 205 48 236 48 c 6
 277 48 l 5
EndSplineSet
Substitution2: "'cv05' Character Variants 05 in Latin lookup 20-1" t.cv05
Substitution2: "'ss08' Style Set 8 in Latin lookup 7-1" t.ss08
EndChar

StartChar: r
Encoding: 114 114 17
GlifName: r
Width: 304
Flags: HMW
AnchorPoint: "bottom1" 81 0 basechar 0
AnchorPoint: "top1" 160 560 basechar 0
LayerCount: 2
Fore
SplineSet
269 456 m 5
 250 456 l 6
 169 456 105 398 105 316 c 5
 76 322 l 5
 76 439 166 510 249 510 c 6
 269 510 l 5
 269 456 l 5
55 500 m 5
 105 500 l 5
 105 0 l 5
 55 0 l 5
 55 500 l 5
EndSplineSet
Substitution2: "'cv05' Character Variants 05 in Latin lookup 20-1" r.cv05
EndChar

StartChar: v
Encoding: 118 118 19
GlifName: v
Width: 531
Flags: HMW
LayerCount: 2
Fore
SplineSet
35 500 m 5
 92 500 l 5
 267 66 l 5
 438 500 l 5
 496 500 l 5
 294 0 l 5
 237 0 l 5
 35 500 l 5
EndSplineSet
Substitution2: "'cv05' Character Variants 05 in Latin lookup 20-1" v.cv05
EndChar

StartChar: f
Encoding: 102 102 20
GlifName: f
Width: 312
Flags: HMW
LayerCount: 2
Fore
SplineSet
35 452 m 5
 35 500 l 5
 277 500 l 5
 277 452 l 5
 35 452 l 5
277 652 m 5
 236 652 l 6
 196 652 166 638 166 576 c 6
 166 0 l 5
 116 0 l 5
 116 582 l 6
 116 672 178 700 235 700 c 6
 277 700 l 5
 277 652 l 5
EndSplineSet
Substitution2: "'cv05' Character Variants 05 in Latin lookup 20-1" f.cv05
EndChar

StartChar: k
Encoding: 107 107 21
GlifName: k
Width: 467
Flags: HMW
AnchorPoint: "bottom1" 243 0 basechar 0
LayerCount: 2
Fore
SplineSet
55 700 m 5
 105 700 l 5
 105 0 l 5
 55 0 l 5
 55 700 l 5
359 500 m 5
 424 500 l 5
 201 251 l 5
 432 0 l 5
 367 0 l 5
 166 215 l 5
 104 145 l 5
 75 180 l 5
 359 500 l 5
EndSplineSet
Substitution2: "'cv05' Character Variants 05 in Latin lookup 20-1" k.cv05
EndChar

StartChar: j
Encoding: 106 106 22
GlifName: j
Width: 160
Flags: HMW
LayerCount: 2
Fore
SplineSet
-36 -106 m 5
 -5 -106 l 6
 29 -106 55 -92 55 -30 c 6
 55 500 l 5
 105 500 l 5
 105 -36 l 6
 105 -126 48 -154 -4 -154 c 6
 -36 -154 l 5
 -36 -106 l 5
48 643 m 5
 112 643 l 5
 112 573 l 5
 48 573 l 5
 48 643 l 5
EndSplineSet
Substitution2: "'cv05' Character Variants 05 in Latin lookup 20-1" j.cv05
Substitution2: "'ss03' Style Set 3 in Latin lookup 2-1" j.ss03
EndChar

StartChar: w
Encoding: 119 119 23
GlifName: w
Width: 749
Flags: HMW
AnchorPoint: "top1" 370 560 basechar 0
LayerCount: 2
Fore
SplineSet
35 500 m 5
 92 500 l 5
 208 71 l 5
 345 500 l 5
 402 500 l 5
 533 71 l 5
 657 500 l 5
 714 500 l 5
 560 0 l 5
 507 0 l 5
 374 433 l 5
 235 0 l 5
 182 0 l 5
 35 500 l 5
EndSplineSet
Substitution2: "'cv05' Character Variants 05 in Latin lookup 20-1" w.cv05
EndChar

StartChar: x
Encoding: 120 120 24
GlifName: x
Width: 497
Flags: HMW
LayerCount: 2
Fore
SplineSet
35 500 m 5
 97 500 l 5
 245 280 l 5
 400 500 l 5
 462 500 l 5
 291 253 l 5
 462 0 l 5
 400 0 l 5
 252 229 l 5
 97 0 l 5
 35 0 l 5
 206 255 l 5
 35 500 l 5
EndSplineSet
Substitution2: "'cv05' Character Variants 05 in Latin lookup 20-1" x.cv05
EndChar

StartChar: y
Encoding: 121 121 25
GlifName: y
Width: 531
Flags: HMW
AnchorPoint: "bottom1" 363 0 basechar 0
AnchorPoint: "top1" 276 560 basechar 0
LayerCount: 2
Fore
SplineSet
61 -102 m 5
 132 -102 l 6
 182 -102 207 -83 226 -30 c 6
 237 0 l 5
 35 500 l 5
 92 500 l 5
 267 66 l 5
 438 500 l 5
 496 500 l 5
 282 -36 l 6
 248 -120 212 -154 156 -154 c 6
 61 -154 l 5
 61 -102 l 5
EndSplineSet
Substitution2: "'cv05' Character Variants 05 in Latin lookup 20-1" y.cv05
Substitution2: "'ss07' Style Set 7 in Latin lookup 6-1" y.ss07
EndChar

StartChar: z
Encoding: 122 122 26
GlifName: z
Width: 462
Flags: HMW
AnchorPoint: "top1" 230 560 basechar 0
LayerCount: 2
Fore
SplineSet
45 500 m 5
 417 500 l 5
 417 442 l 5
 102 48 l 5
 417 48 l 5
 417 0 l 5
 45 0 l 5
 45 58 l 5
 359 452 l 5
 45 452 l 5
 45 500 l 5
EndSplineSet
Substitution2: "'cv05' Character Variants 05 in Latin lookup 20-1" z.cv05
EndChar

StartChar: H
Encoding: 72 72 27
GlifName: H_
Width: 610
Flags: HMW
AnchorPoint: "top1" 312 700 basechar 0
LayerCount: 2
Fore
SplineSet
55 650 m 5
 105 650 l 5
 105 360 l 5
 505 360 l 5
 505 650 l 5
 555 650 l 5
 555 0 l 5
 505 0 l 5
 505 312 l 5
 105 312 l 5
 105 0 l 5
 55 0 l 5
 55 650 l 5
EndSplineSet
Substitution2: "'cv05' Character Variants 05 in Latin lookup 20-1" H.cv05
EndChar

StartChar: I
Encoding: 73 73 28
GlifName: I_
Width: 160
Flags: HMW
AnchorPoint: "bottom2" 105 0 basechar 0
AnchorPoint: "bottom1" 80 0 basechar 0
AnchorPoint: "top1" 81 700 basechar 0
LayerCount: 2
Fore
SplineSet
55 650 m 5
 105 650 l 5
 105 0 l 5
 55 0 l 5
 55 650 l 5
EndSplineSet
Substitution2: "'cv05' Character Variants 05 in Latin lookup 20-1" I.cv05
EndChar

StartChar: N
Encoding: 78 78 29
GlifName: N_
Width: 610
Flags: HMW
AnchorPoint: "bottom1" 319 0 basechar 0
AnchorPoint: "top1" 316 700 basechar 0
LayerCount: 2
Fore
SplineSet
505 650 m 5
 555 650 l 5
 555 0 l 5
 498 0 l 5
 105 591 l 5
 105 0 l 5
 55 0 l 5
 55 650 l 5
 125 650 l 5
 505 78 l 5
 505 650 l 5
EndSplineSet
Substitution2: "'cv05' Character Variants 05 in Latin lookup 20-1" N.cv05
EndChar

StartChar: M
Encoding: 77 77 30
GlifName: M_
Width: 726
Flags: HMW
LayerCount: 2
Fore
SplineSet
388 0 m 5
 338 0 l 5
 105 581 l 5
 105 0 l 5
 55 0 l 5
 55 650 l 5
 126 650 l 5
 363 72 l 5
 596 650 l 5
 671 650 l 5
 671 0 l 5
 621 0 l 5
 621 581 l 5
 388 0 l 5
EndSplineSet
Substitution2: "'cv05' Character Variants 05 in Latin lookup 20-1" M.cv05
EndChar

StartChar: L
Encoding: 76 76 31
GlifName: L_
Width: 470
Flags: HMW
AnchorPoint: "top2" 202 467 basechar 0
AnchorPoint: "bottom1" 247 0 basechar 0
AnchorPoint: "top1" 82 700 basechar 0
LayerCount: 2
Fore
SplineSet
435 0 m 5
 55 0 l 5
 55 650 l 5
 105 650 l 5
 105 48 l 5
 435 48 l 5
 435 0 l 5
EndSplineSet
Substitution2: "'cv05' Character Variants 05 in Latin lookup 20-1" L.cv05
EndChar

StartChar: E
Encoding: 69 69 32
GlifName: E_
Width: 530
Flags: HMW
AnchorPoint: "bottom2" 465 0 basechar 0
AnchorPoint: "bottom1" 279 0 basechar 0
AnchorPoint: "top1" 279 700 basechar 0
LayerCount: 2
Fore
SplineSet
485 650 m 5
 485 602 l 5
 105 602 l 5
 105 357 l 5
 457 357 l 5
 457 309 l 5
 105 309 l 5
 105 48 l 5
 485 48 l 5
 485 0 l 5
 55 0 l 5
 55 650 l 5
 485 650 l 5
EndSplineSet
Substitution2: "'cv05' Character Variants 05 in Latin lookup 20-1" E.cv05
EndChar

StartChar: F
Encoding: 70 70 33
GlifName: F_
Width: 530
Flags: HMW
LayerCount: 2
Fore
SplineSet
485 650 m 5
 485 602 l 5
 105 602 l 5
 105 337 l 5
 457 337 l 5
 457 289 l 5
 105 289 l 5
 105 0 l 5
 55 0 l 5
 55 650 l 5
 485 650 l 5
EndSplineSet
Substitution2: "'cv05' Character Variants 05 in Latin lookup 20-1" F.cv05
EndChar

StartChar: T
Encoding: 84 84 34
GlifName: T_
Width: 520
Flags: HMW
AnchorPoint: "bottom1" 260 0 basechar 0
AnchorPoint: "top1" 258 700 basechar 0
LayerCount: 2
Fore
SplineSet
485 650 m 5
 485 602 l 5
 285 602 l 5
 285 0 l 5
 235 0 l 5
 235 602 l 5
 35 602 l 5
 35 650 l 5
 485 650 l 5
EndSplineSet
Substitution2: "'cv05' Character Variants 05 in Latin lookup 20-1" T.cv05
EndChar

StartChar: O
Encoding: 79 79 35
GlifName: O_
Width: 665
Flags: HMW
AnchorPoint: "top3" 401 650 basechar 0
AnchorPoint: "bottom1" 332 0 basechar 0
AnchorPoint: "top1" 334 700 basechar 0
LayerCount: 2
Fore
SplineSet
45 317 m 4
 45 523 160 660 333 660 c 4
 505 660 620 523 620 317 c 4
 620 122 505 -8 333 -8 c 4
 160 -8 45 122 45 317 c 4
567 317 m 4
 567 502 481 610 333 610 c 4
 184 610 98 502 98 317 c 4
 98 143 184 42 333 42 c 4
 481 42 567 143 567 317 c 4
EndSplineSet
Substitution2: "'cv05' Character Variants 05 in Latin lookup 20-1" O.cv05
EndChar

StartChar: C
Encoding: 67 67 36
GlifName: C_
Width: 637
Flags: HMW
AnchorPoint: "bottom1" 321 0 basechar 0
AnchorPoint: "top1" 322 700 basechar 0
LayerCount: 2
Fore
SplineSet
45 327 m 4
 45 527 155 660 322 660 c 4
 472 660 582 570 592 439 c 5
 539 439 l 5
 534 544 450 610 322 610 c 4
 180 610 98 507 98 327 c 4
 98 146 180 42 322 42 c 4
 448 42 532 108 539 214 c 5
 592 214 l 5
 578 80 471 -8 322 -8 c 4
 156 -8 45 126 45 327 c 4
EndSplineSet
Substitution2: "'cv05' Character Variants 05 in Latin lookup 20-1" C.cv05
EndChar

StartChar: G
Encoding: 71 71 37
GlifName: G_
Width: 647
Flags: HMW
AnchorPoint: "bottom1" 321 0 basechar 0
AnchorPoint: "top1" 322 700 basechar 0
LayerCount: 2
Fore
SplineSet
542 322 m 1
 592 332 l 1
 592 0 l 1
 552 0 l 1
 542 322 l 1
320 332 m 1
 592 332 l 1
 582 284 l 5
 320 284 l 1
 320 332 l 1
45 327 m 0
 45 527 155 660 322 660 c 0
 472 660 582 570 592 439 c 1
 539 439 l 1
 534 544 450 610 322 610 c 0
 180 610 98 507 98 327 c 0
 98 146 180 42 322 42 c 0
 448 42 529 149 529 314 c 1
 569 314 l 1
 569 127 466 -8 322 -8 c 0
 156 -8 45 126 45 327 c 0
EndSplineSet
Substitution2: "'cv05' Character Variants 05 in Latin lookup 20-1" G.cv05
Substitution2: "'ss04' Style Set 4 in Latin lookup 3-1" G.ss04
EndChar

StartChar: Q
Encoding: 81 81 38
GlifName: Q_
Width: 665
Flags: HMW
LayerCount: 2
Fore
SplineSet
629 23 m 5
 600 -18 l 5
 320 186 l 5
 349 227 l 5
 629 23 l 5
45 317 m 4
 45 523 160 660 333 660 c 4
 505 660 620 523 620 317 c 4
 620 122 505 -8 333 -8 c 4
 160 -8 45 122 45 317 c 4
567 317 m 4
 567 502 481 610 333 610 c 4
 184 610 98 502 98 317 c 4
 98 143 184 42 333 42 c 4
 481 42 567 143 567 317 c 4
EndSplineSet
Substitution2: "'cv05' Character Variants 05 in Latin lookup 20-1" Q.cv05
EndChar

StartChar: S
Encoding: 83 83 39
GlifName: S_
Width: 570
Flags: HMW
AnchorPoint: "bottom1" 299 0 basechar 0
AnchorPoint: "top1" 275 700 basechar 0
LayerCount: 2
Fore
SplineSet
320 296 m 6
 245 306 l 6
 119 322 50 377 50 473 c 4
 50 587 136 659 277 659 c 4
 412 659 501 584 513 460 c 5
 461 460 l 5
 445 560 387 607 276 607 c 4
 170 607 100 555 100 475 c 4
 100 409 150 373 249 360 c 6
 324 350 l 6
 459 333 525 275 525 172 c 4
 525 63 436 -8 300 -8 c 4
 150 -8 58 71 45 190 c 5
 99 190 l 5
 116 89 180 43 301 43 c 4
 405 43 475 93 475 172 c 4
 475 241 423 284 320 296 c 6
EndSplineSet
Substitution2: "'cv05' Character Variants 05 in Latin lookup 20-1" S.cv05
EndChar

StartChar: J
Encoding: 74 74 40
GlifName: J_
Width: 312
Flags: HMW
AnchorPoint: "top1" 233 700 basechar 0
LayerCount: 2
Fore
SplineSet
26 48 m 5
 87 48 l 6
 155 48 207 77 207 204 c 6
 207 650 l 5
 257 650 l 5
 257 198 l 6
 257 47 169 0 88 0 c 6
 26 0 l 5
 26 48 l 5
EndSplineSet
Substitution2: "'cv05' Character Variants 05 in Latin lookup 20-1" J.cv05
Substitution2: "'ss06' Style Set 6 in Latin lookup 5-1" J.ss06
EndChar

StartChar: V
Encoding: 86 86 41
GlifName: V_
Width: 616
Flags: HMW
LayerCount: 2
Fore
SplineSet
35 650 m 5
 92 650 l 5
 309 66 l 5
 523 650 l 5
 581 650 l 5
 336 0 l 5
 279 0 l 5
 35 650 l 5
EndSplineSet
Substitution2: "'cv05' Character Variants 05 in Latin lookup 20-1" V.cv05
EndChar

StartChar: W
Encoding: 87 87 42
GlifName: W_
Width: 955
Flags: HMW
AnchorPoint: "top1" 477 700 basechar 0
LayerCount: 2
Fore
SplineSet
35 650 m 5
 92 650 l 5
 250 71 l 5
 448 650 l 5
 505 650 l 5
 697 71 l 5
 863 650 l 5
 920 650 l 5
 724 0 l 5
 671 0 l 5
 477 583 l 5
 277 0 l 5
 224 0 l 5
 35 650 l 5
EndSplineSet
Substitution2: "'cv05' Character Variants 05 in Latin lookup 20-1" W.cv05
EndChar

StartChar: X
Encoding: 88 88 43
GlifName: X_
Width: 567
Flags: HMW
LayerCount: 2
Fore
SplineSet
35 650 m 5
 99 650 l 5
 282 350 l 5
 470 650 l 5
 532 650 l 5
 326 323 l 5
 532 0 l 5
 468 0 l 5
 285 299 l 5
 95 0 l 5
 35 0 l 5
 241 325 l 5
 35 650 l 5
EndSplineSet
Substitution2: "'cv05' Character Variants 05 in Latin lookup 20-1" X.cv05
EndChar

StartChar: Y
Encoding: 89 89 44
GlifName: Y_
Width: 567
Flags: HMW
AnchorPoint: "bottom1" 283 0 basechar 0
AnchorPoint: "top1" 294 700 basechar 0
LayerCount: 2
Fore
SplineSet
257 225 m 5
 35 650 l 5
 97 650 l 5
 282 288 l 5
 472 650 l 5
 532 650 l 5
 307 225 l 5
 307 0 l 5
 257 0 l 5
 257 225 l 5
EndSplineSet
Substitution2: "'cv05' Character Variants 05 in Latin lookup 20-1" Y.cv05
EndChar

StartChar: A
Encoding: 65 65 45
GlifName: A_
Width: 616
Flags: HMW
AnchorPoint: "bottom2" 581 0 basechar 0
AnchorPoint: "bottom1" 306 0 basechar 0
AnchorPoint: "top1" 308 700 basechar 0
LayerCount: 2
Fore
SplineSet
144 236 m 1
 466 236 l 1
 466 188 l 1
 144 188 l 1
 144 236 l 1
581 0 m 1
 524 0 l 1
 307 584 l 1
 93 0 l 1
 35 0 l 1
 280 650 l 5
 337 650 l 5
 581 0 l 1
EndSplineSet
Substitution2: "'cv05' Character Variants 05 in Latin lookup 20-1" A.cv05
EndChar

StartChar: Z
Encoding: 90 90 46
GlifName: Z_
Width: 552
Flags: HMW
AnchorPoint: "top1" 281 700 basechar 0
LayerCount: 2
Fore
SplineSet
45 650 m 5
 507 650 l 5
 507 592 l 5
 102 48 l 5
 507 48 l 5
 507 0 l 5
 45 0 l 5
 45 58 l 5
 449 602 l 5
 45 602 l 5
 45 650 l 5
EndSplineSet
Substitution2: "'cv05' Character Variants 05 in Latin lookup 20-1" Z.cv05
EndChar

StartChar: U
Encoding: 85 85 47
GlifName: U_
Width: 579
Flags: HMW
AnchorPoint: "top3" 479 650 basechar 0
AnchorPoint: "bottom2" 325 0 basechar 0
AnchorPoint: "bottom1" 291 0 basechar 0
AnchorPoint: "top1" 296 700 basechar 0
LayerCount: 2
Fore
SplineSet
50 650 m 5
 100 650 l 5
 100 247 l 6
 100 117 170 42 290 42 c 4
 409 42 479 117 479 247 c 6
 479 650 l 5
 529 650 l 5
 529 247 l 6
 529 94 433 -8 290 -8 c 4
 146 -8 50 94 50 247 c 6
 50 650 l 5
EndSplineSet
Substitution2: "'cv05' Character Variants 05 in Latin lookup 20-1" U.cv05
EndChar

StartChar: R
Encoding: 82 82 48
GlifName: R_
Width: 559
Flags: HMW
AnchorPoint: "bottom1" 294 0 basechar 0
AnchorPoint: "top1" 282 700 basechar 0
LayerCount: 2
Fore
SplineSet
272 279 m 5
 322 299 l 5
 439 299 483 262 496 153 c 6
 514 0 l 5
 464 0 l 5
 447 146 l 6
 436 240 385 279 272 279 c 5
312 602 m 6
 105 602 l 5
 105 327 l 5
 312 327 l 6
 406 327 461 376 461 461 c 4
 461 550 406 602 312 602 c 6
322 289 m 5
 314 279 l 5
 105 279 l 5
 105 0 l 5
 55 0 l 5
 55 650 l 5
 317 650 l 6
 435 650 514 575 514 461 c 4
 514 358 437 289 322 289 c 5
EndSplineSet
Substitution2: "'cv05' Character Variants 05 in Latin lookup 20-1" R.cv05
Substitution2: "'ss05' Style Set 5 in Latin lookup 4-1" R.ss05
EndChar

StartChar: B
Encoding: 66 66 49
GlifName: B_
Width: 589
Flags: HMW
LayerCount: 2
Fore
SplineSet
347 650 m 6
 447 650 514 584 514 484 c 4
 514 414 480 360 425 335 c 5
 498 311 544 251 544 171 c 4
 544 68 473 0 367 -0 c 6
 55 0 l 5
 55 650 l 5
 347 650 l 6
342 602 m 6
 105 602 l 5
 105 357 l 5
 342 357 l 6
 417 357 461 404 461 484 c 4
 461 559 417 602 342 602 c 6
342 309 m 6
 105 309 l 5
 105 48 l 5
 362 48 l 6
 443 48 491 93 491 171 c 4
 491 258 436 309 342 309 c 6
EndSplineSet
Substitution2: "'cv05' Character Variants 05 in Latin lookup 20-1" B.cv05
EndChar

StartChar: D
Encoding: 68 68 50
GlifName: D_
Width: 609
Flags: HMW
AnchorPoint: "top1" 282 700 basechar 0
LayerCount: 2
Fore
SplineSet
105 602 m 5
 105 48 l 5
 297 48 l 6
 432 48 511 145 511 313 c 4
 511 496 425 602 277 602 c 6
 105 602 l 5
287 650 m 6
 453 650 564 515 564 313 c 4
 564 125 461 0 307 0 c 6
 55 0 l 5
 55 650 l 5
 287 650 l 6
EndSplineSet
Substitution2: "'cv05' Character Variants 05 in Latin lookup 20-1" D.cv05
EndChar

StartChar: P
Encoding: 80 80 51
GlifName: P_
Width: 554
Flags: HMW
LayerCount: 2
Fore
SplineSet
302 602 m 6
 105 602 l 5
 105 297 l 5
 302 297 l 6
 402 297 461 352 461 446 c 4
 461 545 403 602 302 602 c 6
312 249 m 6
 105 249 l 5
 105 0 l 5
 55 0 l 5
 55 650 l 5
 307 650 l 6
 431 650 514 569 514 446 c 4
 514 333 437 249 312 249 c 6
EndSplineSet
Substitution2: "'cv05' Character Variants 05 in Latin lookup 20-1" P.cv05
EndChar

StartChar: K
Encoding: 75 75 52
GlifName: K_
Width: 519
Flags: HMW
AnchorPoint: "bottom1" 266 0 basechar 0
AnchorPoint: "top1" 263 700 basechar 0
LayerCount: 2
Fore
SplineSet
55 650 m 1
 105 650 l 1
 105 0 l 1
 55 0 l 1
 55 650 l 1
429 650 m 1
 496 650 l 1
 201 337 l 1
 504 0 l 1
 439 0 l 1
 166 301 l 1
 104 231 l 1
 75 266 l 1
 429 650 l 1
EndSplineSet
Substitution2: "'cv05' Character Variants 05 in Latin lookup 20-1" K.cv05
EndChar

StartChar: four
Encoding: 52 52 53
GlifName: four
Width: 532
Flags: HMW
LayerCount: 2
Fore
SplineSet
404 172 m 1
 404 0 l 1
 354 0 l 1
 354 172 l 1
 35 172 l 1
 35 229 l 1
 344 650 l 1
 404 650 l 1
 404 219 l 1
 507 219 l 1
 507 172 l 1
 404 172 l 1
354 219 m 1
 354 588 l 1
 88 219 l 1
 354 219 l 1
EndSplineSet
Substitution2: "'cv05' Character Variants 05 in Latin lookup 20-1" four.cv05
Substitution2: "'cv04' Character Variants 04 in Latin lookup 19-1" uni2463
Substitution2: "'cv03' Character Variants 03 in Latin lookup 18-1" uni2779
Substitution2: "'cv02' Character Variants 02 in Latin lookup 17-1" four.cv02
Substitution2: "'cv01' Character Variants 01 in Latin lookup 16-1" four.cv01
Substitution2: "'sups' Superscript in Latin lookup 15-1" uni2074
Substitution2: "'subs' Subscript in Latin lookup 14-1" uni2084
Substitution2: "'numr' Numerators in Latin lookup 13-1" four.numr
Substitution2: "'dnom' Denominators in Latin lookup 12-1" four.dnom
Substitution2: "'tnum' Tabular Numbers in Latin lookup 11-1" four.tabl
EndChar

StartChar: three
Encoding: 51 51 54
GlifName: three
Width: 517
Flags: HMW
LayerCount: 2
Fore
SplineSet
335 352 m 1
 335 302 l 1
 216 302 l 1
 216 352 l 1
 335 352 l 1
285 312 m 1
 285 352 l 1
 364 352 409 397 409 474 c 0
 409 559 353 608 255 608 c 0
 168 608 111 557 108 476 c 1
 55 476 l 1
 63 584 144 658 255 658 c 0
 379 658 462 585 462 474 c 0
 462 377 391 312 285 312 c 1
285 342 m 1
 397 342 472 275 472 175 c 0
 472 65 385 -8 255 -8 c 0
 139 -8 53 65 45 171 c 1
 98 171 l 1
 102 92 163 42 255 42 c 0
 359 42 419 90 419 175 c 0
 419 256 370 302 285 302 c 1
 285 342 l 1
EndSplineSet
Substitution2: "'cv05' Character Variants 05 in Latin lookup 20-1" three.cv05
Substitution2: "'cv04' Character Variants 04 in Latin lookup 19-1" uni2462
Substitution2: "'cv03' Character Variants 03 in Latin lookup 18-1" uni2778
Substitution2: "'cv02' Character Variants 02 in Latin lookup 17-1" three.cv02
Substitution2: "'cv01' Character Variants 01 in Latin lookup 16-1" three.cv01
Substitution2: "'sups' Superscript in Latin lookup 15-1" uni00B3
Substitution2: "'subs' Subscript in Latin lookup 14-1" uni2083
Substitution2: "'numr' Numerators in Latin lookup 13-1" three.numr
Substitution2: "'dnom' Denominators in Latin lookup 12-1" three.dnom
Substitution2: "'tnum' Tabular Numbers in Latin lookup 11-1" three.tabl
EndChar

StartChar: period
Encoding: 46 46 55
GlifName: period
Width: 160
Flags: HMW
LayerCount: 2
Fore
SplineSet
48 70 m 5
 112 70 l 5
 112 0 l 5
 48 0 l 5
 48 70 l 5
EndSplineSet
Substitution2: "'cv05' Character Variants 05 in Latin lookup 20-1" period.cv05
Substitution2: "'tnum' Tabular Numbers in Latin lookup 11-1" period.tabl
Substitution2: "'ss03' Style Set 3 in Latin lookup 2-1" period.ss03
EndChar

StartChar: comma
Encoding: 44 44 56
GlifName: comma
Width: 160
Flags: HMW
LayerCount: 2
Fore
SplineSet
48 70 m 5
 112 70 l 5
 112 0 l 5
 82 -125 l 5
 41 -125 l 5
 87 0 l 5
 48 0 l 5
 48 70 l 5
EndSplineSet
Substitution2: "'cv05' Character Variants 05 in Latin lookup 20-1" comma.cv05
Substitution2: "'ss03' Style Set 3 in Latin lookup 2-1" comma.ss03
EndChar

StartChar: colon
Encoding: 58 58 57
GlifName: colon
Width: 160
Flags: HMW
LayerCount: 2
Fore
SplineSet
48 480 m 5
 112 480 l 5
 112 410 l 5
 48 410 l 5
 48 480 l 5
48 70 m 5
 112 70 l 5
 112 0 l 5
 48 0 l 5
 48 70 l 5
EndSplineSet
Substitution2: "'cv05' Character Variants 05 in Latin lookup 20-1" colon.cv05
Substitution2: "'tnum' Tabular Numbers in Latin lookup 11-1" colon.tabl
Substitution2: "'ss03' Style Set 3 in Latin lookup 2-1" colon.ss03
EndChar

StartChar: semicolon
Encoding: 59 59 58
GlifName: semicolon
Width: 160
Flags: HMW
LayerCount: 2
Fore
SplineSet
48 480 m 1
 112 480 l 1
 112 410 l 1
 48 410 l 1
 48 480 l 1
48 70 m 1
 112 70 l 5
 112 0 l 5
 82 -125 l 1
 41 -125 l 1
 87 0 l 5
 48 0 l 1
 48 70 l 1
EndSplineSet
Substitution2: "'cv05' Character Variants 05 in Latin lookup 20-1" semicolon.cv05
Substitution2: "'ss03' Style Set 3 in Latin lookup 2-1" semicolon.ss03
EndChar

StartChar: hyphen
Encoding: 45 45 59
GlifName: hyphen
Width: 462
Flags: HMW
LayerCount: 2
Fore
SplineSet
35 300 m 5
 427 300 l 5
 427 252 l 5
 35 252 l 5
 35 300 l 5
EndSplineSet
Substitution2: "'cv05' Character Variants 05 in Latin lookup 20-1" hyphen.cv05
Substitution2: "'sups' Superscript in Latin lookup 15-1" uni207B
Substitution2: "'subs' Subscript in Latin lookup 14-1" uni208B
Substitution2: "'tnum' Tabular Numbers in Latin lookup 11-1" hyphen.tabl
EndChar

StartChar: plus
Encoding: 43 43 60
GlifName: plus
Width: 546
Flags: HMW
LayerCount: 2
Fore
SplineSet
297 300 m 5
 511 300 l 5
 511 252 l 5
 297 252 l 5
 297 38 l 5
 249 38 l 5
 249 252 l 5
 35 252 l 5
 35 300 l 5
 249 300 l 5
 249 514 l 5
 297 514 l 5
 297 300 l 5
EndSplineSet
Substitution2: "'cv05' Character Variants 05 in Latin lookup 20-1" plus.cv05
Substitution2: "'sups' Superscript in Latin lookup 15-1" uni207A
Substitution2: "'subs' Subscript in Latin lookup 14-1" uni208A
Substitution2: "'tnum' Tabular Numbers in Latin lookup 11-1" plus.tabl
EndChar

StartChar: equal
Encoding: 61 61 61
GlifName: equal
Width: 546
Flags: HMW
LayerCount: 2
Fore
SplineSet
511 165 m 5
 511 117 l 5
 35 117 l 5
 35 165 l 5
 511 165 l 5
511 425 m 5
 511 377 l 5
 35 377 l 5
 35 425 l 5
 511 425 l 5
EndSplineSet
Substitution2: "'cv05' Character Variants 05 in Latin lookup 20-1" equal.cv05
Substitution2: "'sups' Superscript in Latin lookup 15-1" uni207C
Substitution2: "'subs' Subscript in Latin lookup 14-1" uni208C
EndChar

StartChar: quotesingle
Encoding: 39 39 62
GlifName: quotesingle
Width: 160
Flags: HMW
LayerCount: 2
Fore
SplineSet
55 700 m 5
 105 700 l 5
 95 500 l 5
 55 500 l 5
 55 700 l 5
EndSplineSet
Substitution2: "'cv05' Character Variants 05 in Latin lookup 20-1" quotesingle.cv05
EndChar

StartChar: quotedbl
Encoding: 34 34 63
GlifName: quotedbl
Width: 270
Flags: HMW
LayerCount: 2
Fore
SplineSet
165 700 m 5
 215 700 l 5
 205 500 l 5
 165 500 l 5
 165 700 l 5
55 700 m 5
 105 700 l 5
 95 500 l 5
 55 500 l 5
 55 700 l 5
EndSplineSet
Substitution2: "'cv05' Character Variants 05 in Latin lookup 20-1" quotedbl.cv05
EndChar

StartChar: one
Encoding: 49 49 64
GlifName: one
Width: 296
Flags: HMW
LayerCount: 2
Fore
SplineSet
191 650 m 5
 241 650 l 5
 241 0 l 5
 191 0 l 5
 191 500 l 5
 35 500 l 5
 35 543 l 5
 112 543 l 6
 164 543 191 558 191 610 c 6
 191 650 l 5
EndSplineSet
Substitution2: "'cv05' Character Variants 05 in Latin lookup 20-1" one.cv05
Substitution2: "'cv04' Character Variants 04 in Latin lookup 19-1" uni2460
Substitution2: "'cv03' Character Variants 03 in Latin lookup 18-1" uni2776
Substitution2: "'cv02' Character Variants 02 in Latin lookup 17-1" one.cv02
Substitution2: "'cv01' Character Variants 01 in Latin lookup 16-1" one.cv01
Substitution2: "'sups' Superscript in Latin lookup 15-1" uni00B9
Substitution2: "'subs' Subscript in Latin lookup 14-1" uni2081
Substitution2: "'numr' Numerators in Latin lookup 13-1" one.numr
Substitution2: "'dnom' Denominators in Latin lookup 12-1" one.dnom
Substitution2: "'tnum' Tabular Numbers in Latin lookup 11-1" one.tabl
EndChar

StartChar: exclam
Encoding: 33 33 65
GlifName: exclam
Width: 160
Flags: HMW
LayerCount: 2
Fore
SplineSet
112 0 m 5
 48 0 l 5
 48 70 l 5
 112 70 l 5
 112 0 l 5
101 143 m 5
 59 143 l 5
 55 650 l 5
 105 650 l 5
 101 143 l 5
EndSplineSet
Substitution2: "'cv05' Character Variants 05 in Latin lookup 20-1" exclam.cv05
Substitution2: "'ss03' Style Set 3 in Latin lookup 2-1" exclam.ss03
EndChar

StartChar: zero
Encoding: 48 48 66
GlifName: zero
Width: 545
Flags: HMW
LayerCount: 2
Fore
SplineSet
45 317 m 4
 45 533 130 660 273 660 c 4
 416 660 500 533 500 317 c 4
 500 112 416 -8 273 -8 c 4
 129 -8 45 112 45 317 c 4
447 317 m 4
 447 512 389 610 273 610 c 4
 156 610 98 512 98 317 c 4
 98 133 156 42 273 42 c 4
 389 42 447 133 447 317 c 4
EndSplineSet
Substitution2: "'cv05' Character Variants 05 in Latin lookup 20-1" zero.cv05
Substitution2: "'cv04' Character Variants 04 in Latin lookup 19-1" uni24EA
Substitution2: "'cv03' Character Variants 03 in Latin lookup 18-1" uni24FF
Substitution2: "'cv02' Character Variants 02 in Latin lookup 17-1" zero.cv02
Substitution2: "'cv01' Character Variants 01 in Latin lookup 16-1" zero.cv01
Substitution2: "'sups' Superscript in Latin lookup 15-1" uni2070
Substitution2: "'subs' Subscript in Latin lookup 14-1" uni2080
Substitution2: "'numr' Numerators in Latin lookup 13-1" zero.numr
Substitution2: "'dnom' Denominators in Latin lookup 12-1" zero.dnom
Substitution2: "'zero' Slashed Zero in Latin lookup 10-1" zero.slsh
Substitution2: "'tnum' Tabular Numbers in Latin lookup 11-1" zero.tabl
EndChar

StartChar: nine
Encoding: 57 57 67
GlifName: nine
Width: 537
Flags: HMW
LayerCount: 2
Fore
SplineSet
492 325 m 0
 492 115 403 -8 250 -8 c 0
 146 -8 71 53 53 153 c 1
 106 153 l 1
 120 81 170 42 250 42 c 0
 377 42 439 135 439 325 c 0
 439 337 438 348 437 359 c 1
 406 277 332 226 246 226 c 0
 129 226 45 317 45 443 c 0
 45 569 129 660 246 660 c 0
 396 660 492 530 492 325 c 0
417 443 m 0
 417 538 345 609 250 609 c 0
 158 609 98 543 98 443 c 0
 98 343 158 277 250 277 c 0
 350 277 417 344 417 443 c 0
EndSplineSet
Substitution2: "'cv05' Character Variants 05 in Latin lookup 20-1" nine.cv05
Substitution2: "'cv04' Character Variants 04 in Latin lookup 19-1" uni2468
Substitution2: "'cv03' Character Variants 03 in Latin lookup 18-1" uni277E
Substitution2: "'cv02' Character Variants 02 in Latin lookup 17-1" nine.cv02
Substitution2: "'cv01' Character Variants 01 in Latin lookup 16-1" nine.cv01
Substitution2: "'sups' Superscript in Latin lookup 15-1" uni2079
Substitution2: "'subs' Subscript in Latin lookup 14-1" uni2089
Substitution2: "'numr' Numerators in Latin lookup 13-1" nine.numr
Substitution2: "'dnom' Denominators in Latin lookup 12-1" nine.dnom
Substitution2: "'tnum' Tabular Numbers in Latin lookup 11-1" nine.tabl
EndChar

StartChar: seven
Encoding: 55 55 68
GlifName: seven
Width: 542
Flags: HMW
LayerCount: 2
Fore
SplineSet
238 0 m 1
 247 295 355 432 497 592 c 1
 497 650 l 1
 45 650 l 1
 45 602 l 1
 446 602 l 1
 323 455 212 343 184 0 c 1
 238 0 l 1
EndSplineSet
Substitution2: "'cv05' Character Variants 05 in Latin lookup 20-1" seven.cv05
Substitution2: "'cv04' Character Variants 04 in Latin lookup 19-1" uni2466
Substitution2: "'cv03' Character Variants 03 in Latin lookup 18-1" uni277C
Substitution2: "'cv02' Character Variants 02 in Latin lookup 17-1" seven.cv02
Substitution2: "'cv01' Character Variants 01 in Latin lookup 16-1" seven.cv01
Substitution2: "'sups' Superscript in Latin lookup 15-1" uni2077
Substitution2: "'subs' Subscript in Latin lookup 14-1" uni2087
Substitution2: "'numr' Numerators in Latin lookup 13-1" seven.numr
Substitution2: "'dnom' Denominators in Latin lookup 12-1" seven.dnom
Substitution2: "'tnum' Tabular Numbers in Latin lookup 11-1" seven.tabl
EndChar

StartChar: two
Encoding: 50 50 69
GlifName: two
Width: 517
Flags: HMW
LayerCount: 2
Fore
SplineSet
97 48 m 1
 468 48 l 1
 468 0 l 1
 45 0 l 1
 45 14 l 1
 45 159 159 217 261 273 c 0
 344 319 419 363 419 454 c 0
 419 552 359 608 255 608 c 0
 163 608 102 550 98 459 c 1
 45 459 l 1
 53 577 139 658 255 658 c 0
 385 658 472 577 472 454 c 0
 472 346 384 286 293 234 c 0
 197 179 97 133 97 48 c 1
EndSplineSet
Substitution2: "'cv05' Character Variants 05 in Latin lookup 20-1" two.cv05
Substitution2: "'cv04' Character Variants 04 in Latin lookup 19-1" uni2461
Substitution2: "'cv03' Character Variants 03 in Latin lookup 18-1" uni2777
Substitution2: "'cv02' Character Variants 02 in Latin lookup 17-1" two.cv02
Substitution2: "'cv01' Character Variants 01 in Latin lookup 16-1" two.cv01
Substitution2: "'sups' Superscript in Latin lookup 15-1" uni00B2
Substitution2: "'subs' Subscript in Latin lookup 14-1" uni2082
Substitution2: "'numr' Numerators in Latin lookup 13-1" two.numr
Substitution2: "'dnom' Denominators in Latin lookup 12-1" two.dnom
Substitution2: "'tnum' Tabular Numbers in Latin lookup 11-1" two.tabl
EndChar

StartChar: eight
Encoding: 56 56 70
GlifName: eight
Width: 517
Flags: HMW
LayerCount: 2
Fore
SplineSet
353.626934819 328.468715771 m 1
 426.942688311 303.778623076 471.999999999 246.889347136 472 171 c 0
 472 63 387 -8 258 -8 c 0
 130 -8 45 63 45 171 c 0
 45 246.889347136 90.0573116906 303.778623077 163.373065186 328.468715771 c 1
 102.219149131 353.981897459 65 407.55460826 65 478 c 0
 65 586 142 658 258 658 c 0
 375 658 452 586 452 478 c 0
 452 407.554608261 414.780850871 353.981897461 353.626934819 328.468715771 c 1
265 352 m 2
 350 352 399 398 399 478 c 0
 399 561 348 608 258 608 c 0
 169 608 118 561 118 478 c 0
 118 398 167 352 252 352 c 2
 265 352 l 2
265 302 m 2
 252 302 l 2
 154 302 98 254 98 171 c 0
 98 89 156 42 258 42 c 0
 360 42 419 89 419 171 c 0
 419 254 363 302 265 302 c 2
EndSplineSet
Substitution2: "'cv05' Character Variants 05 in Latin lookup 20-1" eight.cv05
Substitution2: "'cv04' Character Variants 04 in Latin lookup 19-1" uni2467
Substitution2: "'cv03' Character Variants 03 in Latin lookup 18-1" uni277D
Substitution2: "'cv02' Character Variants 02 in Latin lookup 17-1" eight.cv02
Substitution2: "'cv01' Character Variants 01 in Latin lookup 16-1" eight.cv01
Substitution2: "'sups' Superscript in Latin lookup 15-1" uni2078
Substitution2: "'subs' Subscript in Latin lookup 14-1" uni2088
Substitution2: "'numr' Numerators in Latin lookup 13-1" eight.numr
Substitution2: "'dnom' Denominators in Latin lookup 12-1" eight.dnom
Substitution2: "'tnum' Tabular Numbers in Latin lookup 11-1" eight.tabl
EndChar

StartChar: five
Encoding: 53 53 71
GlifName: five
Width: 517
Flags: HMW
LayerCount: 2
Fore
SplineSet
419 214 m 4
 419 100 360 42 257 42 c 4
 163 42 102 89 98 164 c 5
 45 164 l 5
 53 62 138 -8 257 -8 c 4
 385 -8 472 76 472 215 c 4
 472 344 390 437 260 437 c 4
 189 437 132 408 96 363 c 5
 118 603 l 5
 449 603 l 5
 449 651 l 5
 75 651 l 5
 45 309 l 5
 94 309 l 5
 124 357 179 387 253 387 c 4
 360 387 419 320 419 214 c 4
EndSplineSet
Substitution2: "'cv05' Character Variants 05 in Latin lookup 20-1" five.cv05
Substitution2: "'cv04' Character Variants 04 in Latin lookup 19-1" uni2464
Substitution2: "'cv03' Character Variants 03 in Latin lookup 18-1" uni277A
Substitution2: "'cv02' Character Variants 02 in Latin lookup 17-1" five.cv02
Substitution2: "'cv01' Character Variants 01 in Latin lookup 16-1" five.cv01
Substitution2: "'sups' Superscript in Latin lookup 15-1" uni2075
Substitution2: "'subs' Subscript in Latin lookup 14-1" uni2085
Substitution2: "'numr' Numerators in Latin lookup 13-1" five.numr
Substitution2: "'dnom' Denominators in Latin lookup 12-1" five.dnom
Substitution2: "'tnum' Tabular Numbers in Latin lookup 11-1" five.tabl
EndChar

StartChar: six
Encoding: 54 54 72
GlifName: six
Width: 537
Flags: HMW
LayerCount: 2
Fore
SplineSet
45 327 m 4
 45 537 134 660 287 660 c 4
 391 660 466 599 484 499 c 5
 431 499 l 5
 417 571 367 610 287 610 c 4
 160 610 98 517 98 327 c 4
 98 315 99 304 100 293 c 5
 131 375 205 426 291 426 c 4
 408 426 492 335 492 209 c 4
 492 83 408 -8 291 -8 c 4
 141 -8 45 122 45 327 c 4
120 209 m 4
 120 114 192 43 287 43 c 4
 379 43 439 109 439 209 c 4
 439 309 379 375 287 375 c 4
 187 375 120 308 120 209 c 4
EndSplineSet
Substitution2: "'cv05' Character Variants 05 in Latin lookup 20-1" six.cv05
Substitution2: "'cv04' Character Variants 04 in Latin lookup 19-1" uni2465
Substitution2: "'cv03' Character Variants 03 in Latin lookup 18-1" uni277B
Substitution2: "'cv02' Character Variants 02 in Latin lookup 17-1" six.cv02
Substitution2: "'cv01' Character Variants 01 in Latin lookup 16-1" six.cv01
Substitution2: "'sups' Superscript in Latin lookup 15-1" uni2076
Substitution2: "'subs' Subscript in Latin lookup 14-1" uni2086
Substitution2: "'numr' Numerators in Latin lookup 13-1" six.numr
Substitution2: "'dnom' Denominators in Latin lookup 12-1" six.dnom
Substitution2: "'tnum' Tabular Numbers in Latin lookup 11-1" six.tabl
EndChar

StartChar: a.ss01
Encoding: 65536 -1 73
GlifName: a.ss01
Width: 552
Flags: HMW
AnchorPoint: "bottom2" 497 0 basechar 0
AnchorPoint: "bottom1" 272 0 basechar 0
AnchorPoint: "top1" 289 560 basechar 0
LayerCount: 2
Fore
SplineSet
497 500 m 1
 447 500 l 1
 447 0 l 1
 497 0 l 1
 497 500 l 1
480 252 m 0
 480 407 396 510 269 510 c 0
 135 510 45 407 45 252 c 0
 45 96 135 -8 269 -8 c 0
 396 -8 480 96 480 252 c 0
98 252 m 0
 98 384 162 460 272 460 c 0
 383 460 447 384 447 252 c 0
 447 119 383 42 272 42 c 0
 162 42 98 119 98 252 c 0
EndSplineSet
EndChar

StartChar: l.ss02
Encoding: 65537 -1 74
GlifName: l.ss02
Width: 221
Flags: HMW
AnchorPoint: "top1" 79 755 basechar 0
AnchorPoint: "bottom1" 110 0 basechar 0
AnchorPoint: "top2" 160 500 basechar 0
LayerCount: 2
Fore
SplineSet
186 48 m 5
 186 0 l 5
 174 0 l 6
 117 0 55 28 55 118 c 6
 55 700 l 5
 105 700 l 5
 105 124 l 6
 105 62 136 48 175 48 c 6
 186 48 l 5
EndSplineSet
EndChar

StartChar: i.ss03
Encoding: 65538 -1 75
GlifName: i.ss03
Width: 160
Flags: HMW
AnchorPoint: "bottom2" 105 0 basechar 0
AnchorPoint: "bottom1" 81 0 basechar 0
LayerCount: 2
Fore
SplineSet
38 619 m 0
 38 642 57 661 80 661 c 0
 103 661 122 642 122 619 c 0
 122 596 103 577 80 577 c 0
 57 577 38 596 38 619 c 0
55 500 m 1
 105 500 l 1
 105 0 l 1
 55 0 l 1
 55 500 l 1
EndSplineSet
EndChar

StartChar: j.ss03
Encoding: 65539 -1 76
GlifName: j.ss03
Width: 160
Flags: HMW
LayerCount: 2
Fore
SplineSet
38 619 m 4
 38 642 57 661 80 661 c 4
 103 661 122 642 122 619 c 4
 122 596 103 577 80 577 c 4
 57 577 38 596 38 619 c 4
-36 -106 m 1
 -5 -106 l 2
 29 -106 55 -92 55 -30 c 2
 55 500 l 1
 105 500 l 1
 105 -36 l 2
 105 -126 48 -154 -4 -154 c 2
 -36 -154 l 1
 -36 -106 l 1
EndSplineSet
EndChar

StartChar: G.ss04
Encoding: 65540 -1 77
GlifName: G_.ss04
Width: 647
Flags: HMW
AnchorPoint: "top1" 322 700 basechar 0
AnchorPoint: "bottom1" 321 0 basechar 0
LayerCount: 2
Fore
SplineSet
45 327 m 0
 45 527 159 660 331 660 c 0
 476 660 582 570 592 439 c 1
 539 439 l 1
 534 544 453 610 331 610 c 0
 183 610 98 507 98 327 c 0
 98 146 182 42 329 42 c 0
 459 42 544 137 544 284 c 1
 320 284 l 1
 320 332 l 1
 592 332 l 1
 592 291 l 2
 592 113 486 -8 329 -8 c 0
 158 -8 45 126 45 327 c 0
EndSplineSet
EndChar

StartChar: R.ss05
Encoding: 65541 -1 78
GlifName: R_.ss05
Width: 559
Flags: HMW
AnchorPoint: "top1" 282 700 basechar 0
AnchorPoint: "bottom1" 294 0 basechar 0
LayerCount: 2
Fore
SplineSet
357 301 m 1
 509 0 l 1
 452 0 l 1
 299 301 l 1
 357 301 l 1
312 602 m 2
 105 602 l 1
 105 327 l 1
 312 327 l 2
 406 327 461 376 461 461 c 0
 461 550 406 602 312 602 c 2
324 279 m 2
 105 279 l 1
 105 0 l 1
 55 0 l 1
 55 650 l 1
 317 650 l 2
 435 650 514 575 514 461 c 0
 514 352 438 279 324 279 c 2
EndSplineSet
EndChar

StartChar: J.ss06
Encoding: 65542 -1 79
GlifName: J_.ss06
Width: 519
Flags: HMW
AnchorPoint: "top1" 445 700 basechar 0
LayerCount: 2
Fore
SplineSet
100 179 m 5
 110 92 169 42 260 42 c 4
 361 42 419 103 419 207 c 6
 419 650 l 5
 469 650 l 5
 469 207 l 6
 469 78 385 -8 260 -8 c 4
 144 -8 60 67 50 179 c 5
 100 179 l 5
EndSplineSet
EndChar

StartChar: y.ss07
Encoding: 65543 -1 80
GlifName: y.ss07
Width: 531
Flags: HMW
AnchorPoint: "top1" 276 560 basechar 0
AnchorPoint: "bottom1" 363 0 basechar 0
LayerCount: 2
Fore
SplineSet
164 -174 m 1
 238 19 l 1
 35 500 l 1
 92 500 l 1
 268 85 l 1
 438 500 l 1
 496 500 l 1
 219 -174 l 1
 164 -174 l 1
EndSplineSet
EndChar

StartChar: t.ss08
Encoding: 65544 -1 81
GlifName: t.ss08
Width: 312
Flags: HMW
AnchorPoint: "bottom1" 157 0 basechar 0
AnchorPoint: "top2" 232 549 basechar 0
LayerCount: 2
Fore
SplineSet
35 500 m 1
 277 500 l 1
 277 452 l 1
 35 452 l 1
 35 500 l 1
131 0 m 1
 131 630 l 1
 181 630 l 1
 181 0 l 1
 131 0 l 1
EndSplineSet
EndChar

StartChar: exclam.ss03
Encoding: 65545 -1 82
GlifName: exclam.ss03
Width: 160
Flags: HMW
LayerCount: 2
Fore
SplineSet
38 34 m 4
 38 57 57 76 80 76 c 4
 103 76 122 57 122 34 c 4
 122 11 103 -8 80 -8 c 4
 57 -8 38 11 38 34 c 4
101 143 m 1
 59 143 l 1
 55 650 l 1
 105 650 l 1
 101 143 l 1
EndSplineSet
EndChar

StartChar: comma.ss03
Encoding: 65546 -1 83
GlifName: comma.ss03
Width: 160
Flags: HMW
LayerCount: 2
Fore
SplineSet
38 34 m 0
 38 57 57 76 80 76 c 0
 103 76 122 57 122 34 c 6
 122 -17 l 6
 122 -76 85 -95 52 -95 c 6
 40 -95 l 5
 40 -71 l 5
 51 -71 l 6
 80 -71 102 -60 102 -11 c 6
 102 -2 l 5
 96 -6 88 -8 80 -8 c 0
 57 -8 38 11 38 34 c 0
EndSplineSet
EndChar

StartChar: period.ss03
Encoding: 65547 -1 84
GlifName: period.ss03
Width: 160
Flags: HMW
LayerCount: 2
Fore
SplineSet
38 34 m 4
 38 57 57 76 80 76 c 4
 103 76 122 57 122 34 c 4
 122 11 103 -8 80 -8 c 4
 57 -8 38 11 38 34 c 4
EndSplineSet
Substitution2: "'tnum' Tabular Numbers in Latin lookup 11-1" period.ss03.tabl
EndChar

StartChar: colon.ss03
Encoding: 65548 -1 85
GlifName: colon.ss03
Width: 160
Flags: HMW
LayerCount: 2
Fore
SplineSet
38 447 m 4
 38 470 57 489 80 489 c 4
 103 489 122 470 122 447 c 4
 122 424 103 405 80 405 c 4
 57 405 38 424 38 447 c 4
38 34 m 4
 38 57 57 76 80 76 c 4
 103 76 122 57 122 34 c 4
 122 11 103 -8 80 -8 c 4
 57 -8 38 11 38 34 c 4
EndSplineSet
Substitution2: "'tnum' Tabular Numbers in Latin lookup 11-1" colon.ss03.tabl
EndChar

StartChar: semicolon.ss03
Encoding: 65549 -1 86
GlifName: semicolon.ss03
Width: 160
Flags: HMW
LayerCount: 2
Fore
SplineSet
38 447 m 0
 38 470 57 489 80 489 c 0
 103 489 122 470 122 447 c 0
 122 424 103 405 80 405 c 0
 57 405 38 424 38 447 c 0
38 34 m 0
 38 57 57 76 80 76 c 0
 103 76 122 57 122 34 c 2
 122 -17 l 2
 122 -76 85 -95 52 -95 c 2
 40 -95 l 1
 40 -71 l 1
 51 -71 l 2
 80 -71 102 -60 102 -11 c 2
 102 -2 l 1
 96 -6 88 -8 80 -8 c 0
 57 -8 38 11 38 34 c 0
EndSplineSet
EndChar

StartChar: numbersign
Encoding: 35 35 87
GlifName: numbersign
Width: 688
Flags: HMW
LayerCount: 2
Fore
SplineSet
583 221 m 5
 583 173 l 5
 35 173 l 5
 35 221 l 5
 583 221 l 5
653 481 m 5
 653 433 l 5
 105 433 l 5
 105 481 l 5
 653 481 l 5
577 650 m 5
 633 650 l 5
 365 0 l 5
 309 0 l 5
 577 650 l 5
323 650 m 5
 379 650 l 5
 111 0 l 5
 55 0 l 5
 323 650 l 5
EndSplineSet
Substitution2: "'cv05' Character Variants 05 in Latin lookup 20-1" numbersign.cv05
EndChar

StartChar: slash
Encoding: 47 47 88
GlifName: slash
Width: 394
Flags: HMW
LayerCount: 2
Fore
SplineSet
303 650 m 5
 359 650 l 5
 91 0 l 5
 35 0 l 5
 303 650 l 5
EndSplineSet
Substitution2: "'cv05' Character Variants 05 in Latin lookup 20-1" slash.cv05
Substitution2: "'tnum' Tabular Numbers in Latin lookup 11-1" slash.tabl
EndChar

StartChar: backslash
Encoding: 92 92 89
GlifName: backslash
Width: 394
Flags: HMW
LayerCount: 2
Fore
SplineSet
91 650 m 5
 359 0 l 5
 303 0 l 5
 35 650 l 5
 91 650 l 5
EndSplineSet
Substitution2: "'cv05' Character Variants 05 in Latin lookup 20-1" backslash.cv05
EndChar

StartChar: dollar
Encoding: 36 36 90
GlifName: dollar
Width: 570
Flags: HMW
LayerCount: 2
Fore
SplineSet
263 750 m 5
 313 750 l 5
 313 -120 l 5
 263 -120 l 5
 263 750 l 5
320 296 m 6
 245 306 l 6
 120 323 50 377 50 473 c 4
 50 587 136 659 277 659 c 4
 412 659 501 584 513 460 c 5
 461 460 l 5
 445 560 387 607 276 607 c 4
 170 607 100 555 100 475 c 4
 100 409 150 373 249 360 c 6
 324 350 l 6
 458 332 525 275 525 172 c 4
 525 63 436 -8 300 -8 c 4
 150 -8 58 71 45 190 c 5
 99 190 l 5
 116 89 180 43 301 43 c 4
 405 43 475 93 475 172 c 4
 475 241 423 282 320 296 c 6
EndSplineSet
Substitution2: "'cv05' Character Variants 05 in Latin lookup 20-1" dollar.cv05
EndChar

StartChar: bar
Encoding: 124 124 91
GlifName: bar
Width: 160
Flags: HMW
LayerCount: 2
Fore
SplineSet
55 801 m 5
 105 801 l 5
 105 -200 l 5
 55 -200 l 5
 55 801 l 5
EndSplineSet
Substitution2: "'cv05' Character Variants 05 in Latin lookup 20-1" bar.cv05
EndChar

StartChar: percent
Encoding: 37 37 92
GlifName: percent
Width: 834
Flags: HMW
LayerCount: 2
Fore
SplineSet
484 192 m 4
 484 311 547 390 642 390 c 4
 736 390 799 311 799 192 c 4
 799 72 736 -8 642 -8 c 4
 547 -8 484 72 484 192 c 4
746 192 m 4
 746 286 708 340 642 340 c 4
 576 340 537 286 537 192 c 4
 537 97 576 42 642 42 c 4
 708 42 746 97 746 192 c 4
523 650 m 5
 579 650 l 5
 311 0 l 5
 255 0 l 5
 523 650 l 5
35 461 m 4
 35 580 98 659 193 659 c 4
 287 659 350 580 350 461 c 4
 350 341 287 261 193 261 c 4
 98 261 35 341 35 461 c 4
297 461 m 4
 297 555 259 609 193 609 c 4
 127 609 88 555 88 461 c 4
 88 366 127 311 193 311 c 4
 259 311 297 366 297 461 c 4
EndSplineSet
Substitution2: "'cv05' Character Variants 05 in Latin lookup 20-1" percent.cv05
EndChar

StartChar: less
Encoding: 60 60 93
GlifName: less
Width: 570
Flags: HMW
LayerCount: 2
Fore
SplineSet
535 500 m 5
 535 444 l 5
 101 268 l 5
 535 98 l 5
 535 40 l 5
 35 242 l 5
 35 298 l 5
 535 500 l 5
EndSplineSet
Substitution2: "'cv05' Character Variants 05 in Latin lookup 20-1" less.cv05
EndChar

StartChar: greater
Encoding: 62 62 94
GlifName: greater
Width: 570
Flags: HMW
LayerCount: 2
Fore
SplineSet
35 40 m 5
 35 96 l 5
 469 272 l 5
 35 442 l 5
 35 500 l 5
 535 298 l 5
 535 242 l 5
 35 40 l 5
EndSplineSet
Substitution2: "'cv05' Character Variants 05 in Latin lookup 20-1" greater.cv05
EndChar

StartChar: question
Encoding: 63 63 95
GlifName: question
Width: 517
Flags: HMW
LayerCount: 2
Fore
SplineSet
235 143 m 5
 235 241 289 286 339 329 c 4
 381 365 419 400 419 464 c 4
 419 556 359 608 255 608 c 4
 163 608 102 550 98 459 c 5
 45 459 l 5
 53 577 139 658 255 658 c 4
 385 658 472 581 472 464 c 4
 472 378 416 335 365 289 c 4
 323 251 285 211 285 143 c 5
 235 143 l 5
291 0 m 1
 227 0 l 1
 227 70 l 1
 291 70 l 1
 291 0 l 1
EndSplineSet
Substitution2: "'cv05' Character Variants 05 in Latin lookup 20-1" question.cv05
Substitution2: "'ss03' Style Set 3 in Latin lookup 2-1" question.ss03
EndChar

StartChar: question.ss03
Encoding: 65550 -1 96
GlifName: question.ss03
Width: 517
Flags: HMW
LayerCount: 2
Fore
SplineSet
217 34 m 0
 217 57 236 76 259 76 c 0
 282 76 301 57 301 34 c 0
 301 11 282 -8 259 -8 c 0
 236 -8 217 11 217 34 c 0
235 143 m 1
 235 241 289 286 339 329 c 0
 381 365 419 400 419 464 c 0
 419 556 359 608 255 608 c 0
 163 608 102 550 98 459 c 1
 45 459 l 1
 53 577 139 658 255 658 c 0
 385 658 472 581 472 464 c 0
 472 378 416 335 365 289 c 0
 323 251 285 211 285 143 c 1
 235 143 l 1
EndSplineSet
EndChar

StartChar: parenleft
Encoding: 40 40 97
GlifName: parenleft
Width: 231
Flags: HMW
LayerCount: 2
Fore
SplineSet
216 -134 m 5
 165 -134 l 5
 90 -56 35 87 35 277 c 4
 35 467 90 610 165 688 c 5
 216 688 l 5
 130 603 88 478 88 277 c 4
 88 76 130 -49 216 -134 c 5
EndSplineSet
Substitution2: "'cv05' Character Variants 05 in Latin lookup 20-1" parenleft.cv05
Substitution2: "'sups' Superscript in Latin lookup 15-1" uni207D
Substitution2: "'subs' Subscript in Latin lookup 14-1" uni208D
EndChar

StartChar: parenright
Encoding: 41 41 98
GlifName: parenright
Width: 231
Flags: HMW
LayerCount: 2
Fore
SplineSet
5 688 m 1
 56 688 l 1
 131 610 186 467 186 277 c 4
 186 87 131 -56 56 -134 c 5
 5 -134 l 5
 91 -49 133 76 133 277 c 4
 133 478 91 603 5 688 c 1
EndSplineSet
Substitution2: "'cv05' Character Variants 05 in Latin lookup 20-1" parenright.cv05
Substitution2: "'sups' Superscript in Latin lookup 15-1" uni207E
Substitution2: "'subs' Subscript in Latin lookup 14-1" uni208E
EndChar

StartChar: bracketleft
Encoding: 91 91 99
GlifName: bracketleft
Width: 230
Flags: HMW
LayerCount: 2
Fore
SplineSet
95 642 m 5
 215 642 l 5
 215 690 l 5
 45 690 l 5
 45 -130 l 5
 215 -130 l 5
 215 -82 l 5
 95 -82 l 5
 95 642 l 5
EndSplineSet
Substitution2: "'cv05' Character Variants 05 in Latin lookup 20-1" bracketleft.cv05
EndChar

StartChar: bracketright
Encoding: 93 93 100
GlifName: bracketright
Width: 230
Flags: HMW
LayerCount: 2
Fore
SplineSet
135 -82 m 5
 15 -82 l 5
 15 -130 l 5
 185 -130 l 5
 185 690 l 5
 15 690 l 5
 15 642 l 5
 135 642 l 5
 135 -82 l 5
EndSplineSet
Substitution2: "'cv05' Character Variants 05 in Latin lookup 20-1" bracketright.cv05
EndChar

StartChar: underscore
Encoding: 95 95 101
GlifName: underscore
Width: 562
Flags: HMW
LayerCount: 2
Fore
SplineSet
35 0 m 5
 527 0 l 5
 527 -48 l 5
 35 -48 l 5
 35 0 l 5
EndSplineSet
Substitution2: "'cv05' Character Variants 05 in Latin lookup 20-1" underscore.cv05
EndChar

StartChar: grave
Encoding: 96 96 102
GlifName: grave
Width: 245
Flags: HMW
LayerCount: 2
Fore
SplineSet
35 700 m 5
 98 700 l 5
 210 540 l 5
 167 540 l 5
 35 700 l 5
EndSplineSet
Substitution2: "'cv05' Character Variants 05 in Latin lookup 20-1" grave.cv05
EndChar

StartChar: asterisk
Encoding: 42 42 103
GlifName: asterisk
Width: 528
Flags: HMW
LayerCount: 2
Fore
SplineSet
239 700 m 5
 289 700 l 5
 287 478 l 5
 494 551 l 5
 509 503 l 5
 302 434 l 5
 431 262 l 5
 391 233 l 5
 263 410 l 5
 137 233 l 5
 97 262 l 5
 226 435 l 5
 19 503 l 5
 34 551 l 5
 241 479 l 5
 239 700 l 5
EndSplineSet
Substitution2: "'cv05' Character Variants 05 in Latin lookup 20-1" asterisk.cv05
Substitution2: "'ss09' Style Set 9 in Latin lookup 8-1" asterisk.ss09
EndChar

StartChar: asterisk.ss09
Encoding: 65551 -1 104
GlifName: asterisk.ss09
Width: 658
Flags: HMW
LayerCount: 2
Fore
SplineSet
304 650 m 1
 354 650 l 1
 352 364 l 1
 598 509 l 1
 623 466 l 1
 374 325 l 1
 623 184 l 1
 598 141 l 1
 352 286 l 1
 354 0 l 1
 304 0 l 1
 306 286 l 1
 60 141 l 1
 35 184 l 1
 284 325 l 1
 35 466 l 1
 60 509 l 1
 306 364 l 1
 304 650 l 1
EndSplineSet
EndChar

StartChar: u.ss10
Encoding: 65552 -1 105
GlifName: u.ss10
Width: 502
Flags: HMW
AnchorPoint: "bottom2" 306 0 basechar 0
AnchorPoint: "top3" 397 500 basechar 0
AnchorPoint: "top1" 257 560 basechar 0
AnchorPoint: "bottom1" 252 0 basechar 0
LayerCount: 2
Fore
SplineSet
55 500 m 5
 105 500 l 5
 105 187 l 6
 105 95 159 42 252 42 c 4
 344 42 397 95 397 187 c 6
 397 500 l 5
 447 500 l 5
 447 187 l 6
 447 70 369 -8 252 -8 c 4
 134 -8 55 70 55 187 c 6
 55 500 l 5
EndSplineSet
EndChar

StartChar: braceleft
Encoding: 123 123 106
GlifName: braceleft
Width: 230
Flags: HMW
LayerCount: 2
Fore
SplineSet
215 642 m 5
 194 642 l 6
 152 642 134 619 134 566 c 6
 134 354 l 6
 134 318 118 292 89 280 c 5
 118 268 134 242 134 206 c 6
 134 -6 l 6
 134 -59 152 -82 194 -82 c 6
 215 -82 l 5
 215 -130 l 5
 189 -130 l 6
 123 -130 84 -86 84 -12 c 6
 84 200 l 6
 84 239 70 256 39 256 c 6
 13 256 l 5
 13 304 l 5
 39 304 l 6
 70 304 84 321 84 360 c 6
 84 572 l 6
 84 646 123 690 189 690 c 6
 215 690 l 5
 215 642 l 5
EndSplineSet
Substitution2: "'cv05' Character Variants 05 in Latin lookup 20-1" braceleft.cv05
EndChar

StartChar: braceright
Encoding: 125 125 107
GlifName: braceright
Width: 230
Flags: HMW
LayerCount: 2
Fore
SplineSet
13 -82 m 5
 34 -82 l 6
 76 -82 94 -59 94 -6 c 6
 94 206 l 6
 94 242 110 268 139 280 c 5
 110 292 94 318 94 354 c 6
 94 566 l 6
 94 619 76 642 34 642 c 6
 13 642 l 5
 13 690 l 5
 39 690 l 6
 105 690 144 646 144 572 c 6
 144 360 l 6
 144 321 158 304 189 304 c 6
 215 304 l 5
 215 256 l 5
 189 256 l 6
 158 256 144 239 144 200 c 6
 144 -12 l 6
 144 -86 105 -130 39 -130 c 6
 13 -130 l 5
 13 -82 l 5
EndSplineSet
Substitution2: "'cv05' Character Variants 05 in Latin lookup 20-1" braceright.cv05
EndChar

StartChar: asciicircum
Encoding: 94 94 108
GlifName: asciicircum
Width: 367
Flags: HMW
LayerCount: 2
Fore
SplineSet
157 700 m 5
 210 700 l 5
 332 500 l 5
 289 500 l 5
 184 668 l 5
 78 500 l 5
 35 500 l 5
 157 700 l 5
EndSplineSet
Substitution2: "'cv05' Character Variants 05 in Latin lookup 20-1" asciicircum.cv05
EndChar

StartChar: ampersand
Encoding: 38 38 109
GlifName: ampersand
Width: 607
Flags: HMW
LayerCount: 2
Fore
SplineSet
252 658 m 4
 346 658 412 594 412 505 c 4
 412 406 339 362 245 318 c 4
 181 288 98 255 98 160 c 4
 98 86 149 42 243 42 c 4
 371 42 459 144 479 321 c 5
 532 321 l 5
 512 123 394 -8 242 -8 c 4
 122 -8 45 59 45 163 c 4
 45 283 149 321 244 370 c 4
 302 400 359 435 359 510 c 4
 359 569 316 608 252 608 c 4
 193 608 156 570 156 509 c 4
 156 443 204 397 255 349 c 6
 592 0 l 5
 521 0 l 5
 214 318 l 6
 157 373 103 429 103 507 c 4
 103 596 165 658 252 658 c 4
EndSplineSet
Substitution2: "'cv05' Character Variants 05 in Latin lookup 20-1" ampersand.cv05
EndChar

StartChar: at
Encoding: 64 64 110
GlifName: at
Width: 885
Flags: HW
LayerCount: 2
Fore
SplineSet
311 278 m 4
 311 378 356 437 435 437 c 4
 514 437 560 378 560 278 c 4
 560 177 513 119 435 119 c 4
 356 119 311 178 311 278 c 4
593 278 m 4
 593 404 528 487 428 487 c 4
 327 487 258 403 258 278 c 4
 258 153 327 69 428 69 c 4
 528 69 593 152 593 278 c 4
610 477 m 5
 560 477 l 5
 560 187 l 6
 560 115 607 73 685 73 c 4
 781 73 840 151 840 297 c 4
 840 524 682 690 443 690 c 4
 204 690 45 525 45 282 c 4
 45 39 204 -118 444 -118 c 4
 500 -118 552 -109 599 -92 c 5
 599 -42 l 5
 541 -60 491 -68 439 -68 c 4
 230 -68 98 64 98 283 c 4
 98 502 230 640 443 640 c 4
 656 640 787 502 787 286 c 4
 787 171 753 122 684 122 c 4
 635 122 610 149 610 197 c 6
 610 477 l 5
EndSplineSet
Substitution2: "'cv05' Character Variants 05 in Latin lookup 20-1" at.cv05
EndChar

StartChar: dotlessi
Encoding: 305 305 111
GlifName: dotlessi
Width: 160
Flags: HW
AnchorPoint: "bottom1" 81 0 basechar 0
AnchorPoint: "top1" 80 560 basechar 0
LayerCount: 2
Fore
SplineSet
55 500 m 5
 105 500 l 5
 105 0 l 5
 55 0 l 5
 55 500 l 5
EndSplineSet
Substitution2: "'ss03' Style Set 3 in Latin lookup 2-1" dotlessi.ss03
EndChar

StartChar: uni0237
Encoding: 567 567 112
GlifName: uni0237
Width: 160
Flags: HW
AnchorPoint: "top1" 80 560 basechar 0
LayerCount: 2
Fore
SplineSet
-36 -106 m 1
 -5 -106 l 2
 29 -106 55 -92 55 -30 c 2
 55 500 l 1
 105 500 l 1
 105 -36 l 2
 105 -126 48 -154 -4 -154 c 2
 -36 -154 l 1
 -36 -106 l 1
EndSplineSet
EndChar

StartChar: gravecomb
Encoding: 768 768 113
GlifName: gravecomb
Width: 300
Flags: HW
AnchorPoint: "top1" 156 500 mark 0
LayerCount: 2
Fore
SplineSet
29 650 m 1
 92 650 l 1
 204 500 l 1
 161 500 l 1
 29 650 l 1
EndSplineSet
EndChar

StartChar: acutecomb
Encoding: 769 769 116
GlifName: acutecomb
Width: 300
Flags: HW
AnchorPoint: "top1" 156 500 mark 0
LayerCount: 2
Fore
SplineSet
281 650 m 5
 149 500 l 5
 106 500 l 5
 218 650 l 5
 281 650 l 5
EndSplineSet
EndChar

StartChar: uni0302
Encoding: 770 770 117
GlifName: uni0302
Width: 300
Flags: HW
AnchorPoint: "top1" 156 500 mark 0
LayerCount: 2
Fore
SplineSet
124 660 m 1
 177 660 l 1
 339 500 l 1
 276 500 l 1
 151 628 l 1
 25 500 l 1
 -38 500 l 1
 124 660 l 1
EndSplineSet
EndChar

StartChar: tildecomb
Encoding: 771 771 118
GlifName: tildecomb
Width: 300
Flags: HW
AnchorPoint: "top1" 156 500 mark 0
LayerCount: 2
Fore
SplineSet
78 640 m 0
 118.263157895 640 141.526315789 611 163 586 c 0
 181.974559428 562.99464277 198.225352113 540 224 540 c 0
 254 540 274 577 274 634 c 1
 317 634 l 1
 317 550.248275862 280.363636364 496 224 496 c 0
 182.791666667 496 159.029154156 520.463808149 138 544 c 0
 116.918182254 568.546550537 100.972222222 596 76 596 c 0
 45 596 25 558 25 500 c 1
 -20 500 l 1
 -20 586.666666667 17.4705882353 640 78 640 c 0
EndSplineSet
EndChar

StartChar: uni0304
Encoding: 772 772 119
GlifName: uni0304
Width: 300
Flags: HW
AnchorPoint: "top1" 156 500 mark 0
LayerCount: 2
Fore
SplineSet
0 566 m 5
 300 566 l 5
 300 520 l 5
 0 520 l 5
 0 566 l 5
EndSplineSet
EndChar

StartChar: uni0306
Encoding: 774 774 120
GlifName: uni0306
Width: 300
Flags: HW
AnchorPoint: "top1" 156 500 mark 0
LayerCount: 2
Fore
SplineSet
309 640 m 1
 301.86775049 556 244.189784389 500 152 500 c 0
 58.7992711812 500 1.12511387792 556 -6 640 c 1
 45 640 l 1
 51.8203974503 577.933333334 86.508136483 542 152 542 c 0
 217.48962149 542 251.172771673 577.933333334 258 640 c 1
 309 640 l 1
EndSplineSet
EndChar

StartChar: uni0308
Encoding: 776 776 121
GlifName: uni0308
Width: 300
Flags: HW
AnchorPoint: "top1" 156 500 mark 0
LayerCount: 2
Fore
SplineSet
217 570 m 1
 281 570 l 1
 281 500 l 1
 217 500 l 1
 217 570 l 1
18 570 m 5
 82 570 l 5
 82 500 l 5
 18 500 l 5
 18 570 l 5
EndSplineSet
Substitution2: "'ss03' Style Set 3 in Latin lookup 2-1" uni0308.ss03
EndChar

StartChar: uni0307
Encoding: 775 775 122
GlifName: uni0307
Width: 300
Flags: HW
AnchorPoint: "top1" 156 500 mark 0
LayerCount: 2
Fore
SplineSet
123 570 m 5
 187 570 l 5
 187 500 l 5
 123 500 l 5
 123 570 l 5
EndSplineSet
Substitution2: "'ss03' Style Set 3 in Latin lookup 2-1" uni0307.ss03
EndChar

StartChar: uni030A
Encoding: 778 778 123
GlifName: uni030A_
Width: 300
Flags: HW
AnchorPoint: "top1" 156 500 mark 0
LayerCount: 2
Fore
SplineSet
72 623 m 0
 72 567.022451233 101.111319303 535 152 535 c 0
 202.123873884 535 231 567.16581137 231 623 c 0
 231 678.977548767 201.888680697 711 151 711 c 0
 100.876126116 711 72 678.83418863 72 623 c 0
279 623 m 0
 279 545.144777901 228.058563127 493 152 493 c 0
 75.1797010014 493 24 544.97938383 24 623 c 0
 24 700.855222099 74.9414368726 753 151 753 c 0
 227.820298999 753 279 701.02061617 279 623 c 0
EndSplineSet
EndChar

StartChar: uni030C
Encoding: 780 780 124
GlifName: uni030C_
Width: 300
Flags: HW
AnchorPoint: "top1" 156 500 mark 0
LayerCount: 2
Fore
SplineSet
177 500 m 1
 124 500 l 1
 -38 660 l 1
 25 660 l 1
 150 532 l 1
 276 660 l 1
 339 660 l 1
 177 500 l 1
EndSplineSet
EndChar

StartChar: uni0327
Encoding: 807 807 252
GlifName: uni0327
Width: 300
Flags: HW
AnchorPoint: "bottom1" 160 0 mark 0
LayerCount: 2
Fore
SplineSet
139 10 m 1
 184 10 l 1
 175 -55 l 1
 190 -55 l 2
 250.918100786 -55 292 -95.6791354963 292 -156 c 0
 292 -223.034432281 242.394299088 -266 165 -266 c 2
 76 -266 l 1
 76 -216 l 1
 157 -216 l 2
 210.247847272 -216 239 -194.260567449 239 -154 c 0
 239 -123.191736382 218.209444135 -105 183 -105 c 2
 149 -105 l 1
 125 -75 l 1
 139 10 l 1
EndSplineSet
EndChar

StartChar: uni0328
Encoding: 808 808 253
GlifName: uni0328
Width: 300
Flags: HW
AnchorPoint: "bottom2" 196 0 mark 0
LayerCount: 2
Fore
SplineSet
196 0 m 1
 112.42384106 -62.7804878049 95 -100.829268293 95 -156 c 0
 95 -201.455479378 123.752152728 -226 177 -226 c 2
 238 -226 l 1
 238 -276 l 1
 169 -276 l 2
 91.6057009124 -276 42 -229.909663719 42 -158 c 0
 42 -76.2928840686 93.3121019108 -30.4578313253 148 0 c 1
 196 0 l 1
EndSplineSet
EndChar

StartChar: longs
Encoding: 383 383 268
GlifName: longs
Width: 251
Flags: HW
LayerCount: 2
Fore
SplineSet
216 652 m 5
 175 652 l 6
 135 652 105 638 105 576 c 6
 105 0 l 5
 55 0 l 5
 55 582 l 6
 55 672 117 700 174 700 c 6
 216 700 l 5
 216 652 l 5
EndSplineSet
EndChar

StartChar: thorn
Encoding: 254 254 269
GlifName: thorn
Width: 552
Flags: HW
LayerCount: 2
Fore
SplineSet
55 700 m 1
 105 700 l 1
 105 -163 l 5
 55 -163 l 5
 55 700 l 1
72 252 m 0
 72 407 156 510 283 510 c 0
 417 510 507 407 507 252 c 0
 507 96 417 -8 283 -8 c 0
 156 -8 72 96 72 252 c 0
454 252 m 0
 454 384 390 460 280 460 c 0
 169 460 105 384 105 252 c 0
 105 119 169 42 280 42 c 0
 390 42 454 119 454 252 c 0
EndSplineSet
EndChar

StartChar: Thorn
Encoding: 222 222 270
GlifName: T_horn
Width: 554
Flags: HW
LayerCount: 2
Fore
SplineSet
55 650 m 1
 105 650 l 1
 105 538 l 1
 307 538 l 2
 431 538 514 457 514 334 c 0
 514 221 437 137 312 137 c 2
 105 137 l 1
 105 0 l 1
 55 0 l 1
 55 650 l 1
105 490 m 1
 105 185 l 1
 302 185 l 2
 402 185 461 240 461 334 c 0
 461 433 403 490 302 490 c 2
 105 490 l 1
EndSplineSet
EndChar

StartChar: uni0326
Encoding: 806 806 273
GlifName: uni0326
Width: 300
Flags: HW
AnchorPoint: "bottom1" 160 0 mark 0
LayerCount: 2
Fore
SplineSet
128 -38 m 1
 192 -38 l 1
 192 -123 l 2
 192 -197.128205128 155 -221 122 -221 c 2
 110 -221 l 1
 110 -187 l 1
 121 -187 l 2
 147.156862745 -187 167 -174.166666667 167 -117 c 2
 167 -108 l 1
 128 -108 l 1
 128 -38 l 1
EndSplineSet
Substitution2: "'ss03' Style Set 3 in Latin lookup 2-1" uni0326.ss03
EndChar

StartChar: uni0312
Encoding: 786 786 274
GlifName: uni0312
Width: 300
Flags: HW
AnchorPoint: "top1" 156 500 mark 0
LayerCount: 2
Fore
SplineSet
188 500 m 1
 124 500 l 1
 124 585 l 2
 124 659.128205128 161 683 194 683 c 2
 206 683 l 1
 206 649 l 1
 195 649 l 2
 168.843137255 649 149 636.166666667 149 579 c 2
 149 570 l 1
 188 570 l 1
 188 500 l 1
EndSplineSet
Substitution2: "'ss03' Style Set 3 in Latin lookup 2-1" uni0312.ss03
EndChar

StartChar: uni0313
Encoding: 787 787 275
GlifName: uni0313
Width: 300
Flags: HW
AnchorPoint: "top1" 156 500 mark 0
LayerCount: 2
Fore
SplineSet
142 683 m 5
 206 683 l 5
 206 598 l 6
 206 523.871794872 169 500 136 500 c 6
 124 500 l 5
 124 534 l 5
 135 534 l 6
 161.156862745 534 181 546.833333333 181 604 c 6
 181 613 l 5
 142 613 l 5
 142 683 l 5
EndSplineSet
Substitution2: "'ss03' Style Set 3 in Latin lookup 2-1" uni0313.ss03
EndChar

StartChar: kgreenlandic
Encoding: 312 312 284
GlifName: kgreenlandic
Width: 467
Flags: HW
LayerCount: 2
Fore
SplineSet
55 500 m 1
 105 500 l 1
 105 0 l 1
 55 0 l 1
 55 500 l 1
359 500 m 1
 424 500 l 1
 201 251 l 1
 432 0 l 1
 367 0 l 1
 166 215 l 1
 104 145 l 1
 75 180 l 1
 359 500 l 1
EndSplineSet
EndChar

StartChar: AE
Encoding: 198 198 285
GlifName: A_E_
Width: 950
Flags: HW
AnchorPoint: "top1" 468 700 basechar 0
LayerCount: 2
Fore
SplineSet
905 650 m 1
 905 602 l 1
 525 602 l 1
 525 357 l 1
 877 357 l 1
 877 309 l 1
 525 309 l 1
 525 48 l 1
 905 48 l 1
 905 0 l 1
 475 0 l 1
 475 188 l 1
 184.94 188 l 1
 90 0 l 1
 35 0 l 1
 362 650 l 1
 905 650 l 1
209.18 236 m 1
 475 236 l 1
 475 600 l 1
 393 600 l 1
 209.18 236 l 1
EndSplineSet
EndChar

StartChar: Eth
Encoding: 208 208 286
GlifName: E_th
Width: 699
Flags: HW
LayerCount: 2
Fore
SplineSet
30 340 m 1
 402 340 l 5
 402 292 l 5
 30 292 l 1
 30 340 l 1
195 602 m 1
 195 48 l 1
 387 48 l 2
 522 48 601 145 601 313 c 0
 601 496 515 602 367 602 c 2
 195 602 l 1
377 650 m 2
 543 650 654 515 654 313 c 0
 654 125 551 -1.8846035843e-14 397 0 c 2
 145 0 l 1
 145 650 l 1
 377 650 l 2
EndSplineSet
EndChar

StartChar: Oslash
Encoding: 216 216 287
GlifName: O_slash
Width: 665
Flags: HW
LayerCount: 2
Fore
SplineSet
584 680 m 5
 620 650 l 5
 81 -30 l 5
 45 0 l 5
 584 680 l 5
45 317 m 0
 45 523 160 660 333 660 c 0
 505 660 620 523 620 317 c 0
 620 122 505 -8 333 -8 c 0
 160 -8 45 122 45 317 c 0
567 317 m 0
 567 502 481 610 333 610 c 0
 184 610 98 502 98 317 c 0
 98 143 184 42 333 42 c 0
 481 42 567 143 567 317 c 0
EndSplineSet
EndChar

StartChar: oslash
Encoding: 248 248 288
GlifName: oslash
Width: 545
Flags: HW
LayerCount: 2
Fore
SplineSet
460 530 m 5
 496 500 l 5
 81 -30 l 5
 45 0 l 5
 460 530 l 5
45 252 m 0
 45 407 136 510 273 510 c 0
 409 510 500 407 500 252 c 0
 500 96 409 -8 273 -8 c 0
 136 -8 45 96 45 252 c 0
447 252 m 0
 447 384 383 460 273 460 c 0
 162 460 98 384 98 252 c 0
 98 119 162 42 273 42 c 0
 383 42 447 119 447 252 c 0
EndSplineSet
EndChar

StartChar: ae
Encoding: 230 230 289
GlifName: ae
Width: 893
Flags: HW
AnchorPoint: "top1" 438 560 basechar 0
LayerCount: 2
Fore
SplineSet
395 252 m 0
 395 411 483 510 623 510 c 0
 754 510 848 408 848 266 c 2
 848 236 l 1
 439 236 l 1
 439 284 l 1
 794 284 l 1
 785 391 718 460 623 460 c 0
 508 460 448 388 448 252 c 0
 448 115 511 42 629 42 c 0
 720 42 775 87 789 155 c 1
 842 155 l 1
 820 51 750 -8 629 -8 c 0
 485 -8 395 92 395 252 c 0
445 138 m 1
 395 130 l 1
 395 336 l 2
 395 406 333 460 253 460 c 0
 161 460 112 421 103 342 c 1
 49 342 l 1
 56 444 135 510 252 510 c 0
 362 510 445 434 445 335 c 2
 445 138 l 1
436 220 m 1
 436 92 335.327272727 -10 210 -10 c 0
 113 -10 45 50 45 136 c 0
 45 213 98.0047337278 262.931360947 186 269 c 2
 331 279 l 2
 376.98816568 282.171597633 395 298 395 334 c 1
 396 234 l 1
 201 221 l 2
 131.9748975 216.374606534 97 188 97 136 c 0
 97 77 145 40 220 40 c 0
 321 40 395 116 395 220 c 1
 436 220 l 1
EndSplineSet
EndChar

StartChar: multiply
Encoding: 215 215 290
GlifName: multiply
Width: 546
Flags: HW
LayerCount: 2
Fore
SplineSet
273 310 m 1
 444 481 l 1
 478 447 l 1
 307 276 l 1
 478 105 l 1
 444 71 l 1
 273 242 l 1
 102 71 l 1
 68 105 l 1
 239 276 l 1
 68 447 l 1
 102 481 l 1
 273 310 l 1
EndSplineSet
Substitution2: "'tnum' Tabular Numbers in Latin lookup 11-1" multiply.tabl
EndChar

StartChar: divide
Encoding: 247 247 291
GlifName: divide
Width: 462
Flags: HW
LayerCount: 2
Fore
SplineSet
198 507 m 5
 262 507 l 5
 262 437 l 5
 198 437 l 5
 198 507 l 5
198 97 m 5
 262 97 l 5
 262 27 l 5
 198 27 l 5
 198 97 l 5
35 300 m 1
 427 300 l 1
 427 252 l 1
 35 252 l 1
 35 300 l 1
EndSplineSet
Substitution2: "'tnum' Tabular Numbers in Latin lookup 11-1" divide.tabl
Substitution2: "'ss03' Style Set 3 in Latin lookup 2-1" divide.ss03
EndChar

StartChar: Dcroat
Encoding: 272 272 292
GlifName: D_croat
Width: 699
Flags: HW
LayerCount: 2
Fore
SplineSet
30 340 m 1
 402 340 l 5
 402 292 l 5
 30 292 l 1
 30 340 l 1
195 602 m 1
 195 48 l 1
 387 48 l 2
 522 48 601 145 601 313 c 0
 601 496 515 602 367 602 c 2
 195 602 l 1
377 650 m 2
 543 650 654 515 654 313 c 0
 654 125 551 -1.8846035843e-14 397 0 c 2
 145 0 l 1
 145 650 l 1
 377 650 l 2
EndSplineSet
EndChar

StartChar: dcroat
Encoding: 273 273 293
GlifName: dcroat
Width: 602
Flags: HW
LayerCount: 2
Fore
SplineSet
250 630 m 1
 250 584 l 1
 582 584 l 1
 582 630 l 1
 250 630 l 1
497 700 m 1
 447 700 l 1
 447 0 l 1
 497 0 l 1
 497 700 l 1
480 252 m 0
 480 407 396 510 269 510 c 0
 135 510 45 407 45 252 c 0
 45 96 135 -8 269 -8 c 0
 396 -8 480 96 480 252 c 0
98 252 m 0
 98 384 162 460 272 460 c 0
 383 460 447 384 447 252 c 0
 447 119 383 42 272 42 c 0
 162 42 98 119 98 252 c 0
EndSplineSet
EndChar

StartChar: eth
Encoding: 240 240 296
GlifName: eth
Width: 557
Flags: HW
LayerCount: 2
Fore
SplineSet
437 250.356159222 m 0
 437 368.145973361 365.389523807 451 263.584155699 451 c 0
 163.177637673 451 98 370.231522906 98 245.807228916 c 0
 98 123.108424014 161.793759654 43 259.50405874 43 c 0
 362.05306349 43 437 130.55529163 437 250.356159222 c 0
360.333007812 700 m 1
 464.1661675 597.098711091 512 483.082745234 512 338.488958567 c 0
 512 131.337268156 411.83593057 -8 262.922746212 -8 c 0
 134.466638243 -8 45 96.1719524172 45 245.741935484 c 0
 45 394.496536591 133.74771407 502 256.549625627 502 c 0
 347.008199015 502 424.557838628 443.968449905 457 352 c 1
 458.550510257 369.055612829 459 376.389037451 459 384.629997632 c 0
 459 474.868571891 386.610355558 612.037528138 292.56640625 700 c 1
 360.333007812 700 l 1
218 592 m 5
 526 656 l 5
 526 608 l 1
 218 544 l 1
 218 592 l 5
EndSplineSet
EndChar

StartChar: uni0315
Encoding: 789 789 298
GlifName: uni0315
Width: 300
Flags: HW
AnchorPoint: "top2" 124 500 mark 0
LayerCount: 2
Fore
SplineSet
152 683 m 1
 204 683 l 5
 171 500 l 1
 124 500 l 1
 152 683 l 1
EndSplineSet
EndChar

StartChar: periodcentered
Encoding: 183 183 302
GlifName: periodcentered
Width: 160
Flags: HW
LayerCount: 2
Fore
SplineSet
48 354 m 5
 112 354 l 5
 112 284 l 5
 48 284 l 5
 48 354 l 5
EndSplineSet
Substitution2: "'ss03' Style Set 3 in Latin lookup 2-1" periodcentered.ss03
EndChar

StartChar: Hbar
Encoding: 294 294 305
GlifName: H_bar
Width: 650
Flags: HW
LayerCount: 2
Fore
SplineSet
20 528 m 1
 630 528 l 1
 630 480 l 1
 20 480 l 1
 20 528 l 1
75 650 m 1
 125 650 l 1
 125 360 l 1
 525 360 l 1
 525 650 l 1
 575 650 l 1
 575 0 l 1
 525 0 l 1
 525 312 l 1
 125 312 l 1
 125 0 l 1
 75 0 l 1
 75 650 l 1
EndSplineSet
EndChar

StartChar: hbar
Encoding: 295 295 306
GlifName: hbar
Width: 540
Flags: HW
LayerCount: 2
Fore
SplineSet
0 630 m 5
 332 630 l 5
 332 584 l 5
 0 584 l 5
 0 630 l 5
435 310 m 2
 435 415 378 460 289 460 c 0
 202 460 135 400 135 316 c 1
 106 322 l 1
 107 439 207 510 299 510 c 0
 407 510 485 443 485 320 c 2
 485 0 l 1
 435 0 l 1
 435 310 l 2
85 700 m 1
 135 700 l 1
 135 0 l 1
 85 0 l 1
 85 700 l 1
EndSplineSet
EndChar

StartChar: uni030B
Encoding: 779 779 307
GlifName: uni030B_
Width: 300
Flags: HW
AnchorPoint: "top1" 156 500 mark 0
LayerCount: 2
Fore
SplineSet
361 650 m 5
 229 500 l 5
 186 500 l 5
 298 650 l 5
 361 650 l 5
221 650 m 5
 89 500 l 5
 46 500 l 5
 158 650 l 5
 221 650 l 5
EndSplineSet
EndChar

StartChar: uni02BC
Encoding: 700 700 311
GlifName: uni02B_C_
Width: 125
Flags: HW
LayerCount: 2
Fore
SplineSet
61 683 m 5
 125 683 l 5
 125 598 l 6
 125 523.871794872 88 500 55 500 c 6
 43 500 l 5
 43 534 l 5
 54 534 l 6
 80.1568627451 534 100 546.833333333 100 604 c 6
 100 613 l 5
 61 613 l 5
 61 683 l 5
EndSplineSet
EndChar

StartChar: Lslash
Encoding: 321 321 312
GlifName: L_slash
Width: 500
Flags: HW
LayerCount: 2
Fore
SplineSet
0 331 m 5
 308 395 l 5
 308 347 l 5
 0 283 l 5
 0 331 l 5
465 0 m 1
 85 0 l 1
 85 650 l 1
 135 650 l 1
 135 48 l 1
 465 48 l 1
 465 0 l 1
EndSplineSet
EndChar

StartChar: lslash
Encoding: 322 322 313
GlifName: lslash
Width: 228
Flags: HW
LayerCount: 2
Fore
SplineSet
0 351 m 5
 228 395 l 5
 228 347 l 5
 0 303 l 5
 0 351 l 5
93 700 m 1
 143 700 l 1
 143 0 l 1
 93 0 l 1
 93 700 l 1
EndSplineSet
Substitution2: "'ss02' Style Set 2 in Latin lookup 1-1" lslash.ss02
EndChar

StartChar: Eng
Encoding: 330 330 314
GlifName: E_ng
Width: 610
Flags: HW
LayerCount: 2
Fore
SplineSet
505 650 m 1
 555 650 l 1
 555 -36 l 2
 555 -122.567144567 506.921461226 -174 426 -174 c 2
 374 -174 l 1
 374 -126 l 1
 425 -126 l 2
 480.773525941 -126 505 -96.9282311294 505 -30 c 2
 505 0 l 1
 105 591 l 1
 105 0 l 1
 55 0 l 1
 55 650 l 1
 125 650 l 1
 505 91 l 1
 505 650 l 1
EndSplineSet
EndChar

StartChar: eng
Encoding: 331 331 315
GlifName: eng
Width: 510
Flags: HW
LayerCount: 2
Fore
SplineSet
55 500 m 5
 105 500 l 5
 105 0 l 5
 55 0 l 5
 55 500 l 5
405 310 m 6
 405 408.333144647 354.710927456 460 259 460 c 4
 170.578763393 460 105 398.679597866 105 316 c 5
 76 322 l 5
 76.888976234 426.010219378 163.112527617 510 269 510 c 4
 383.279956052 510 455 436.737589515 455 320 c 6
 455 -36 l 6
 455 -122.567144567 406.921461226 -174 326 -174 c 6
 274 -174 l 5
 274 -126 l 5
 325 -126 l 6
 380.773525941 -126 405 -96.9282311294 405 -30 c 6
 405 310 l 6
EndSplineSet
EndChar

StartChar: OE
Encoding: 338 338 316
GlifName: O_E_
Width: 1042
Flags: HW
LayerCount: 2
Fore
SplineSet
997 650 m 1
 997 602 l 1
 617 602 l 1
 617 357 l 1
 969 357 l 1
 969 309 l 1
 617 309 l 1
 617 48 l 1
 997 48 l 1
 997 0 l 1
 567 0 l 1
 567 650 l 1
 997 650 l 1
45 317 m 0
 45 523 156.006944444 660 323 660 c 0
 489.006968641 660 600 523 600 317 c 0
 600 122 489.006968641 -8 323 -8 c 0
 156.006944444 -8 45 122 45 317 c 0
567 317 m 0
 567 502 481 610 333 610 c 0
 184 610 98 502 98 317 c 0
 98 143 184 42 333 42 c 0
 481 42 567 143 567 317 c 0
EndSplineSet
EndChar

StartChar: oe
Encoding: 339 339 317
GlifName: oe
Width: 947
Flags: HW
LayerCount: 2
Fore
SplineSet
447 252 m 4
 447 411 535 510 675 510 c 4
 806 510 900 408 900 266 c 6
 900 236 l 5
 491 236 l 5
 491 284 l 5
 846 284 l 5
 837 391 770 460 675 460 c 4
 560 460 500 388 500 252 c 4
 500 115 563 42 681 42 c 4
 772 42 827 87 841 155 c 5
 894 155 l 5
 872 51 802 -8 681 -8 c 4
 537 -8 447 92 447 252 c 4
45 252 m 4
 45 407 136 510 273 510 c 4
 409 510 500 407 500 252 c 4
 500 96 409 -8 273 -8 c 4
 136 -8 45 96 45 252 c 4
447 252 m 4
 447 384 383 460 273 460 c 4
 162 460 98 384 98 252 c 4
 98 119 162 42 273 42 c 4
 383 42 447 119 447 252 c 4
EndSplineSet
EndChar

StartChar: Tbar
Encoding: 358 358 320
GlifName: T_bar
Width: 520
Flags: HW
LayerCount: 2
Fore
SplineSet
75 340 m 5
 447 340 l 5
 447 292 l 5
 75 292 l 5
 75 340 l 5
485 650 m 1
 485 602 l 1
 285 602 l 1
 285 0 l 1
 235 0 l 1
 235 602 l 1
 35 602 l 1
 35 650 l 1
 485 650 l 1
EndSplineSet
EndChar

StartChar: tbar
Encoding: 359 359 321
GlifName: tbar
Width: 312
Flags: HW
LayerCount: 2
Fore
SplineSet
35 300 m 5
 277 300 l 5
 277 252 l 5
 35 252 l 5
 35 300 l 5
35 500 m 1
 277 500 l 1
 277 452 l 1
 35 452 l 1
 35 500 l 1
277 48 m 1
 277 0 l 1
 235 0 l 2
 185 0 131 28 131 118 c 2
 131 630 l 1
 181 630 l 1
 181 124 l 2
 181 62 205 48 236 48 c 2
 277 48 l 1
EndSplineSet
Substitution2: "'ss08' Style Set 8 in Latin lookup 7-1" tbar.ss08
EndChar

StartChar: germandbls
Encoding: 223 223 322
GlifName: germandbls
Width: 545
Flags: HW
LayerCount: 2
Fore
SplineSet
283 658 m 0
 172.982975308 658 105 588.489317382 105 476 c 2
 105 0 l 1
 55 0 l 1
 55 482 l 2
 55 613.687521246 145.102854672 708 283 708 c 0
 398.1026514 708 490 624.981622279 490 521 c 0
 490 411.416352615 418.990740914 338 313 338 c 5
 313 378 l 5
 391.631549186 378 437 430.320068277 437 521 c 0
 437 599.767959416 371.542085767 658 283 658 c 0
363 378 m 5
 363 328 l 5
 244 328 l 5
 244 378 l 5
 363 378 l 5
313 368 m 5
 424.988024226 368 500 298.60389407 500 195 c 0
 500 77.9832337096 417.217798062 0 293 0 c 2
 204 0 l 1
 204 50 l 1
 293 50 l 2
 391.040140764 50 447 102.689477852 447 195 c 0
 447 279.596368153 398.232431072 328 313 328 c 5
 313 368 l 5
EndSplineSet
EndChar

StartChar: uni1E9E
Encoding: 7838 7838 323
GlifName: uni1E_9E_
Width: 605
Flags: HW
LayerCount: 2
Fore
SplineSet
516 580 m 1
 456.844312881 599.330952442 393.415813969 613 317 613 c 0
 168.740970309 613 105 550.762354463 105 406 c 2
 105 0 l 1
 55 0 l 1
 55 412 l 2
 55 576.164703178 143.242336855 661 314 661 c 0
 391.578643763 661 456.249783362 646.088311755 516 625 c 1
 516 580 l 1
357.272460938 348.759765625 m 1
 500.61452832 344.301114358 560 278.131635994 560 181 c 0
 560 72.3844374432 472.418829834 -1.60936334026e-14 341 0 c 2
 271 0 l 1
 271 50 l 1
 334 50 l 2
 444.136002287 50 507 97.6022179215 507 181 c 0
 507 257.963613132 448.042192788 302 345 302 c 2
 304 302 l 1
 304 352 l 1
 475 604 l 1
 516 580 l 1
 357.272460938 348.759765625 l 1
EndSplineSet
EndChar

StartChar: asciitilde
Encoding: 126 126 324
GlifName: asciitilde
Width: 427
Flags: HW
LayerCount: 2
Fore
SplineSet
133 500 m 4
 178 500 204 471 228 446 c 4
 250.084960938 422.995117188 269 400 299 400 c 4
 329 400 349 437 349 494 c 5
 392 494 l 5
 392 410.248046875 355.36328125 356 299 356 c 4
 253 356 226.474609375 380.463867188 203 404 c 4
 178.517578125 428.546875 160 456 131 456 c 4
 100 456 80 418 80 360 c 5
 35 360 l 5
 35 446.666992188 72.470703125 500 133 500 c 4
EndSplineSet
Substitution2: "'cv05' Character Variants 05 in Latin lookup 20-1" asciitilde.cv05
EndChar

StartChar: exclamdown
Encoding: 161 161 325
GlifName: exclamdown
Width: 160
Flags: HW
LayerCount: 2
Fore
SplineSet
48 500 m 5
 112 500 l 5
 112 430 l 5
 48 430 l 5
 48 500 l 5
59 357 m 5
 101 357 l 5
 105 -150 l 5
 55 -150 l 5
 59 357 l 5
EndSplineSet
Substitution2: "'ss03' Style Set 3 in Latin lookup 2-1" exclamdown.ss03
EndChar

StartChar: questiondown
Encoding: 191 191 326
GlifName: questiondown
Width: 517
Flags: HW
LayerCount: 2
Fore
SplineSet
282 357 m 5
 282 259 228 214 178 171 c 4
 136 135 98 100 98 36 c 4
 98 -56 158 -108 262 -108 c 4
 354 -108 415 -50 419 41 c 5
 472 41 l 5
 464 -77 378 -158 262 -158 c 4
 132 -158 45 -81 45 36 c 4
 45 122 101 165 152 211 c 4
 194 249 232 289 232 357 c 5
 282 357 l 5
226 500 m 5
 290 500 l 5
 290 430 l 5
 226 430 l 5
 226 500 l 5
EndSplineSet
Substitution2: "'ss03' Style Set 3 in Latin lookup 2-1" questiondown.ss03
EndChar

StartChar: endash
Encoding: 8211 8211 327
GlifName: endash
Width: 654
Flags: HW
LayerCount: 2
Fore
SplineSet
35 300 m 1
 619 300 l 5
 619 252 l 5
 35 252 l 1
 35 300 l 1
EndSplineSet
EndChar

StartChar: emdash
Encoding: 8212 8212 328
GlifName: emdash
Width: 982
Flags: HW
LayerCount: 2
Fore
SplineSet
35 300 m 1
 947 300 l 5
 947 252 l 5
 35 252 l 1
 35 300 l 1
EndSplineSet
EndChar

StartChar: quoteleft
Encoding: 8216 8216 329
GlifName: quoteleft
Width: 160
Flags: HW
LayerCount: 2
Fore
SplineSet
105 500 m 5
 41 500 l 5
 41 570 l 5
 71 700 l 5
 112 700 l 5
 66 570 l 5
 105 570 l 5
 105 500 l 5
EndSplineSet
Substitution2: "'ss03' Style Set 3 in Latin lookup 2-1" quoteleft.ss03
EndChar

StartChar: quoteright
Encoding: 8217 8217 330
GlifName: quoteright
Width: 160
Flags: HW
LayerCount: 2
Fore
SplineSet
48 700 m 5
 112 700 l 5
 112 630 l 5
 82 500 l 5
 41 500 l 5
 87 630 l 5
 48 630 l 5
 48 700 l 5
EndSplineSet
Substitution2: "'ss03' Style Set 3 in Latin lookup 2-1" quoteright.ss03
EndChar

StartChar: quotedblleft
Encoding: 8220 8220 331
GlifName: quotedblleft
Width: 270
Flags: HW
LayerCount: 2
Fore
SplineSet
215 500 m 5
 151 500 l 5
 151 570 l 5
 181 700 l 5
 222 700 l 5
 176 570 l 5
 215 570 l 5
 215 500 l 5
105 500 m 1
 41 500 l 1
 41 570 l 1
 71 700 l 1
 112 700 l 1
 66 570 l 1
 105 570 l 1
 105 500 l 1
EndSplineSet
Substitution2: "'ss03' Style Set 3 in Latin lookup 2-1" quotedblleft.ss03
EndChar

StartChar: quotesinglbase
Encoding: 8218 8218 332
GlifName: quotesinglbase
Width: 160
Flags: HW
LayerCount: 2
Fore
SplineSet
48 70 m 5
 112 70 l 5
 112 0 l 5
 82 -130 l 5
 41 -130 l 5
 87 0 l 5
 48 0 l 5
 48 70 l 5
EndSplineSet
Substitution2: "'ss03' Style Set 3 in Latin lookup 2-1" quotesinglbase.ss03
EndChar

StartChar: quotereversed
Encoding: 8219 8219 333
GlifName: quotereversed
Width: 160
Flags: HW
LayerCount: 2
Fore
SplineSet
105 700 m 5
 105 630 l 5
 66 630 l 5
 112 500 l 5
 71 500 l 5
 41 630 l 5
 41 700 l 5
 105 700 l 5
EndSplineSet
Substitution2: "'ss03' Style Set 3 in Latin lookup 2-1" quotereversed.ss03
EndChar

StartChar: quotedblright
Encoding: 8221 8221 334
GlifName: quotedblright
Width: 270
Flags: HW
LayerCount: 2
Fore
SplineSet
48 700 m 5
 112 700 l 5
 112 630 l 5
 82 500 l 5
 41 500 l 5
 87 630 l 5
 48 630 l 5
 48 700 l 5
158 700 m 1
 222 700 l 1
 222 630 l 1
 192 500 l 1
 151 500 l 1
 197 630 l 1
 158 630 l 1
 158 700 l 1
EndSplineSet
Substitution2: "'ss03' Style Set 3 in Latin lookup 2-1" quotedblright.ss03
EndChar

StartChar: quotedblbase
Encoding: 8222 8222 335
GlifName: quotedblbase
Width: 270
Flags: HW
LayerCount: 2
Fore
SplineSet
48 70 m 5
 112 70 l 5
 112 0 l 5
 82 -130 l 5
 41 -130 l 5
 87 0 l 5
 48 0 l 5
 48 70 l 5
158 70 m 5
 222 70 l 5
 222 0 l 5
 192 -130 l 5
 151 -130 l 5
 197 0 l 5
 158 0 l 5
 158 70 l 5
EndSplineSet
Substitution2: "'ss03' Style Set 3 in Latin lookup 2-1" quotedblbase.ss03
EndChar

StartChar: uni201F
Encoding: 8223 8223 336
GlifName: uni201F_
Width: 270
Flags: HW
LayerCount: 2
Fore
SplineSet
215 700 m 5
 215 630 l 5
 176 630 l 5
 222 500 l 5
 181 500 l 5
 151 630 l 5
 151 700 l 5
 215 700 l 5
105 700 m 1
 105 630 l 1
 66 630 l 1
 112 500 l 1
 71 500 l 1
 41 630 l 1
 41 700 l 1
 105 700 l 1
EndSplineSet
Substitution2: "'ss03' Style Set 3 in Latin lookup 2-1" uni201F.ss03
EndChar

StartChar: dagger
Encoding: 8224 8224 337
GlifName: dagger
Width: 312
Flags: HW
LayerCount: 2
Fore
SplineSet
131 452 m 1
 35 452 l 1
 35 500 l 1
 131 500 l 1
 131 630 l 1
 181 630 l 1
 181 500 l 1
 277 500 l 1
 277 452 l 1
 181 452 l 1
 181 0 l 1
 131 0 l 1
 131 452 l 1
EndSplineSet
EndChar

StartChar: daggerdbl
Encoding: 8225 8225 338
GlifName: daggerdbl
Width: 312
Flags: HW
LayerCount: 2
Fore
SplineSet
181 500 m 1
 277 500 l 1
 277 452 l 1
 181 452 l 1
 181 178 l 1
 277 178 l 1
 277 130 l 1
 181 130 l 1
 181 0 l 1
 131 0 l 1
 131 130 l 1
 35 130 l 1
 35 178 l 1
 131 178 l 1
 131 452 l 1
 35 452 l 1
 35 500 l 1
 131 500 l 1
 131 630 l 1
 181 630 l 1
 181 500 l 1
EndSplineSet
EndChar

StartChar: bullet
Encoding: 8226 8226 339
GlifName: bullet
Width: 200
Flags: HW
LayerCount: 2
Fore
SplineSet
38 374 m 0
 38 407.952380952 66.0476190476 436 100 436 c 0
 133.952380952 436 162 407.952380952 162 374 c 0
 162 340.047619048 133.952380952 312 100 312 c 4
 66.0476190476 312 38 340.047619048 38 374 c 0
EndSplineSet
EndChar

StartChar: ellipsis
Encoding: 8230 8230 340
GlifName: ellipsis
Width: 480
Flags: HW
LayerCount: 2
Fore
SplineSet
368 70 m 1
 432 70 l 1
 432 0 l 1
 368 0 l 1
 368 70 l 1
208 70 m 1
 272 70 l 1
 272 0 l 1
 208 0 l 1
 208 70 l 1
48 70 m 1
 112 70 l 1
 112 0 l 1
 48 0 l 1
 48 70 l 1
EndSplineSet
Substitution2: "'ss03' Style Set 3 in Latin lookup 2-1" ellipsis.ss03
EndChar

StartChar: perthousand
Encoding: 8240 8240 341
GlifName: perthousand
Width: 1207
Flags: HW
LayerCount: 2
Fore
SplineSet
857 192 m 4
 857 311 920 390 1015 390 c 4
 1109 390 1172 311 1172 192 c 4
 1172 72 1109 -8 1015 -8 c 4
 920 -8 857 72 857 192 c 4
1119 192 m 4
 1119 286 1081 340 1015 340 c 4
 949 340 910 286 910 192 c 4
 910 97 949 42 1015 42 c 4
 1081 42 1119 97 1119 192 c 4
484 192 m 0
 484 311 547 390 642 390 c 0
 736 390 799 311 799 192 c 0
 799 72 736 -8 642 -8 c 0
 547 -8 484 72 484 192 c 0
746 192 m 0
 746 286 708 340 642 340 c 0
 576 340 537 286 537 192 c 0
 537 97 576 42 642 42 c 0
 708 42 746 97 746 192 c 0
523 650 m 1
 579 650 l 1
 311 0 l 1
 255 0 l 1
 523 650 l 1
35 461 m 0
 35 580 98 659 193 659 c 0
 287 659 350 580 350 461 c 0
 350 341 287 261 193 261 c 0
 98 261 35 341 35 461 c 0
297 461 m 0
 297 555 259 609 193 609 c 0
 127 609 88 555 88 461 c 0
 88 366 127 311 193 311 c 0
 259 311 297 366 297 461 c 0
EndSplineSet
EndChar

StartChar: minute
Encoding: 8242 8242 342
GlifName: minute
Width: 225
Flags: HW
LayerCount: 2
Fore
SplineSet
200 650 m 5
 68 500 l 5
 25 500 l 5
 137 650 l 5
 200 650 l 5
EndSplineSet
EndChar

StartChar: second
Encoding: 8243 8243 343
GlifName: second
Width: 353
Flags: HW
LayerCount: 2
Fore
SplineSet
328 650 m 1
 196 500 l 1
 153 500 l 1
 265 650 l 1
 328 650 l 1
200 650 m 1
 68 500 l 1
 25 500 l 1
 137 650 l 1
 200 650 l 1
EndSplineSet
EndChar

StartChar: uni2034
Encoding: 8244 8244 344
GlifName: uni2034
Width: 481
Flags: HW
LayerCount: 2
Fore
SplineSet
200 650 m 1
 68 500 l 1
 25 500 l 1
 137 650 l 1
 200 650 l 1
456 650 m 1
 324 500 l 1
 281 500 l 1
 393 650 l 1
 456 650 l 1
328 650 m 1
 196 500 l 1
 153 500 l 1
 265 650 l 1
 328 650 l 1
EndSplineSet
EndChar

StartChar: uni2035
Encoding: 8245 8245 345
GlifName: uni2035
Width: 225
Flags: HW
LayerCount: 2
Fore
SplineSet
25 650 m 5
 88 650 l 5
 200 500 l 5
 157 500 l 5
 25 650 l 5
EndSplineSet
EndChar

StartChar: uni2036
Encoding: 8246 8246 346
GlifName: uni2036
Width: 353
Flags: HW
LayerCount: 2
Fore
SplineSet
25 650 m 1
 88 650 l 1
 200 500 l 1
 157 500 l 1
 25 650 l 1
153 650 m 1
 216 650 l 1
 328 500 l 1
 285 500 l 1
 153 650 l 1
EndSplineSet
EndChar

StartChar: uni2037
Encoding: 8247 8247 347
GlifName: uni2037
Width: 481
Flags: HW
LayerCount: 2
Fore
SplineSet
281 650 m 1
 344 650 l 1
 456 500 l 1
 413 500 l 1
 281 650 l 1
25 650 m 1
 88 650 l 1
 200 500 l 1
 157 500 l 1
 25 650 l 1
153 650 m 1
 216 650 l 1
 328 500 l 1
 285 500 l 1
 153 650 l 1
EndSplineSet
EndChar

StartChar: uni031B
Encoding: 795 795 348
GlifName: uni031B_
Width: 300
Flags: HW
AnchorPoint: "top3" 76 548 mark 0
LayerCount: 2
Fore
SplineSet
76 548 m 1
 137 548 l 6
 176.666666667 548 207 562 207 624 c 2
 207 650 l 1
 257 650 l 1
 257 618 l 2
 257 528 200 500 148 500 c 2
 76 500 l 1
 76 548 l 1
EndSplineSet
EndChar

StartChar: Ohorn
Encoding: 416 416 349
GlifName: O_horn
Width: 665
Flags: HW
AnchorPoint: "top1" 334 700 basechar 0
AnchorPoint: "bottom1" 332 0 basechar 0
LayerCount: 2
Fore
SplineSet
45 317 m 0
 45 523 160 660 333 660 c 0
 505 660 620 523 620 317 c 0
 620 122 505 -8 333 -8 c 0
 160 -8 45 122 45 317 c 0
567 317 m 0
 567 502 481 610 333 610 c 0
 184 610 98 502 98 317 c 0
 98 143 184 42 333 42 c 0
 481 42 567 143 567 317 c 0
401 650 m 1
 532 650 l 2
 571.666992188 650 602 664 602 726 c 2
 602 752 l 1
 652 752 l 1
 652 720 l 2
 652 630 595 602 543 602 c 2
 401 602 l 1
 401 650 l 1
EndSplineSet
EndChar

StartChar: ohorn
Encoding: 417 417 350
GlifName: ohorn
Width: 545
Flags: HW
AnchorPoint: "top1" 272 560 basechar 0
AnchorPoint: "bottom1" 273 0 basechar 0
LayerCount: 2
Fore
SplineSet
45 252 m 0
 45 407 136 510 273 510 c 0
 409 510 500 407 500 252 c 0
 500 96 409 -8 273 -8 c 0
 136 -8 45 96 45 252 c 0
447 252 m 0
 447 384 383 460 273 460 c 0
 162 460 98 384 98 252 c 0
 98 119 162 42 273 42 c 0
 383 42 447 119 447 252 c 0
331 500 m 1
 422 500 l 6
 461.666992188 500 492 514 492 576 c 6
 492 602 l 5
 542 602 l 5
 542 570 l 6
 542 480 485 452 433 452 c 6
 331 452 l 1
 331 500 l 1
EndSplineSet
EndChar

StartChar: hookabovecomb
Encoding: 777 777 353
GlifName: hookabovecomb
Width: 300
Flags: HW
AnchorPoint: "top1" 156 500 mark 0
LayerCount: 2
Fore
SplineSet
126 500 m 1
 126 525.725159107 136.829530511 541.659362671 176.629205921 574.494094885 c 0
 200.652915998 594.313655699 208 605.172322569 208 620.858748165 c 0
 208 642.331840327 190.579925338 656 163.212461271 656 c 0
 134.402019352 656 114.182520238 640.532994247 107 613 c 1
 59 613 l 1
 71.8341206686 664.336482674 111.367782751 695 164.720431753 695 c 0
 218.622624015 695 254 664.465274996 254 617.941513073 c 0
 254 590.447606114 245.671460179 577.336865395 212.837123615 553.143143717 c 0
 187.099813894 534.178810238 179 521.457587868 179 500 c 1
 126 500 l 1
EndSplineSet
EndChar

StartChar: dotbelowcomb
Encoding: 803 803 354
GlifName: dotbelowcomb
Width: 300
Flags: HW
AnchorPoint: "bottom1" 150 0 mark 0
LayerCount: 2
Fore
SplineSet
119 -73 m 1
 183 -73 l 1
 183 -143 l 1
 119 -143 l 1
 119 -73 l 1
EndSplineSet
Substitution2: "'ss03' Style Set 3 in Latin lookup 2-1" dotbelowcomb.ss03
EndChar

StartChar: exclamdown.ss03
Encoding: 65553 -1 445
GlifName: exclamdown.ss03
Width: 160
Flags: HW
LayerCount: 2
Fore
SplineSet
122 468 m 0
 122 445 103 426 80 426 c 0
 57 426 38 445 38 468 c 0
 38 491 57 510 80 510 c 0
 103 510 122 491 122 468 c 0
59 359 m 1
 101 359 l 1
 105 -148 l 1
 55 -148 l 1
 59 359 l 1
EndSplineSet
EndChar

StartChar: periodcentered.ss03
Encoding: 65554 -1 446
GlifName: periodcentered.ss03
Width: 160
Flags: HW
LayerCount: 2
Fore
SplineSet
38 319 m 0
 38 342 57 361 80 361 c 0
 103 361 122 342 122 319 c 0
 122 296 103 277 80 277 c 0
 57 277 38 296 38 319 c 0
EndSplineSet
EndChar

StartChar: questiondown.ss03
Encoding: 65555 -1 447
GlifName: questiondown.ss03
Width: 517
Flags: HW
LayerCount: 2
Fore
SplineSet
300 469 m 0
 300 446 281 427 258 427 c 0
 235 427 216 446 216 469 c 0
 216 492 235 511 258 511 c 0
 281 511 300 492 300 469 c 0
282 360 m 1
 282 262 228 217 178 174 c 0
 136 138 98 103 98 39 c 0
 98 -53 158 -105 262 -105 c 0
 354 -105 415 -47 419 44 c 1
 472 44 l 1
 464 -74 378 -155 262 -155 c 0
 132 -155 45 -78 45 39 c 0
 45 125 101 168 152 214 c 0
 194 252 232 292 232 360 c 1
 282 360 l 1
EndSplineSet
EndChar

StartChar: divide.ss03
Encoding: 65556 -1 448
GlifName: divide.ss03
Width: 462
Flags: HW
LayerCount: 2
Fore
SplineSet
188 475 m 0
 188 498 207 517 230 517 c 0
 253 517 272 498 272 475 c 0
 272 452 253 433 230 433 c 0
 207 433 188 452 188 475 c 0
188 62 m 0
 188 85 207 104 230 104 c 0
 253 104 272 85 272 62 c 0
 272 39 253 20 230 20 c 0
 207 20 188 39 188 62 c 0
35 300 m 1
 427 300 l 1
 427 252 l 1
 35 252 l 1
 35 300 l 1
EndSplineSet
Substitution2: "'tnum' Tabular Numbers in Latin lookup 11-1" divide.ss03.tabl
EndChar

StartChar: uni0307.ss03
Encoding: 65557 -1 449
GlifName: uni0307.ss03
Width: 300
Flags: HW
AnchorPoint: "top1" 156 500 mark 0
LayerCount: 2
Fore
SplineSet
113 536 m 4
 113 559 132 578 155 578 c 4
 178 578 197 559 197 536 c 4
 197 513 178 494 155 494 c 4
 132 494 113 513 113 536 c 4
EndSplineSet
EndChar

StartChar: uni0308.ss03
Encoding: 65558 -1 450
GlifName: uni0308.ss03
Width: 300
Flags: HW
AnchorPoint: "top1" 156 500 mark 0
LayerCount: 2
Fore
SplineSet
9 536 m 0
 9 559 28 578 51 578 c 0
 74 578 93 559 93 536 c 0
 93 513 74 494 51 494 c 0
 28 494 9 513 9 536 c 0
206 536 m 0
 206 559 225 578 248 578 c 0
 271 578 290 559 290 536 c 0
 290 513 271 494 248 494 c 0
 225 494 206 513 206 536 c 0
EndSplineSet
EndChar

StartChar: uni0312.ss03
Encoding: 65559 -1 451
GlifName: uni0312.ss03
Width: 300
Flags: HW
AnchorPoint: "top1" 156 500 mark 0
LayerCount: 2
Fore
SplineSet
208 542 m 4
 208 519 189 500 166 500 c 4
 143 500 124 519 124 542 c 6
 124 593 l 6
 124 659.564102564 161 681 194 681 c 6
 206 681 l 5
 206 657 l 5
 195 657 l 6
 166 657 144 644.166666667 144 587 c 6
 144 578 l 5
 150 582 158 584 166 584 c 4
 189 584 208 565 208 542 c 4
EndSplineSet
EndChar

StartChar: uni0313.ss03
Encoding: 65560 -1 452
GlifName: uni0313.ss03
Width: 300
Flags: HW
AnchorPoint: "top1" 156 500 mark 0
LayerCount: 2
Fore
SplineSet
124 639 m 4
 124 662 143 681 166 681 c 4
 189 681 208 662 208 639 c 6
 208 588 l 6
 208 521.435897436 171 500 138 500 c 6
 126 500 l 5
 126 524 l 5
 137 524 l 6
 166 524 188 536.833333333 188 594 c 6
 188 603 l 5
 182 599 174 597 166 597 c 4
 143 597 124 616 124 639 c 4
EndSplineSet
EndChar

StartChar: dotbelowcomb.ss03
Encoding: 65561 -1 453
GlifName: dotbelowcomb.ss03
Width: 300
Flags: HW
AnchorPoint: "bottom1" 150 0 mark 0
LayerCount: 2
Fore
SplineSet
109 -108 m 0
 109 -85 128 -66 151 -66 c 0
 174 -66 193 -85 193 -108 c 0
 193 -131 174 -150 151 -150 c 0
 128 -150 109 -131 109 -108 c 0
EndSplineSet
EndChar

StartChar: uni0326.ss03
Encoding: 65562 -1 454
GlifName: uni0326.ss03
Width: 300
Flags: HW
AnchorPoint: "bottom1" 160 0 mark 0
LayerCount: 2
Fore
SplineSet
118 -80 m 0
 118 -57 137 -38 160 -38 c 0
 183 -38 202 -57 202 -80 c 2
 202 -131 l 2
 202 -197.564102564 165 -219 132 -219 c 2
 120 -219 l 1
 120 -195 l 1
 131 -195 l 2
 160 -195 182 -182.166666667 182 -125 c 2
 182 -116 l 1
 176 -120 168 -122 160 -122 c 0
 137 -122 118 -103 118 -80 c 0
EndSplineSet
EndChar

StartChar: ellipsis.ss03
Encoding: 65563 -1 455
GlifName: ellipsis.ss03
Width: 480
Flags: HW
LayerCount: 2
Fore
SplineSet
358 34 m 0
 358 57 377 76 400 76 c 0
 423 76 442 57 442 34 c 0
 442 11 423 -8 400 -8 c 0
 377 -8 358 11 358 34 c 0
198 34 m 0
 198 57 217 76 240 76 c 0
 263 76 282 57 282 34 c 0
 282 11 263 -8 240 -8 c 0
 217 -8 198 11 198 34 c 0
38 34 m 0
 38 57 57 76 80 76 c 0
 103 76 122 57 122 34 c 0
 122 11 103 -8 80 -8 c 0
 57 -8 38 11 38 34 c 0
EndSplineSet
EndChar

StartChar: quoteleft.ss03
Encoding: 65564 -1 456
GlifName: quoteleft.ss03
Width: 160
Flags: HW
LayerCount: 2
Fore
SplineSet
118 535 m 4
 118 512 99 493 76 493 c 4
 53 493 34 512 34 535 c 6
 34 586 l 6
 34 672.230769231 76.2857142857 700 114 700 c 6
 126 700 l 5
 126 666 l 5
 115 666 l 6
 83.7254901961 666 60 650.6 60 582 c 6
 60 573 l 5
 64.3636363636 575.666666667 70.1818181818 577 76 577 c 4
 99 577 118 558 118 535 c 4
EndSplineSet
EndChar

StartChar: quoteright.ss03
Encoding: 65565 -1 457
GlifName: quoteright.ss03
Width: 160
Flags: HW
LayerCount: 2
Fore
SplineSet
42 658 m 4
 42 681 61 700 84 700 c 4
 107 700 126 681 126 658 c 6
 126 607 l 6
 126 520.769230769 83.7142857143 493 46 493 c 6
 34 493 l 5
 34 527 l 5
 45 527 l 6
 76.2745098039 527 100 542.4 100 611 c 6
 100 620 l 5
 95.6363636364 617.333333333 89.8181818182 616 84 616 c 4
 61 616 42 635 42 658 c 4
EndSplineSet
EndChar

StartChar: quotesinglbase.ss03
Encoding: 65566 -1 458
GlifName: quotesinglbase.ss03
Width: 160
Flags: HW
LayerCount: 2
Fore
SplineSet
42 42 m 0
 42 65 61 84 84 84 c 0
 107 84 126 65 126 42 c 2
 126 -9 l 2
 126 -95.2307692308 83.7142857143 -123 46 -123 c 2
 34 -123 l 1
 34 -89 l 1
 45 -89 l 2
 76.2745098039 -89 100 -73.6 100 -5 c 2
 100 4 l 1
 95.6363636364 1.33333333333 89.8181818182 0 84 0 c 0
 61 0 42 19 42 42 c 0
EndSplineSet
EndChar

StartChar: quotereversed.ss03
Encoding: 65567 -1 459
GlifName: quotereversed.ss03
Width: 160
Flags: HW
LayerCount: 2
Fore
SplineSet
118 658 m 4
 118 635 99 616 76 616 c 4
 70.181640625 616 64.36328125 617.333007812 60 620 c 5
 60 611 l 6
 60 542.400390625 83.7255859375 527 115 527 c 6
 126 527 l 5
 126 493 l 5
 114 493 l 6
 76.2861328125 493 34 520.76953125 34 607 c 6
 34 658 l 6
 34 681 53 700 76 700 c 4
 99 700 118 681 118 658 c 4
EndSplineSet
EndChar

StartChar: quotedblleft.ss03
Encoding: 65568 -1 460
GlifName: quotedblleft.ss03
Width: 270
Flags: HW
LayerCount: 2
Fore
SplineSet
228 535 m 4
 228 512 209 493 186 493 c 4
 163 493 144 512 144 535 c 6
 144 586 l 6
 144 672.230769231 186.285714286 700 224 700 c 6
 236 700 l 5
 236 666 l 5
 225 666 l 6
 193.725490196 666 170 650.6 170 582 c 6
 170 573 l 5
 174.363636364 575.666666667 180.181818182 577 186 577 c 4
 209 577 228 558 228 535 c 4
118 535 m 4
 118 512 99 493 76 493 c 4
 53 493 34 512 34 535 c 6
 34 586 l 6
 34 672.230769231 76.2857142857 700 114 700 c 6
 126 700 l 5
 126 666 l 5
 115 666 l 6
 83.7254901961 666 60 650.6 60 582 c 6
 60 573 l 5
 64.3636363636 575.666666667 70.1818181818 577 76 577 c 4
 99 577 118 558 118 535 c 4
EndSplineSet
EndChar

StartChar: quotedblright.ss03
Encoding: 65569 -1 461
GlifName: quotedblright.ss03
Width: 270
Flags: HW
LayerCount: 2
Fore
SplineSet
42 658 m 4
 42 681 61 700 84 700 c 4
 107 700 126 681 126 658 c 6
 126 607 l 6
 126 520.769230769 83.7142857143 493 46 493 c 6
 34 493 l 5
 34 527 l 5
 45 527 l 6
 76.2745098039 527 100 542.4 100 611 c 6
 100 620 l 5
 95.6363636364 617.333333333 89.8181818182 616 84 616 c 4
 61 616 42 635 42 658 c 4
152 658 m 4
 152 681 171 700 194 700 c 4
 217 700 236 681 236 658 c 6
 236 607 l 6
 236 520.769230769 193.714285714 493 156 493 c 6
 144 493 l 5
 144 527 l 5
 155 527 l 6
 186.274509804 527 210 542.4 210 611 c 6
 210 620 l 5
 205.636363636 617.333333333 199.818181818 616 194 616 c 4
 171 616 152 635 152 658 c 4
EndSplineSet
EndChar

StartChar: quotedblbase.ss03
Encoding: 65570 -1 462
GlifName: quotedblbase.ss03
Width: 270
Flags: HW
LayerCount: 2
Fore
SplineSet
42 42 m 4
 42 65 61 84 84 84 c 4
 107 84 126 65 126 42 c 6
 126 -9 l 6
 126 -95.2307692308 83.7142857143 -123 46 -123 c 6
 34 -123 l 5
 34 -89 l 5
 45 -89 l 6
 76.2745098039 -89 100 -73.6 100 -5 c 6
 100 4 l 5
 95.6363636364 1.33333333333 89.8181818182 0 84 0 c 4
 61 0 42 19 42 42 c 4
152 42 m 4
 152 65 171 84 194 84 c 4
 217 84 236 65 236 42 c 6
 236 -9 l 6
 236 -95.2307692308 193.714285714 -123 156 -123 c 6
 144 -123 l 5
 144 -89 l 5
 155 -89 l 6
 186.274509804 -89 210 -73.6 210 -5 c 6
 210 4 l 5
 205.636363636 1.33333333333 199.818181818 0 194 0 c 4
 171 0 152 19 152 42 c 4
EndSplineSet
EndChar

StartChar: uni201F.ss03
Encoding: 65571 -1 463
GlifName: uni201F_.ss03
Width: 270
Flags: HW
LayerCount: 2
Fore
SplineSet
228 658 m 4
 228 635 209 616 186 616 c 4
 180.181640625 616 174.36328125 617.333007812 170 620 c 5
 170 611 l 6
 170 542.400390625 193.725585938 527 225 527 c 6
 236 527 l 5
 236 493 l 5
 224 493 l 6
 186.286132812 493 144 520.76953125 144 607 c 6
 144 658 l 6
 144 681 163 700 186 700 c 4
 209 700 228 681 228 658 c 4
118 658 m 4
 118 635 99 616 76 616 c 4
 70.181640625 616 64.36328125 617.333007812 60 620 c 5
 60 611 l 6
 60 542.400390625 83.7255859375 527 115 527 c 6
 126 527 l 5
 126 493 l 5
 114 493 l 6
 76.2861328125 493 34 520.76953125 34 607 c 6
 34 658 l 6
 34 681 53 700 76 700 c 4
 99 700 118 681 118 658 c 4
EndSplineSet
EndChar

StartChar: ldot.ss02
Encoding: 65595 -1 487
GlifName: ldot.ss02
Width: 302
Flags: HW
LayerCount: 2
Fore
SplineSet
188 354 m 1
 252 354 l 1
 252 284 l 1
 188 284 l 1
 188 354 l 1
EndSplineSet
Refer: 74 -1 N 1 0 0 1 0 0 2
Substitution2: "'ss03' Style Set 3 in Latin lookup 2-1" ldot.ss02.ss03
EndChar

StartChar: lslash.ss02
Encoding: 65596 -1 488
GlifName: lslash.ss02
Width: 228
Flags: HW
LayerCount: 2
Fore
SplineSet
216 48 m 1
 216 0 l 1
 204 0 l 2
 147 0 85 28 85 118 c 2
 85 700 l 1
 135 700 l 1
 135 124 l 2
 135 62 166 48 205 48 c 2
 216 48 l 1
0 351 m 1
 228 395 l 1
 228 347 l 1
 0 303 l 1
 0 351 l 1
EndSplineSet
EndChar

StartChar: dotlessi.ss03
Encoding: 65647 -1 539
GlifName: dotlessi.ss03
Width: 160
Flags: HW
AnchorPoint: "top1" 80 560 basechar 0
AnchorPoint: "bottom1" 81 0 basechar 0
LayerCount: 2
Fore
SplineSet
55 500 m 5
 105 500 l 5
 105 0 l 5
 55 0 l 5
 55 500 l 5
EndSplineSet
EndChar

StartChar: adieresis.ss01.ss03
Encoding: 65657 -1 549
GlifName: adieresis.ss01.ss03
Width: 552
Flags: HW
LayerCount: 2
Fore
SplineSet
141 595 m 0
 141 618 160 637 183 637 c 0
 206 637 225 618 225 595 c 0
 225 572 206 553 183 553 c 0
 160 553 141 572 141 595 c 0
338 595 m 0
 338 618 357 637 380 637 c 0
 403 637 422 618 422 595 c 0
 422 572 403 553 380 553 c 0
 357 553 338 572 338 595 c 0
EndSplineSet
Refer: 73 -1 N 1 0 0 1 0 0 3
Decomposition: "a+AwgA"
EndChar

StartChar: uni1EA1.ss01.ss03
Encoding: 65658 -1 550
GlifName: uni1E_A_1.ss01.ss03
Width: 552
Flags: HW
AnchorPoint: "top1" 289 560 basechar 0
LayerCount: 2
Fore
SplineSet
231 -108 m 0
 231 -85 250 -66 273 -66 c 0
 296 -66 315 -85 315 -108 c 0
 315 -131 296 -150 273 -150 c 0
 250 -150 231 -131 231 -108 c 0
EndSplineSet
Refer: 73 -1 N 1 0 0 1 0 0 3
Decomposition: "a+AyMA"
EndChar

StartChar: ldot.ss02.ss03
Encoding: 65661 -1 553
GlifName: ldot.ss02.ss03
Width: 340
Flags: HW
LayerCount: 2
Fore
SplineSet
208 319 m 0
 208 342 227 361 250 361 c 0
 273 361 292 342 292 319 c 0
 292 296 273 277 250 277 c 0
 227 277 208 296 208 319 c 0
186 48 m 1
 186 0 l 1
 174 0 l 2
 117 0 55 28 55 118 c 2
 55 700 l 1
 105 700 l 1
 105 124 l 2
 105 62 136 48 175 48 c 2
 186 48 l 1
EndSplineSet
EndChar

StartChar: tbar.ss08
Encoding: 65679 -1 571
GlifName: tbar.ss08
Width: 312
Flags: HW
LayerCount: 2
Fore
SplineSet
35 300 m 1
 277 300 l 1
 277 252 l 1
 35 252 l 1
 35 300 l 1
35 500 m 1
 277 500 l 1
 277 452 l 1
 35 452 l 1
 35 500 l 1
131 0 m 1
 131 630 l 1
 181 630 l 1
 181 0 l 1
 131 0 l 1
EndSplineSet
EndChar

StartChar: Gdotaccent.ss04.ss03
Encoding: 65698 -1 590
GlifName: G_dotaccent.ss04.ss03
Width: 647
Flags: HW
LayerCount: 2
Fore
SplineSet
279 735 m 0
 279 758 298 777 321 777 c 0
 344 777 363 758 363 735 c 0
 363 712 344 693 321 693 c 0
 298 693 279 712 279 735 c 0
EndSplineSet
Refer: 77 -1 N 1 0 0 1 0 0 3
EndChar

StartChar: uni0122.ss04.ss03
Encoding: 65699 -1 591
GlifName: uni0122.ss04.ss03
Width: 647
Flags: HW
LayerCount: 2
Fore
SplineSet
278 -80 m 4
 278 -57 297 -38 320 -38 c 4
 343 -38 362 -57 362 -80 c 6
 362 -131 l 6
 362 -197.564102564 325 -219 292 -219 c 6
 280 -219 l 5
 280 -195 l 5
 291 -195 l 6
 320 -195 342 -182.166666667 342 -125 c 6
 342 -116 l 5
 336 -120 328 -122 320 -122 c 4
 297 -122 278 -103 278 -80 c 4
EndSplineSet
Refer: 77 -1 N 1 0 0 1 0 0 3
EndChar

StartChar: uni0156.ss05.ss03
Encoding: 65700 -1 592
GlifName: uni0156.ss05.ss03
Width: 559
Flags: HW
LayerCount: 2
Fore
SplineSet
251 -80 m 0
 251 -57 270 -38 293 -38 c 0
 316 -38 335 -57 335 -80 c 2
 335 -131 l 2
 335 -197.564102564 298 -219 265 -219 c 2
 253 -219 l 1
 253 -195 l 1
 264 -195 l 2
 293 -195 315 -182.166666667 315 -125 c 2
 315 -116 l 1
 309 -120 301 -122 293 -122 c 0
 270 -122 251 -103 251 -80 c 0
EndSplineSet
Refer: 78 -1 N 1 0 0 1 0 0 3
EndChar

StartChar: ydieresis.ss07.ss03
Encoding: 65701 -1 593
GlifName: ydieresis.ss07.ss03
Width: 531
Flags: HW
LayerCount: 2
Fore
SplineSet
129 595 m 4
 129 618 148 637 171 637 c 4
 194 637 213 618 213 595 c 4
 213 572 194 553 171 553 c 4
 148 553 129 572 129 595 c 4
326 595 m 4
 326 618 345 637 368 637 c 4
 391 637 410 618 410 595 c 4
 410 572 391 553 368 553 c 4
 345 553 326 572 326 595 c 4
EndSplineSet
Refer: 80 -1 N 1 0 0 1 0 0 3
EndChar

StartChar: uni1EF5.ss07.ss03
Encoding: 65702 -1 594
GlifName: uni1E_F_5.ss07.ss03
Width: 531
Flags: HW
LayerCount: 2
Fore
SplineSet
322 -108 m 4
 322 -85 341 -66 364 -66 c 4
 387 -66 406 -85 406 -108 c 4
 406 -131 387 -150 364 -150 c 4
 341 -150 322 -131 322 -108 c 4
EndSplineSet
Refer: 80 -1 N 1 0 0 1 0 0 3
EndChar

StartChar: udieresis.ss10.ss03
Encoding: 65703 -1 595
GlifName: udieresis.ss10.ss03
Width: 502
Flags: HW
LayerCount: 2
Fore
SplineSet
110 595 m 0
 110 618 129 637 152 637 c 0
 175 637 194 618 194 595 c 0
 194 572 175 553 152 553 c 0
 129 553 110 572 110 595 c 0
307 595 m 0
 307 618 326 637 349 637 c 0
 372 637 391 618 391 595 c 0
 391 572 372 553 349 553 c 0
 326 553 307 572 307 595 c 0
EndSplineSet
Refer: 105 -1 N 1 0 0 1 0 0 3
EndChar

StartChar: uni1EE5.ss10.ss03
Encoding: 65704 -1 596
GlifName: uni1E_E_5.ss10.ss03
Width: 502
Flags: HW
LayerCount: 2
Fore
SplineSet
210 -108 m 4
 210 -85 229 -66 252 -66 c 4
 275 -66 294 -85 294 -108 c 4
 294 -131 275 -150 252 -150 c 4
 229 -150 210 -131 210 -108 c 4
EndSplineSet
Refer: 105 -1 N 1 0 0 1 0 0 3
EndChar

StartChar: uni1EF1.ss10.ss03
Encoding: 65705 -1 597
GlifName: uni1E_F_1.ss10.ss03
Width: 558
Flags: HW
LayerCount: 2
Fore
SplineSet
210 -108 m 0
 210 -85 229 -66 252 -66 c 0
 275 -66 294 -85 294 -108 c 0
 294 -131 275 -150 252 -150 c 0
 229 -150 210 -131 210 -108 c 0
EndSplineSet
Refer: 582 -1 N 1 0 0 1 0 0 3
EndChar

StartChar: Gdotaccent.ss03.ss04
Encoding: 65706 -1 598
GlifName: G_dotaccent.ss03.ss04
Width: 647
Flags: HW
LayerCount: 2
Fore
SplineSet
279 735 m 0
 279 758 298 777 321 777 c 0
 344 777 363 758 363 735 c 0
 363 712 344 693 321 693 c 0
 298 693 279 712 279 735 c 0
EndSplineSet
Refer: 77 -1 N 1 0 0 1 0 0 3
Decomposition: "G+AwcA"
EndChar

StartChar: uni0122.ss03.ss04
Encoding: 65707 -1 599
GlifName: uni0122.ss03.ss04
Width: 647
Flags: HW
LayerCount: 2
Fore
SplineSet
278 -80 m 4
 278 -57 297 -38 320 -38 c 4
 343 -38 362 -57 362 -80 c 6
 362 -131 l 6
 362 -197.564102564 325 -219 292 -219 c 6
 280 -219 l 5
 280 -195 l 5
 291 -195 l 6
 320 -195 342 -182.166666667 342 -125 c 6
 342 -116 l 5
 336 -120 328 -122 320 -122 c 4
 297 -122 278 -103 278 -80 c 4
EndSplineSet
Refer: 77 -1 N 1 0 0 1 0 0 3
EndChar

StartChar: uni0156.ss03.ss05
Encoding: 65708 -1 600
GlifName: uni0156.ss03.ss05
Width: 559
Flags: HW
LayerCount: 2
Fore
SplineSet
251 -80 m 0
 251 -57 270 -38 293 -38 c 0
 316 -38 335 -57 335 -80 c 2
 335 -131 l 2
 335 -197.564102564 298 -219 265 -219 c 2
 253 -219 l 1
 253 -195 l 1
 264 -195 l 2
 293 -195 315 -182.166666667 315 -125 c 2
 315 -116 l 1
 309 -120 301 -122 293 -122 c 0
 270 -122 251 -103 251 -80 c 0
EndSplineSet
Refer: 78 -1 N 1 0 0 1 0 0 3
EndChar

StartChar: uni1EF5.ss03.ss07
Encoding: 65709 -1 601
GlifName: uni1E_F_5.ss03.ss07
Width: 531
Flags: HW
LayerCount: 2
Fore
SplineSet
322 -108 m 4
 322 -85 341 -66 364 -66 c 4
 387 -66 406 -85 406 -108 c 4
 406 -131 387 -150 364 -150 c 4
 341 -150 322 -131 322 -108 c 4
EndSplineSet
Refer: 80 -1 N 1 0 0 1 0 0 3
EndChar

StartChar: ydieresis.ss03.ss07
Encoding: 65710 -1 602
GlifName: ydieresis.ss03.ss07
Width: 531
Flags: HW
LayerCount: 2
Fore
SplineSet
129 595 m 4
 129 618 148 637 171 637 c 4
 194 637 213 618 213 595 c 4
 213 572 194 553 171 553 c 4
 148 553 129 572 129 595 c 4
326 595 m 4
 326 618 345 637 368 637 c 4
 391 637 410 618 410 595 c 4
 410 572 391 553 368 553 c 4
 345 553 326 572 326 595 c 4
EndSplineSet
Refer: 80 -1 N 1 0 0 1 0 0 3
EndChar

StartChar: udieresis.ss03.ss10
Encoding: 65711 -1 603
GlifName: udieresis.ss03.ss10
Width: 502
Flags: HW
LayerCount: 2
Fore
SplineSet
110 595 m 0
 110 618 129 637 152 637 c 0
 175 637 194 618 194 595 c 0
 194 572 175 553 152 553 c 0
 129 553 110 572 110 595 c 0
307 595 m 0
 307 618 326 637 349 637 c 0
 372 637 391 618 391 595 c 0
 391 572 372 553 349 553 c 0
 326 553 307 572 307 595 c 0
EndSplineSet
Refer: 105 -1 N 1 0 0 1 0 0 3
EndChar

StartChar: uni1EE5.ss03.ss10
Encoding: 65712 -1 604
GlifName: uni1E_E_5.ss03.ss10
Width: 502
Flags: HW
LayerCount: 2
Fore
SplineSet
210 -108 m 4
 210 -85 229 -66 252 -66 c 4
 275 -66 294 -85 294 -108 c 4
 294 -131 275 -150 252 -150 c 4
 229 -150 210 -131 210 -108 c 4
EndSplineSet
Refer: 105 -1 N 1 0 0 1 0 0 3
EndChar

StartChar: uni1EF1.ss03.ss10
Encoding: 65713 -1 605
GlifName: uni1E_F_1.ss03.ss10
Width: 558
Flags: HW
LayerCount: 2
Fore
SplineSet
210 -108 m 0
 210 -85 229 -66 252 -66 c 0
 275 -66 294 -85 294 -108 c 0
 294 -131 275 -150 252 -150 c 0
 229 -150 210 -131 210 -108 c 0
EndSplineSet
Refer: 582 -1 N 1 0 0 1 0 0 3
EndChar

StartChar: zero.slsh
Encoding: 65714 -1 606
GlifName: zero.slsh
Width: 545
Flags: HW
LayerCount: 2
Fore
SplineSet
418 557 m 1
 454 527 l 1
 127 101 l 5
 91 131 l 5
 418 557 l 1
45 317 m 0
 45 533 130 660 273 660 c 0
 416 660 500 533 500 317 c 0
 500 112 416 -8 273 -8 c 0
 129 -8 45 112 45 317 c 0
447 317 m 0
 447 512 389 610 273 610 c 0
 156 610 98 512 98 317 c 0
 98 133 156 42 273 42 c 0
 389 42 447 133 447 317 c 0
EndSplineSet
Substitution2: "'tnum' Tabular Numbers in Latin lookup 11-1" zero.slsh.tabl
EndChar

StartChar: zero.tabl
Encoding: 65715 -1 607
GlifName: zero.tabl
Width: 545
Flags: HW
LayerCount: 2
Fore
SplineSet
45 317 m 4
 45 533 130 660 273 660 c 4
 416 660 500 533 500 317 c 4
 500 112 416 -8 273 -8 c 4
 129 -8 45 112 45 317 c 4
447 317 m 4
 447 512 389 610 273 610 c 4
 156 610 98 512 98 317 c 4
 98 133 156 42 273 42 c 4
 389 42 447 133 447 317 c 4
EndSplineSet
Substitution2: "'zero' Slashed Zero in Latin lookup 10-1" zero.tabl.slsh
EndChar

StartChar: one.tabl
Encoding: 65716 -1 608
GlifName: one.tabl
Width: 545
Flags: HW
LayerCount: 2
Fore
SplineSet
255 650 m 1
 305 650 l 1
 305 48 l 1
 468 48 l 1
 468 0 l 1
 76 0 l 1
 76 48 l 1
 255 48 l 1
 255 500 l 1
 99 500 l 1
 99 543 l 1
 175 543 l 2
 227 543 255 558 255 610 c 2
 255 650 l 1
EndSplineSet
EndChar

StartChar: two.tabl
Encoding: 65717 -1 609
GlifName: two.tabl
Width: 545
Flags: HW
LayerCount: 2
Fore
SplineSet
111 48 m 1
 482 48 l 1
 482 0 l 1
 59 0 l 1
 59 14 l 1
 59 159 173 217 275 273 c 0
 358 319 433 363 433 454 c 0
 433 552 373 608 269 608 c 0
 177 608 116 550 112 459 c 1
 59 459 l 1
 67 577 153 658 269 658 c 0
 399 658 486 577 486 454 c 0
 486 346 398 286 307 234 c 0
 211 179 111 133 111 48 c 1
EndSplineSet
EndChar

StartChar: three.tabl
Encoding: 65718 -1 610
GlifName: three.tabl
Width: 545
Flags: HW
LayerCount: 2
Fore
SplineSet
349 352 m 1
 349 302 l 1
 230 302 l 1
 230 352 l 1
 349 352 l 1
299 312 m 1
 299 352 l 1
 378 352 423 397 423 474 c 0
 423 559 367 608 269 608 c 0
 182 608 125 557 122 476 c 1
 69 476 l 1
 77 584 158 658 269 658 c 0
 393 658 476 585 476 474 c 0
 476 377 405 312 299 312 c 1
299 342 m 1
 411 342 486 275 486 175 c 0
 486 65 399 -8 269 -8 c 0
 153 -8 67 65 59 171 c 1
 112 171 l 1
 116 92 177 42 269 42 c 0
 373 42 433 90 433 175 c 0
 433 256 384 302 299 302 c 1
 299 342 l 1
EndSplineSet
EndChar

StartChar: four.tabl
Encoding: 65719 -1 611
GlifName: four.tabl
Width: 545
Flags: HW
LayerCount: 2
Fore
SplineSet
406 172 m 1
 406 0 l 1
 356 0 l 1
 356 172 l 1
 36 172 l 1
 36 229 l 1
 346 650 l 1
 406 650 l 1
 406 219 l 1
 508 219 l 1
 508 172 l 1
 406 172 l 1
356 219 m 1
 356 588 l 1
 90 219 l 1
 356 219 l 1
EndSplineSet
EndChar

StartChar: five.tabl
Encoding: 65720 -1 612
GlifName: five.tabl
Width: 545
Flags: HW
LayerCount: 2
Fore
SplineSet
433 214 m 4
 433 100 374 42 271 42 c 4
 177 42 116 89 112 164 c 5
 59 164 l 5
 67 62 152 -8 271 -8 c 4
 399 -8 486 76 486 215 c 4
 486 344 404 437 274 437 c 4
 203 437 146 408 110 363 c 5
 132 603 l 5
 463 603 l 5
 463 651 l 5
 89 651 l 5
 59 309 l 5
 108 309 l 5
 138 357 193 387 267 387 c 4
 374 387 433 320 433 214 c 4
EndSplineSet
EndChar

StartChar: six.tabl
Encoding: 65721 -1 613
GlifName: six.tabl
Width: 545
Flags: HW
LayerCount: 2
Fore
SplineSet
49 327 m 4
 49 537 138 660 291 660 c 4
 395 660 470 599 488 499 c 5
 435 499 l 5
 421 571 371 610 291 610 c 4
 164 610 102 517 102 327 c 4
 102 315 103 304 104 293 c 5
 135 375 209 426 295 426 c 4
 412 426 496 335 496 209 c 4
 496 83 412 -8 295 -8 c 4
 145 -8 49 122 49 327 c 4
124 209 m 4
 124 114 196 43 291 43 c 4
 383 43 443 109 443 209 c 4
 443 309 383 375 291 375 c 4
 191 375 124 308 124 209 c 4
EndSplineSet
EndChar

StartChar: seven.tabl
Encoding: 65722 -1 614
GlifName: seven.tabl
Width: 545
Flags: HW
LayerCount: 2
Fore
SplineSet
240 0 m 1
 249 295 356 432 498 592 c 1
 498 650 l 1
 46 650 l 1
 46 602 l 1
 448 602 l 1
 325 455 214 343 186 0 c 1
 240 0 l 1
EndSplineSet
EndChar

StartChar: eight.tabl
Encoding: 65723 -1 615
GlifName: eight.tabl
Width: 545
Flags: HW
LayerCount: 2
Fore
SplineSet
367.626934819 328.468715771 m 1
 440.942688311 303.778623076 485.999999999 246.889347136 486 171 c 0
 486 63 401 -8 272 -8 c 0
 144 -8 59 63 59 171 c 0
 59 246.889347136 104.057311691 303.778623077 177.373065186 328.468715771 c 1
 116.219149131 353.981897459 79 407.55460826 79 478 c 0
 79 586 156 658 272 658 c 0
 389 658 466 586 466 478 c 0
 466 407.554608261 428.780850871 353.981897461 367.626934819 328.468715771 c 1
279 352 m 2
 364 352 413 398 413 478 c 0
 413 561 362 608 272 608 c 0
 183 608 132 561 132 478 c 0
 132 398 181 352 266 352 c 2
 279 352 l 2
279 302 m 2
 266 302 l 2
 168 302 112 254 112 171 c 0
 112 89 170 42 272 42 c 0
 374 42 433 89 433 171 c 0
 433 254 377 302 279 302 c 2
EndSplineSet
EndChar

StartChar: nine.tabl
Encoding: 65724 -1 616
GlifName: nine.tabl
Width: 545
Flags: HW
LayerCount: 2
Fore
SplineSet
496 325 m 0
 496 115 407 -8 254 -8 c 0
 150 -8 75 53 57 153 c 1
 110 153 l 1
 124 81 174 42 254 42 c 0
 381 42 443 135 443 325 c 0
 443 337 442 348 441 359 c 1
 410 277 336 226 250 226 c 0
 133 226 49 317 49 443 c 0
 49 569 133 660 250 660 c 0
 400 660 496 530 496 325 c 0
421 443 m 0
 421 538 349 609 254 609 c 0
 162 609 102 543 102 443 c 0
 102 343 162 277 254 277 c 0
 354 277 421 344 421 443 c 0
EndSplineSet
EndChar

StartChar: zero.slsh.tabl
Encoding: 65725 -1 617
GlifName: zero.slsh.tabl
Width: 545
Flags: HW
LayerCount: 2
Fore
SplineSet
418 557 m 1
 454 527 l 1
 127 101 l 5
 91 131 l 5
 418 557 l 1
45 317 m 0
 45 533 130 660 273 660 c 0
 416 660 500 533 500 317 c 0
 500 112 416 -8 273 -8 c 0
 129 -8 45 112 45 317 c 0
447 317 m 0
 447 512 389 610 273 610 c 0
 156 610 98 512 98 317 c 0
 98 133 156 42 273 42 c 0
 389 42 447 133 447 317 c 0
EndSplineSet
EndChar

StartChar: plus.tabl
Encoding: 65726 -1 618
GlifName: plus.tabl
Width: 545
Flags: HW
LayerCount: 2
Fore
SplineSet
296 300 m 5
 510 300 l 5
 510 252 l 5
 296 252 l 5
 296 38 l 5
 248 38 l 5
 248 252 l 5
 34 252 l 5
 34 300 l 5
 248 300 l 5
 248 514 l 5
 296 514 l 5
 296 300 l 5
EndSplineSet
EndChar

StartChar: hyphen.tabl
Encoding: 65727 -1 619
GlifName: hyphen.tabl
Width: 545
Flags: HW
LayerCount: 2
Fore
SplineSet
76 300 m 1
 468 300 l 1
 468 252 l 1
 76 252 l 1
 76 300 l 1
EndSplineSet
EndChar

StartChar: period.tabl
Encoding: 65728 -1 620
GlifName: period.tabl
Width: 545
Flags: HW
LayerCount: 2
Fore
SplineSet
240 70 m 5
 304 70 l 5
 304 0 l 5
 240 0 l 5
 240 70 l 5
EndSplineSet
EndChar

StartChar: slash.tabl
Encoding: 65729 -1 621
GlifName: slash.tabl
Width: 545
Flags: HW
LayerCount: 2
Fore
SplineSet
378 650 m 5
 434 650 l 5
 166 0 l 5
 110 0 l 5
 378 650 l 5
EndSplineSet
EndChar

StartChar: colon.tabl
Encoding: 65730 -1 622
GlifName: colon.tabl
Width: 545
Flags: HW
LayerCount: 2
Fore
SplineSet
240 480 m 5
 304 480 l 5
 304 410 l 5
 240 410 l 5
 240 480 l 5
240 70 m 5
 304 70 l 5
 304 0 l 5
 240 0 l 5
 240 70 l 5
EndSplineSet
EndChar

StartChar: multiply.tabl
Encoding: 65731 -1 623
GlifName: multiply.tabl
Width: 545
Flags: HW
LayerCount: 2
Fore
SplineSet
272 310 m 1
 444 481 l 1
 478 447 l 1
 306 276 l 1
 478 105 l 1
 444 71 l 1
 272 242 l 1
 102 71 l 1
 68 105 l 1
 238 276 l 1
 68 447 l 1
 102 481 l 1
 272 310 l 1
EndSplineSet
EndChar

StartChar: divide.tabl
Encoding: 65732 -1 624
GlifName: divide.tabl
Width: 545
Flags: HW
LayerCount: 2
Fore
SplineSet
240 507 m 5
 304 507 l 5
 304 437 l 5
 240 437 l 5
 240 507 l 5
240 97 m 5
 304 97 l 5
 304 27 l 5
 240 27 l 5
 240 97 l 5
76 300 m 1
 468 300 l 1
 468 252 l 1
 76 252 l 1
 76 300 l 1
EndSplineSet
EndChar

StartChar: period.ss03.tabl
Encoding: 65733 -1 625
GlifName: period.ss03.tabl
Width: 545
Flags: HW
LayerCount: 2
Fore
SplineSet
230 34 m 4
 230 57 249 76 272 76 c 4
 295 76 314 57 314 34 c 4
 314 11 295 -8 272 -8 c 4
 249 -8 230 11 230 34 c 4
EndSplineSet
EndChar

StartChar: colon.ss03.tabl
Encoding: 65734 -1 626
GlifName: colon.ss03.tabl
Width: 545
Flags: HW
LayerCount: 2
Fore
SplineSet
230 447 m 4
 230 470 249 489 272 489 c 4
 295 489 314 470 314 447 c 4
 314 424 295 405 272 405 c 4
 249 405 230 424 230 447 c 4
230 34 m 4
 230 57 249 76 272 76 c 4
 295 76 314 57 314 34 c 4
 314 11 295 -8 272 -8 c 4
 249 -8 230 11 230 34 c 4
EndSplineSet
EndChar

StartChar: divide.ss03.tabl
Encoding: 65735 -1 627
GlifName: divide.ss03.tabl
Width: 545
Flags: HW
LayerCount: 2
Fore
SplineSet
230 475 m 0
 230 498 249 517 272 517 c 0
 295 517 314 498 314 475 c 0
 314 452 295 433 272 433 c 0
 249 433 230 452 230 475 c 0
230 62 m 0
 230 85 249 104 272 104 c 0
 295 104 314 85 314 62 c 0
 314 39 295 20 272 20 c 0
 249 20 230 39 230 62 c 0
76 300 m 1
 468 300 l 1
 468 252 l 1
 76 252 l 1
 76 300 l 1
EndSplineSet
EndChar

StartChar: cent
Encoding: 162 162 628
GlifName: cent
Width: 537
Flags: HW
LayerCount: 2
Fore
SplineSet
248 650 m 1
 298 650 l 1
 298 0 l 1
 248 0 l 1
 248 650 l 1
45 327 m 0
 45 482 136 585 272 585 c 0
 394 585 483 507 492 394 c 1
 439 394 l 1
 435 480 370 535 272 535 c 0
 161 535 98 459 98 327 c 0
 98 194 162 117 272 117 c 0
 369 117 434 168 439 249 c 1
 492 249 l 1
 481 139 394 67 272 67 c 0
 136 67 45 171 45 327 c 0
EndSplineSet
EndChar

StartChar: sterling
Encoding: 163 163 629
GlifName: sterling
Width: 524
Flags: HW
LayerCount: 2
Fore
SplineSet
35 338 m 1
 410 338 l 1
 410 290 l 1
 35 290 l 1
 35 338 l 1
431 502 m 1
 423.026433865 569.091447896 376.04252189 608 303 608 c 0
 223.904526436 608 178 555.117985545 178 464 c 2
 178 215 l 2
 178 152.866078206 156.068498497 81.9353174424 85 48 c 1
 489 48 l 1
 489 0 l 1
 35 0 l 1
 35 54 l 1
 106.015999659 88.4219724733 128 160.177844061 128 223 c 2
 128 464 l 2
 128 580.214417471 198.167406921 658 303 658 c 0
 401.228642101 658 472.51558611 595.52380188 481 502 c 1
 431 502 l 1
EndSplineSet
EndChar

StartChar: currency
Encoding: 164 164 630
GlifName: currency
Width: 480
Flags: HW
LayerCount: 2
Fore
SplineSet
139 279 m 0
 139 213 177 173 240 173 c 0
 302 173 340 214 340 279 c 0
 340 344 301 385 239 385 c 0
 178 385 139 344 139 279 c 0
330 400 m 1
 411 481 l 1
 445 447 l 1
 363 365 l 1
 379 341 387 311 387 279 c 0
 387 245 378 214 361 189 c 1
 445 105 l 1
 411 71 l 1
 327 155 l 1
 303 138 273 129 240 129 c 0
 207 129 177 138 153 155 c 1
 69 71 l 1
 35 105 l 1
 119 189 l 1
 101 214 92 245 92 279 c 0
 92 311 100 341 116 366 c 1
 35 447 l 1
 69 481 l 1
 149 401 l 1
 174 419 205 429 239 429 c 0
 274 429 305 419 330 400 c 1
EndSplineSet
EndChar

StartChar: degree
Encoding: 176 176 631
GlifName: degree
Width: 325
Flags: HW
LayerCount: 2
Fore
SplineSet
82 531 m 4
 82 477.751953125 112.84765625 445 163 445 c 4
 212.403320312 445 243 477.891601562 243 531 c 4
 243 583.766601562 211.69921875 617 162 617 c 4
 113.044921875 617 82 583.626953125 82 531 c 4
290 531 m 4
 290 454.638671875 237.599609375 401 163 401 c 4
 87.650390625 401 35 454.473632812 35 531 c 4
 35 606.866210938 87.884765625 661 162 661 c 4
 236.861328125 661 290 607.03125 290 531 c 4
EndSplineSet
EndChar

StartChar: yen
Encoding: 165 165 632
GlifName: yen
Width: 567
Flags: HW
LayerCount: 2
Fore
SplineSet
83 136 m 5
 475 136 l 5
 475 88 l 5
 83 88 l 5
 83 136 l 5
83 250 m 1
 475 250 l 1
 475 202 l 1
 83 202 l 1
 83 250 l 1
257 245 m 1
 35 650 l 1
 97 650 l 1
 282 308 l 1
 472 650 l 1
 532 650 l 1
 307 245 l 1
 307 0 l 1
 257 0 l 1
 257 245 l 1
EndSplineSet
EndChar

StartChar: brokenbar
Encoding: 166 166 633
GlifName: brokenbar
Width: 160
Flags: HW
LayerCount: 2
Fore
SplineSet
55 801 m 1
 105 801 l 1
 105 353 l 1
 55 353 l 1
 55 801 l 1
105 248 m 1
 105 -200 l 1
 55 -200 l 1
 55 248 l 1
 105 248 l 1
EndSplineSet
EndChar

StartChar: uni2070
Encoding: 8304 8304 634
GlifName: uni2070
Width: 385
Flags: HW
LayerCount: 2
Fore
SplineSet
35 556 m 4
 35 675 98 754 193 754 c 4
 287 754 350 675 350 556 c 4
 350 436 287 356 193 356 c 4
 98 356 35 436 35 556 c 4
297 556 m 4
 297 650 259 704 193 704 c 4
 127 704 88 650 88 556 c 4
 88 461 127 406 193 406 c 4
 259 406 297 461 297 556 c 4
EndSplineSet
EndChar

StartChar: uni2074
Encoding: 8308 8308 635
GlifName: uni2074
Width: 394
Flags: HW
LayerCount: 2
Fore
SplineSet
285 462 m 1
 285 364 l 1
 235 364 l 1
 235 462 l 1
 35 462 l 1
 35 519 l 1
 225 750 l 1
 285 750 l 1
 285 509 l 1
 359 509 l 1
 359 462 l 1
 285 462 l 1
235 509 m 1
 235 688 l 1
 88 509 l 1
 235 509 l 1
EndSplineSet
EndChar

StartChar: uni2075
Encoding: 8309 8309 636
GlifName: uni2075
Width: 363
Flags: HW
LayerCount: 2
Fore
SplineSet
275 493 m 0
 275 435.336914062 241.494140625 406 183 406 c 0
 126.836914062 406 90.3896484375 429.884765625 88 468 c 1
 35 468 l 1
 40.5849609375 401.581054688 99.9248046875 356 183 356 c 0
 269.325195312 356 328 407.982421875 328 494 c 0
 328 572.446289062 276.943359375 629 196 629 c 0
 150.109375 629 113.268554688 609.796875 90 580 c 1
 103 702 l 1
 309 702 l 1
 309 750 l 1
 60 750 l 1
 35 526 l 1
 84 526 l 1
 103.811523438 558.615234375 140.131835938 579 189 579 c 0
 244.43359375 579 275 545.693359375 275 493 c 0
EndSplineSet
EndChar

StartChar: uni2076
Encoding: 8310 8310 637
GlifName: uni2076
Width: 377
Flags: HW
LayerCount: 2
Fore
SplineSet
35 551 m 0
 35 679.017578125 95.681640625 754 200 754 c 0
 270.741210938 754 321.755859375 713.459960938 334 647 c 1
 281 647 l 1
 273.125 683.97265625 245 704 200 704 c 0
 124.741210938 704 88 655.364257812 88 556 c 0
 88 546.823242188 89 538.412109375 90 530 c 1
 108.827148438 579.323242188 153.76953125 610 206 610 c 0
 285.1640625 610 342 556.7421875 342 483 c 0
 342 409.2578125 285.1640625 356 206 356 c 0
 101.731445312 356 35 431.671875 35 551 c 0
110 483 m 0
 110 439.505859375 149.665039062 407 202 407 c 0
 254.658203125 407 289 437.216796875 289 483 c 0
 289 528.783203125 254.658203125 559 202 559 c 0
 146.91015625 559 110 528.325195312 110 483 c 0
EndSplineSet
EndChar

StartChar: uni2077
Encoding: 8311 8311 638
GlifName: uni2077
Width: 386
Flags: HW
LayerCount: 2
Fore
SplineSet
178 364 m 1
 191.01171875 497.446289062 256.150390625 603.3515625 351 692 c 1
 351 750 l 1
 35 750 l 1
 35 702 l 1
 300 702 l 1
 217.374023438 619.46484375 145.809570312 526.581054688 124 364 c 1
 178 364 l 1
EndSplineSet
EndChar

StartChar: uni2078
Encoding: 8312 8312 639
GlifName: uni2078
Width: 377
Flags: HW
LayerCount: 2
Fore
SplineSet
191 754 m 1
 191 704 l 1
 131.750976562 704 98 680.047851562 98 638 c 0
 98 601.19140625 130.883789062 580 188 580 c 1
 188 540 l 1
 102.104492188 540 45 581.130859375 45 643 c 0
 45 709.657226562 103.32421875 754 191 754 c 1
191 406 m 1
 191 356 l 1
 97.0654296875 356 35 398.172851562 35 462 c 0
 35 526.874023438 96.0947265625 570 188 570 c 1
 188 530 l 1
 124.501953125 530 88 506.638671875 88 466 c 0
 88 427.805664062 125.432617188 406 191 406 c 1
205 580 m 1
 205 530 l 1
 178 530 l 1
 178 580 l 1
 205 580 l 1
191 754 m 1
 275.818359375 754 332 709.771484375 332 643 c 0
 332 581.130859375 277.291992188 540 195 540 c 1
 195 580 l 1
 248.30859375 580 279 601.19140625 279 638 c 0
 279 680.1328125 247.177734375 704 191 704 c 1
 191 754 l 1
191 406 m 1
 253.190429688 406 289 427.923828125 289 466 c 0
 289 506.638671875 254.6875 530 195 530 c 1
 195 570 l 1
 283.30078125 570 342 526.874023438 342 462 c 0
 342 398.07421875 282.064453125 356 191 356 c 1
 191 406 l 1
EndSplineSet
EndChar

StartChar: uni2079
Encoding: 8313 8313 640
GlifName: uni2079
Width: 377
Flags: HW
LayerCount: 2
Fore
SplineSet
342 539 m 0
 342 423.594726562 281.318359375 356 177 356 c 0
 102.563476562 356 48.8828125 394.645507812 36 458 c 1
 89 458 l 1
 97.5556640625 424.270507812 128.111328125 406 177 406 c 0
 253.603515625 406 291 451.349609375 291 544 c 0
 291 553.176757812 290 561.587890625 289 570 c 1
 270.172851562 521.29296875 225.23046875 491 173 491 c 0
 92.671875 491 35 545.935546875 35 622 c 0
 35 698.645507812 94.7607421875 754 178 754 c 0
 278 754 342 670.567382812 342 539 c 0
270 621 m 0
 270 667.35546875 230.334960938 702 178 702 c 0
 125.341796875 702 91 669.794921875 91 621 c 0
 91 572.807617188 125.341796875 541 178 541 c 0
 233.08984375 541 270 573.2890625 270 621 c 0
EndSplineSet
EndChar

StartChar: uni207A
Encoding: 8314 8314 641
GlifName: uni207A_
Width: 366
Flags: HW
LayerCount: 2
Fore
SplineSet
207 588 m 5
 331 588 l 5
 331 540 l 5
 207 540 l 5
 207 416 l 1
 159 416 l 1
 159 540 l 5
 35 540 l 5
 35 588 l 5
 159 588 l 5
 159 712 l 1
 207 712 l 1
 207 588 l 5
EndSplineSet
EndChar

StartChar: uni207B
Encoding: 8315 8315 642
GlifName: uni207B_
Width: 366
Flags: HW
LayerCount: 2
Fore
SplineSet
35 588 m 1
 331 588 l 1
 331 540 l 1
 35 540 l 1
 35 588 l 1
EndSplineSet
EndChar

StartChar: uni207C
Encoding: 8316 8316 643
GlifName: uni207C_
Width: 366
Flags: HW
LayerCount: 2
Fore
SplineSet
35 503 m 5
 331 503 l 5
 331 455 l 5
 35 455 l 5
 35 503 l 5
35 673 m 5
 331 673 l 5
 331 625 l 5
 35 625 l 5
 35 673 l 5
EndSplineSet
EndChar

StartChar: uni207D
Encoding: 8317 8317 644
GlifName: uni207D_
Width: 179
Flags: HW
LayerCount: 2
Fore
SplineSet
164 294 m 1
 113 294 l 1
 68 345.241210938 35 439.182617188 35 564 c 0
 35 682.345703125 68 771.416015625 113 820 c 1
 164 820 l 5
 112.9375 757.055664062 88 679.197265625 88 564 c 0
 88 441.956054688 112.9375 359.83984375 164 294 c 1
EndSplineSet
EndChar

StartChar: uni207E
Encoding: 8318 8318 645
GlifName: uni207E_
Width: 179
Flags: HW
LayerCount: 2
Fore
SplineSet
15 820 m 5
 66 820 l 5
 111 768.758789062 144 674.817382812 144 550 c 4
 144 431.654296875 111 342.583984375 66 294 c 5
 15 294 l 5
 66.0625 356.944335938 91 434.802734375 91 550 c 4
 91 672.043945312 66.0625 754.16015625 15 820 c 5
EndSplineSet
EndChar

StartChar: uni207F
Encoding: 8319 8319 646
GlifName: uni207F_
Width: 420
Flags: HW
LayerCount: 2
Fore
SplineSet
315 600 m 6
 315 677 276.739257812 710 217 710 c 0
 153.727539062 710 105 666.666992188 105 606 c 5
 76 612 l 5
 76.7822265625 704.106445312 155.020507812 760 227 760 c 0
 307.12890625 760 365 707.10546875 365 610 c 6
 365 364 l 1
 315 364 l 1
 315 600 l 6
55 750 m 1
 105 750 l 1
 105 364 l 1
 55 364 l 1
 55 750 l 1
EndSplineSet
EndChar

StartChar: uni2080
Encoding: 8320 8320 647
GlifName: uni2080
Width: 385
Flags: HW
LayerCount: 2
Fore
SplineSet
35 92 m 4
 35 211 98 290 193 290 c 4
 287 290 350 211 350 92 c 4
 350 -28 287 -108 193 -108 c 4
 98 -108 35 -28 35 92 c 4
297 92 m 4
 297 186 259 240 193 240 c 4
 127 240 88 186 88 92 c 4
 88 -3 127 -58 193 -58 c 4
 259 -58 297 -3 297 92 c 4
EndSplineSet
EndChar

StartChar: uni2081
Encoding: 8321 8321 648
GlifName: uni2081
Width: 220
Flags: HW
LayerCount: 2
Fore
SplineSet
135 286 m 5
 185 286 l 5
 185 -100 l 5
 135 -100 l 5
 135 160 l 5
 25 160 l 5
 25 203 l 5
 68 203 l 6
 112 203 135 215 135 255 c 6
 135 286 l 5
EndSplineSet
EndChar

StartChar: uni2082
Encoding: 8322 8322 649
GlifName: uni2082
Width: 376
Flags: HW
LayerCount: 2
Fore
SplineSet
87 -52 m 5
 337 -52 l 1
 337 -100 l 1
 35 -100 l 1
 35 -86 l 2
 35 16 120 45 192 73 c 0
 244 93 288 114 288 161 c 0
 288 211 254 240 195 240 c 0
 132 240 91 206 88 152 c 1
 35 152 l 1
 41 234 107 290 195 290 c 0
 282 290 341 237 341 157 c 0
 341 91 276 57 212 30 c 0
 149 4 96 -16 87 -52 c 5
EndSplineSet
EndChar

StartChar: uni2083
Encoding: 8323 8323 650
GlifName: uni2083
Width: 377
Flags: HW
LayerCount: 2
Fore
SplineSet
265 115 m 5
 265 65 l 5
 162 65 l 1
 162 115 l 1
 265 115 l 5
222 75 m 1
 222 115 l 1
 258.314453125 115 279 135.287109375 279 170 c 0
 279 215.037109375 245.545898438 241 187 241 c 0
 131.958984375 241 95.8984375 214.340820312 94 172 c 1
 41 172 l 1
 46.83984375 242.615234375 105.969726562 291 187 291 c 0
 273.860351562 291 332 242.994140625 332 170 c 0
 332 113.1171875 287.875976562 75 222 75 c 1
222 105 m 1
 293.872070312 105 342 65.28125 342 6 c 0
 342 -62.5244140625 281.059570312 -108 190 -108 c 0
 104.380859375 -108 40.904296875 -62.32421875 35 4 c 1
 88 4 l 1
 90.5986328125 -33.96875 130.229492188 -58 190 -58 c 0
 252.780273438 -58 289 -34.90234375 289 6 c 0
 289 43.6298828125 264.5 65 222 65 c 1
 222 105 l 1
EndSplineSet
EndChar

StartChar: uni2084
Encoding: 8324 8324 651
GlifName: uni2084
Width: 394
Flags: HW
LayerCount: 2
Fore
SplineSet
285 -2 m 1
 285 -100 l 1
 235 -100 l 1
 235 -2 l 1
 35 -2 l 1
 35 55 l 1
 225 286 l 1
 285 286 l 1
 285 45 l 1
 359 45 l 1
 359 -2 l 1
 285 -2 l 1
235 45 m 1
 235 224 l 1
 88 45 l 1
 235 45 l 1
EndSplineSet
EndChar

StartChar: uni2085
Encoding: 8325 8325 652
GlifName: uni2085
Width: 363
Flags: HW
LayerCount: 2
Fore
SplineSet
275 29 m 0
 275 -28.6630859375 241.494140625 -58 183 -58 c 0
 126.836914062 -58 90.3896484375 -34.115234375 88 4 c 1
 35 4 l 1
 40.5849609375 -62.4189453125 99.9248046875 -108 183 -108 c 0
 269.325195312 -108 328 -56.017578125 328 30 c 0
 328 108.446289062 276.943359375 165 196 165 c 0
 150.109375 165 113.268554688 145.796875 90 116 c 1
 103 238 l 1
 309 238 l 1
 309 286 l 1
 60 286 l 1
 35 62 l 1
 84 62 l 1
 103.811523438 94.615234375 140.131835938 115 189 115 c 0
 244.43359375 115 275 81.693359375 275 29 c 0
EndSplineSet
EndChar

StartChar: uni2086
Encoding: 8326 8326 653
GlifName: uni2086
Width: 377
Flags: HW
LayerCount: 2
Fore
SplineSet
35 87 m 0
 35 215.017578125 95.681640625 290 200 290 c 0
 270.741210938 290 321.755859375 249.459960938 334 183 c 1
 281 183 l 1
 273.125 219.97265625 245 240 200 240 c 0
 124.741210938 240 88 191.364257812 88 92 c 0
 88 82.8232421875 89 74.412109375 90 66 c 1
 108.827148438 115.323242188 153.76953125 146 206 146 c 0
 285.1640625 146 342 92.7421875 342 19 c 0
 342 -54.7421875 285.1640625 -108 206 -108 c 0
 101.731445312 -108 35 -32.328125 35 87 c 0
110 19 m 0
 110 -24.494140625 149.665039062 -57 202 -57 c 0
 254.658203125 -57 289 -26.783203125 289 19 c 0
 289 64.783203125 254.658203125 95 202 95 c 0
 146.91015625 95 110 64.3251953125 110 19 c 0
EndSplineSet
EndChar

StartChar: uni2087
Encoding: 8327 8327 654
GlifName: uni2087
Width: 386
Flags: HW
LayerCount: 2
Fore
SplineSet
178 -100 m 5
 191.01171875 33.4462890625 256.150390625 139.3515625 351 228 c 5
 351 286 l 5
 35 286 l 5
 35 238 l 5
 300 238 l 5
 217.374023438 155.46484375 145.809570312 62.5810546875 124 -100 c 5
 178 -100 l 5
EndSplineSet
EndChar

StartChar: uni2088
Encoding: 8328 8328 655
GlifName: uni2088
Width: 377
Flags: HW
LayerCount: 2
Fore
SplineSet
191 290 m 1
 191 240 l 1
 131.750976562 240 98 216.047851562 98 174 c 0
 98 137.19140625 130.883789062 116 188 116 c 1
 188 76 l 1
 102.104492188 76 45 117.130859375 45 179 c 0
 45 245.657226562 103.32421875 290 191 290 c 1
191 -58 m 1
 191 -108 l 1
 97.0654296875 -108 35 -65.8271484375 35 -2 c 0
 35 62.8740234375 96.0947265625 106 188 106 c 1
 188 66 l 1
 124.501953125 66 88 42.638671875 88 2 c 0
 88 -36.1943359375 125.432617188 -58 191 -58 c 1
205 116 m 1
 205 66 l 1
 178 66 l 1
 178 116 l 1
 205 116 l 1
191 290 m 1
 275.818359375 290 332 245.771484375 332 179 c 0
 332 117.130859375 277.291992188 76 195 76 c 1
 195 116 l 1
 248.30859375 116 279 137.19140625 279 174 c 0
 279 216.1328125 247.177734375 240 191 240 c 1
 191 290 l 1
191 -58 m 1
 253.190429688 -58 289 -36.076171875 289 2 c 0
 289 42.638671875 254.6875 66 195 66 c 1
 195 106 l 1
 283.30078125 106 342 62.8740234375 342 -2 c 0
 342 -65.92578125 282.064453125 -108 191 -108 c 1
 191 -58 l 1
EndSplineSet
EndChar

StartChar: uni2089
Encoding: 8329 8329 656
GlifName: uni2089
Width: 377
Flags: HW
LayerCount: 2
Fore
SplineSet
342 75 m 0
 342 -40.4052734375 281.318359375 -108 177 -108 c 0
 102.563476562 -108 48.8828125 -69.3544921875 36 -6 c 1
 89 -6 l 1
 97.5556640625 -39.7294921875 128.111328125 -58 177 -58 c 0
 253.603515625 -58 291 -12.650390625 291 80 c 0
 291 89.1767578125 290 97.587890625 289 106 c 1
 270.172851562 57.29296875 225.23046875 27 173 27 c 0
 92.671875 27 35 81.935546875 35 158 c 0
 35 234.645507812 94.7607421875 290 178 290 c 0
 278 290 342 206.567382812 342 75 c 0
270 157 m 0
 270 203.35546875 230.334960938 238 178 238 c 0
 125.341796875 238 91 205.794921875 91 157 c 0
 91 108.807617188 125.341796875 77 178 77 c 0
 233.08984375 77 270 109.2890625 270 157 c 0
EndSplineSet
EndChar

StartChar: uni208A
Encoding: 8330 8330 657
GlifName: uni208A_
Width: 366
Flags: HW
LayerCount: 2
Fore
SplineSet
207 124 m 5
 331 124 l 5
 331 76 l 5
 207 76 l 5
 207 -48 l 1
 159 -48 l 1
 159 76 l 5
 35 76 l 5
 35 124 l 5
 159 124 l 5
 159 248 l 1
 207 248 l 1
 207 124 l 5
EndSplineSet
EndChar

StartChar: uni208B
Encoding: 8331 8331 658
GlifName: uni208B_
Width: 366
Flags: HW
LayerCount: 2
Fore
SplineSet
35 124 m 1
 331 124 l 1
 331 76 l 1
 35 76 l 1
 35 124 l 1
EndSplineSet
EndChar

StartChar: uni208C
Encoding: 8332 8332 659
GlifName: uni208C_
Width: 366
Flags: HW
LayerCount: 2
Fore
SplineSet
35 39 m 5
 331 39 l 5
 331 -9 l 5
 35 -9 l 5
 35 39 l 5
35 209 m 5
 331 209 l 5
 331 161 l 5
 35 161 l 5
 35 209 l 5
EndSplineSet
EndChar

StartChar: uni208D
Encoding: 8333 8333 660
GlifName: uni208D_
Width: 179
Flags: HW
LayerCount: 2
Fore
SplineSet
164 -170 m 1
 113 -170 l 1
 68 -118.758789062 35 -24.8173828125 35 100 c 0
 35 218.345703125 68 307.416015625 113 356 c 1
 164 356 l 5
 112.9375 293.055664062 88 215.197265625 88 100 c 0
 88 -22.0439453125 112.9375 -104.16015625 164 -170 c 1
EndSplineSet
EndChar

StartChar: uni208E
Encoding: 8334 8334 661
GlifName: uni208E_
Width: 179
Flags: HW
LayerCount: 2
Fore
SplineSet
15 356 m 5
 66 356 l 5
 111 304.758789062 144 210.817382812 144 86 c 4
 144 -32.345703125 111 -121.416015625 66 -170 c 5
 15 -170 l 5
 66.0625 -107.055664062 91 -29.197265625 91 86 c 4
 91 208.043945312 66.0625 290.16015625 15 356 c 5
EndSplineSet
EndChar

StartChar: uni2099
Encoding: 8345 8345 662
GlifName: uni2099
Width: 420
Flags: HW
LayerCount: 2
Fore
SplineSet
315 136 m 2
 315 213 276.739257812 246 217 246 c 0
 153.727539062 246 105 202.666992188 105 142 c 1
 76 148 l 1
 76.7822265625 240.106445312 155.020507812 296 227 296 c 0
 307.12890625 296 365 243.10546875 365 146 c 2
 365 -100 l 1
 315 -100 l 1
 315 136 l 2
55 286 m 1
 105 286 l 1
 105 -100 l 1
 55 -100 l 1
 55 286 l 1
EndSplineSet
EndChar

StartChar: uni2460
Encoding: 9312 9312 663
GlifName: uni2460
Width: 825
Flags: HW
LayerCount: 2
Fore
SplineSet
407.125976562 3 m 0
 597.570851752 3 727 133.844546794 727 326.372070312 c 0
 727 516.85316594 600.457186077 645 412.360351562 645 c 0
 223.499235974 645 98 515.791985871 98 321.349609375 c 0
 98 129.258998949 220.600861444 3 407.125976562 3 c 0
780 325.092773438 m 0
 780 102.314307976 628.786921755 -50 407.619140625 -50 c 0
 190.06303107 -50 45 95.933826488 45 314.795898438 c 0
 45 540.598154997 196.770451347 698 414.494140625 698 c 0
 630.307289558 698 780 545.276063965 780 325.092773438 c 0
412.5 518 m 5
 462.5 518 l 5
 462.5 132 l 5
 412.5 132 l 5
 412.5 392 l 5
 302.5 392 l 5
 302.5 435 l 5
 346.5 435 l 6
 390.5 435 412.5 447 412.5 487 c 6
 412.5 518 l 5
EndSplineSet
EndChar

StartChar: uni2461
Encoding: 9313 9313 664
GlifName: uni2461
Width: 825
Flags: HW
LayerCount: 2
Fore
SplineSet
407.125976562 3 m 4
 597.570851752 3 727 133.844546794 727 326.372070312 c 4
 727 516.85316594 600.457186077 645 412.360351562 645 c 4
 223.499235974 645 98 515.791985871 98 321.349609375 c 4
 98 129.258998949 220.600861444 3 407.125976562 3 c 4
780 325.092773438 m 4
 780 102.314307976 628.786921755 -50 407.619140625 -50 c 4
 190.06303107 -50 45 95.933826488 45 314.795898438 c 4
 45 540.598154997 196.770451347 698 414.494140625 698 c 4
 630.307289558 698 780 545.276063965 780 325.092773438 c 4
311.5 180 m 1
 561.5 180 l 1
 561.5 132 l 1
 259.5 132 l 1
 259.5 146 l 2
 259.5 248 343.5 277 415.5 305 c 0
 467.5 325 511.5 346 511.5 393 c 0
 511.5 443 478.5 472 419.5 472 c 0
 356.5 472 314.5 438 311.5 384 c 1
 259.5 384 l 1
 265.5 466 331.5 522 419.5 522 c 0
 506.5 522 565.5 469 565.5 389 c 0
 565.5 323 499.5 289 435.5 262 c 0
 372.5 236 320.5 216 311.5 180 c 1
EndSplineSet
EndChar

StartChar: uni2462
Encoding: 9314 9314 665
GlifName: uni2462
Width: 825
Flags: HW
LayerCount: 2
Fore
SplineSet
780 325.092773438 m 0
 780 102.314307976 628.786921755 -50 407.619140625 -50 c 0
 190.06303107 -50 45 95.933826488 45 314.795898438 c 0
 45 540.598154997 196.770451347 698 414.494140625 698 c 0
 630.307289558 698 780 545.276063965 780 325.092773438 c 0
407.125976562 3 m 0
 597.570851752 3 727 133.844546794 727 326.372070312 c 0
 727 516.85316594 600.457186077 645 412.360351562 645 c 0
 223.499235974 645 98 515.791985871 98 321.349609375 c 0
 98 129.258998949 220.600861444 3 407.125976562 3 c 0
511.808423296 323.172415766 m 1
 545.742853794 306.638317001 566 276.328385354 566 238 c 0
 566 169 505 124 414 124 c 0
 328 124 265 170 259 236 c 1
 312 236 l 1
 315 198 354 174 414 174 c 0
 477 174 513 197 513 238 c 0
 513 276 488 297 446 297 c 2
 386 297 l 1
 386 347 l 1
 446 347 l 2
 482 347 503 367 503 402 c 0
 503 447 470 473 411 473 c 0
 356 473 320 446 318 404 c 1
 265 404 l 1
 271 475 330 523 411 523 c 0
 498 523 556 475 556 402 c 0
 556 367.201627265 539.60086895 339.484697483 511.808423296 323.172415766 c 1
EndSplineSet
EndChar

StartChar: uni2463
Encoding: 9315 9315 666
GlifName: uni2463
Width: 825
Flags: HW
LayerCount: 2
Fore
SplineSet
407.125976562 3 m 4
 597.570851752 3 727 133.844546794 727 326.372070312 c 4
 727 516.85316594 600.457186077 645 412.360351562 645 c 4
 223.499235974 645 98 515.791985871 98 321.349609375 c 4
 98 129.258998949 220.600861444 3 407.125976562 3 c 4
780 325.092773438 m 4
 780 102.314307976 628.786921755 -50 407.619140625 -50 c 4
 190.06303107 -50 45 95.933826488 45 314.795898438 c 4
 45 540.598154997 196.770451347 698 414.494140625 698 c 4
 630.307289558 698 780 545.276063965 780 325.092773438 c 4
500.5 230 m 1
 500.5 132 l 1
 450.5 132 l 1
 450.5 230 l 1
 250.5 230 l 1
 250.5 287 l 1
 440.5 518 l 1
 500.5 518 l 1
 500.5 277 l 1
 574.5 277 l 1
 574.5 230 l 1
 500.5 230 l 1
450.5 277 m 1
 450.5 456 l 1
 304.5 277 l 1
 450.5 277 l 1
EndSplineSet
EndChar

StartChar: uni2464
Encoding: 9316 9316 667
GlifName: uni2464
Width: 825
Flags: HW
LayerCount: 2
Fore
SplineSet
407.125976562 3 m 4
 597.570851752 3 727 133.844546794 727 326.372070312 c 4
 727 516.85316594 600.457186077 645 412.360351562 645 c 4
 223.499235974 645 98 515.791985871 98 321.349609375 c 4
 98 129.258998949 220.600861444 3 407.125976562 3 c 4
780 325.092773438 m 4
 780 102.314307976 628.786921755 -50 407.619140625 -50 c 4
 190.06303107 -50 45 95.933826488 45 314.795898438 c 4
 45 540.598154997 196.770451347 698 414.494140625 698 c 4
 630.307289558 698 780 545.276063965 780 325.092773438 c 4
506 261 m 0
 506 203 472 174 414 174 c 0
 358 174 321 198 319 236 c 1
 266 236 l 1
 272 170 331 124 414 124 c 0
 500 124 559 176 559 262 c 0
 559 340 508 397 427 397 c 0
 381 397 344 378 321 348 c 1
 334 470 l 1
 540 470 l 1
 540 518 l 1
 291 518 l 1
 266 294 l 1
 315 294 l 1
 335 327 371 347 420 347 c 0
 475 347 506 314 506 261 c 0
EndSplineSet
EndChar

StartChar: uni2465
Encoding: 9317 9317 668
GlifName: uni2465
Width: 825
Flags: HW
LayerCount: 2
Fore
SplineSet
407.125976562 3 m 4
 597.570851752 3 727 133.844546794 727 326.372070312 c 4
 727 516.85316594 600.457186077 645 412.360351562 645 c 4
 223.499235974 645 98 515.791985871 98 321.349609375 c 4
 98 129.258998949 220.600861444 3 407.125976562 3 c 4
780 325.092773438 m 4
 780 102.314307976 628.786921755 -50 407.619140625 -50 c 4
 190.06303107 -50 45 95.933826488 45 314.795898438 c 4
 45 540.598154997 196.770451347 698 414.494140625 698 c 4
 630.307289558 698 780 545.276063965 780 325.092773438 c 4
259 319 m 0
 259 447 320 522 424 522 c 0
 495 522 546 481 558 415 c 1
 505 415 l 1
 497 452 469 472 424 472 c 0
 349 472 312 423 312 324 c 0
 312 315 313 306 314 298 c 1
 333 347 378 378 430 378 c 0
 509 378 566 325 566 251 c 0
 566 177 509 124 430 124 c 0
 326 124 259 200 259 319 c 0
334 251 m 0
 334 208 374 175 426 175 c 0
 479 175 513 205 513 251 c 0
 513 297 479 327 426 327 c 0
 371 327 334 296 334 251 c 0
EndSplineSet
EndChar

StartChar: uni2466
Encoding: 9318 9318 669
GlifName: uni2466
Width: 825
Flags: HW
LayerCount: 2
Fore
SplineSet
407.125976562 3 m 4
 597.570851752 3 727 133.844546794 727 326.372070312 c 4
 727 516.85316594 600.457186077 645 412.360351562 645 c 4
 223.499235974 645 98 515.791985871 98 321.349609375 c 4
 98 129.258998949 220.600861444 3 407.125976562 3 c 4
780 325.092773438 m 4
 780 102.314307976 628.786921755 -50 407.619140625 -50 c 4
 190.06303107 -50 45 95.933826488 45 314.795898438 c 4
 45 540.598154997 196.770451347 698 414.494140625 698 c 4
 630.307289558 698 780 545.276063965 780 325.092773438 c 4
398.5 132 m 1
 411.5 265 475.5 371 570.5 460 c 1
 570.5 518 l 1
 254.5 518 l 1
 254.5 470 l 1
 520.5 470 l 1
 437.5 387 366.5 295 344.5 132 c 1
 398.5 132 l 1
EndSplineSet
EndChar

StartChar: uni2467
Encoding: 9319 9319 670
GlifName: uni2467
Width: 825
Flags: HW
LayerCount: 2
Fore
SplineSet
780 325.092773438 m 0
 780 102.314307976 628.786921755 -50 407.619140625 -50 c 0
 190.06303107 -50 45 95.933826488 45 314.795898438 c 0
 45 540.598154997 196.770451347 698 414.494140625 698 c 0
 630.307289558 698 780 545.276063965 780 325.092773438 c 0
407.125976562 3 m 0
 597.570851752 3 727 133.844546794 727 326.372070312 c 0
 727 516.85316594 600.457186077 645 412.360351562 645 c 0
 223.499235974 645 98 515.791985871 98 321.349609375 c 0
 98 129.258998949 220.600861444 3 407.125976562 3 c 0
329.869550824 323.825200412 m 1
 291.623681272 341.214382191 269 371.939670861 269 411 c 0
 269 478 327 522 415 522 c 0
 500 522 556 478 556 411 c 0
 556 371.97670867 534.211511539 341.272658388 497.616129608 323.87470272 c 1
 540.336627364 306.168777174 566 272.86908518 566 230 c 0
 566 166 506 124 415 124 c 0
 321 124 259 166 259 230 c 0
 259 272.829166718 285.483926349 306.10675344 329.869550824 323.825200412 c 1
412 348 m 2
 419 348 l 2
 472 348 503 369 503 406 c 0
 503 448 471 472 415 472 c 0
 356 472 322 448 322 406 c 0
 322 369 355 348 412 348 c 2
412 298 m 2
 349 298 312 275 312 234 c 0
 312 196 349 174 415 174 c 0
 477 174 513 196 513 234 c 0
 513 275 479 298 419 298 c 2
 412 298 l 2
EndSplineSet
EndChar

StartChar: uni2468
Encoding: 9320 9320 671
GlifName: uni2468
Width: 825
Flags: HW
LayerCount: 2
Fore
SplineSet
407.125976562 3 m 4
 597.570851752 3 727 133.844546794 727 326.372070312 c 4
 727 516.85316594 600.457186077 645 412.360351562 645 c 4
 223.499235974 645 98 515.791985871 98 321.349609375 c 4
 98 129.258998949 220.600861444 3 407.125976562 3 c 4
780 325.092773438 m 4
 780 102.314307976 628.786921755 -50 407.619140625 -50 c 4
 190.06303107 -50 45 95.933826488 45 314.795898438 c 4
 45 540.598154997 196.770451347 698 414.494140625 698 c 4
 630.307289558 698 780 545.276063965 780 325.092773438 c 4
566 307 m 0
 566 192 505 124 401 124 c 0
 327 124 273 163 260 226 c 1
 313 226 l 1
 322 192 352 174 401 174 c 0
 478 174 515 219 515 312 c 0
 515 321 514 330 513 338 c 1
 494 289 449 259 397 259 c 0
 317 259 259 314 259 390 c 0
 259 467 319 522 402 522 c 0
 502 522 566 439 566 307 c 0
494 389 m 0
 494 435 454 470 402 470 c 0
 349 470 315 438 315 389 c 0
 315 341 349 309 402 309 c 0
 457 309 494 341 494 389 c 0
EndSplineSet
EndChar

StartChar: uni24EA
Encoding: 9450 9450 672
GlifName: uni24E_A_
Width: 825
Flags: HW
LayerCount: 2
Fore
SplineSet
407.125976562 3 m 0
 597.570851752 3 727 133.844546794 727 326.372070312 c 0
 727 516.85316594 600.457186077 645 412.360351562 645 c 0
 223.499235974 645 98 515.791985871 98 321.349609375 c 0
 98 129.258998949 220.600861444 3 407.125976562 3 c 0
780 325.092773438 m 0
 780 102.314307976 628.786921755 -50 407.619140625 -50 c 0
 190.06303107 -50 45 95.933826488 45 314.795898438 c 0
 45 540.598154997 196.770451347 698 414.494140625 698 c 0
 630.307289558 698 780 545.276063965 780 325.092773438 c 0
255 324 m 0
 255 443 318 522 413 522 c 0
 507 522 570 443 570 324 c 0
 570 204 507 124 413 124 c 0
 318 124 255 204 255 324 c 0
517 324 m 0
 517 418 479 472 413 472 c 0
 347 472 308 418 308 324 c 0
 308 229 347 174 413 174 c 0
 479 174 517 229 517 324 c 0
EndSplineSet
EndChar

StartChar: uni24FF
Encoding: 9471 9471 673
GlifName: uni24F_F_
Width: 825
Flags: HW
LayerCount: 2
Fore
SplineSet
780 325.092773438 m 0
 780 102.314307976 628.786921755 -50 407.619140625 -50 c 0
 190.06303107 -50 45 95.933826488 45 314.795898438 c 0
 45 540.598154997 196.770451347 698 414.494140625 698 c 0
 630.307289558 698 780 545.276063965 780 325.092773438 c 0
255 324 m 0
 255 204 318 124 413 124 c 0
 507 124 570 204 570 324 c 0
 570 443 507 522 413 522 c 0
 318 522 255 443 255 324 c 0
517 324 m 0
 517 229 479 174 413 174 c 0
 347 174 308 229 308 324 c 0
 308 418 347 472 413 472 c 0
 479 472 517 418 517 324 c 0
EndSplineSet
EndChar

StartChar: uni2776
Encoding: 10102 10102 674
GlifName: uni2776
Width: 825
Flags: HW
LayerCount: 2
Fore
SplineSet
780 325.092773438 m 0
 780 102.314307976 628.786921755 -50 407.619140625 -50 c 0
 190.06303107 -50 45 95.933826488 45 314.795898438 c 0
 45 540.598154997 196.770451347 698 414.494140625 698 c 0
 630.307289558 698 780 545.276063965 780 325.092773438 c 0
412.5 518 m 1
 412.5 487 l 2
 412.5 447 390.5 435 346.5 435 c 2
 302.5 435 l 1
 302.5 392 l 1
 412.5 392 l 1
 412.5 132 l 1
 462.5 132 l 1
 462.5 518 l 1
 412.5 518 l 1
EndSplineSet
EndChar

StartChar: uni2777
Encoding: 10103 10103 675
GlifName: uni2777
Width: 825
Flags: HW
LayerCount: 2
Fore
SplineSet
780 325.092773438 m 0
 780 102.314307976 628.786921755 -50 407.619140625 -50 c 0
 190.06303107 -50 45 95.933826488 45 314.795898438 c 0
 45 540.598154997 196.770451347 698 414.494140625 698 c 0
 630.307289558 698 780 545.276063965 780 325.092773438 c 0
311.5 180 m 1
 320.5 216 372.5 236 435.5 262 c 0
 499.5 289 565.5 323 565.5 389 c 0
 565.5 469 506.5 522 419.5 522 c 0
 331.5 522 265.5 466 259.5 384 c 1
 311.5 384 l 1
 314.5 438 356.5 472 419.5 472 c 0
 478.5 472 511.5 443 511.5 393 c 0
 511.5 346 467.5 325 415.5 305 c 0
 343.5 277 259.5 248 259.5 146 c 2
 259.5 132 l 1
 561.5 132 l 1
 561.5 180 l 1
 311.5 180 l 1
EndSplineSet
EndChar

StartChar: uni2778
Encoding: 10104 10104 676
GlifName: uni2778
Width: 825
Flags: HW
LayerCount: 2
Fore
SplineSet
780 325.092773438 m 0
 780 102.314307976 628.786921755 -50 407.619140625 -50 c 0
 190.06303107 -50 45 95.933826488 45 314.795898438 c 0
 45 540.598154997 196.770451347 698 414.494140625 698 c 0
 630.307289558 698 780 545.276063965 780 325.092773438 c 0
511.808423296 323.172415766 m 1
 539.60086895 339.484697483 556 367.201627265 556 402 c 0
 556 475 498 523 411 523 c 0
 330 523 271 475 265 404 c 1
 318 404 l 1
 320 446 356 473 411 473 c 0
 470 473 503 447 503 402 c 0
 503 367 482 347 446 347 c 2
 386 347 l 1
 386 297 l 1
 446 297 l 2
 488 297 513 276 513 238 c 0
 513 197 477 174 414 174 c 0
 354 174 315 198 312 236 c 1
 259 236 l 1
 265 170 328 124 414 124 c 0
 505 124 566 169 566 238 c 0
 566 276.328385354 545.742853794 306.638317001 511.808423296 323.172415766 c 1
EndSplineSet
EndChar

StartChar: uni2779
Encoding: 10105 10105 677
GlifName: uni2779
Width: 825
Flags: HW
LayerCount: 2
Fore
SplineSet
780 325.092773438 m 0
 780 102.314307976 628.786921755 -50 407.619140625 -50 c 0
 190.06303107 -50 45 95.933826488 45 314.795898438 c 0
 45 540.598154997 196.770451347 698 414.494140625 698 c 0
 630.307289558 698 780 545.276063965 780 325.092773438 c 0
500.5 230 m 1
 574.5 230 l 1
 574.5 277 l 1
 500.5 277 l 1
 500.5 518 l 1
 440.5 518 l 1
 250.5 287 l 1
 250.5 230 l 1
 450.5 230 l 1
 450.5 132 l 1
 500.5 132 l 1
 500.5 230 l 1
450.5 277 m 1
 304.5 277 l 1
 450.5 456 l 1
 450.5 277 l 1
EndSplineSet
EndChar

StartChar: uni277A
Encoding: 10106 10106 678
GlifName: uni277A_
Width: 825
Flags: HW
LayerCount: 2
Fore
SplineSet
780 325.092773438 m 0
 780 102.314307976 628.786921755 -50 407.619140625 -50 c 0
 190.06303107 -50 45 95.933826488 45 314.795898438 c 0
 45 540.598154997 196.770451347 698 414.494140625 698 c 0
 630.307289558 698 780 545.276063965 780 325.092773438 c 0
506 261 m 0
 506 203 472 174 414 174 c 0
 358 174 321 198 319 236 c 1
 266 236 l 1
 272 170 331 124 414 124 c 0
 500 124 559 176 559 262 c 0
 559 340 508 397 427 397 c 0
 381 397 344 378 321 348 c 1
 334 470 l 1
 540 470 l 1
 540 518 l 1
 291 518 l 1
 266 294 l 1
 315 294 l 1
 335 327 371 347 420 347 c 0
 475 347 506 314 506 261 c 0
EndSplineSet
EndChar

StartChar: uni277B
Encoding: 10107 10107 679
GlifName: uni277B_
Width: 825
Flags: HW
LayerCount: 2
Fore
SplineSet
780 325.092773438 m 0
 780 102.314307976 628.786921755 -50 407.619140625 -50 c 0
 190.06303107 -50 45 95.933826488 45 314.795898438 c 0
 45 540.598154997 196.770451347 698 414.494140625 698 c 0
 630.307289558 698 780 545.276063965 780 325.092773438 c 0
259 319 m 0
 259 200 326 124 430 124 c 0
 509 124 566 177 566 251 c 0
 566 325 509 378 430 378 c 0
 378 378 333 347 314 298 c 1
 313 306 312 315 312 324 c 0
 312 423 349 472 424 472 c 0
 469 472 497 452 505 415 c 1
 558 415 l 1
 546 481 495 522 424 522 c 0
 320 522 259 447 259 319 c 0
334 251 m 0
 334 296 371 327 426 327 c 0
 479 327 513 297 513 251 c 0
 513 205 479 175 426 175 c 0
 374 175 334 208 334 251 c 0
EndSplineSet
EndChar

StartChar: uni277C
Encoding: 10108 10108 680
GlifName: uni277C_
Width: 825
Flags: HW
LayerCount: 2
Fore
SplineSet
780 325.092773438 m 0
 780 102.314307976 628.786921755 -50 407.619140625 -50 c 0
 190.06303107 -50 45 95.933826488 45 314.795898438 c 0
 45 540.598154997 196.770451347 698 414.494140625 698 c 0
 630.307289558 698 780 545.276063965 780 325.092773438 c 0
398.5 132 m 1
 411.5 265 475.5 371 570.5 460 c 1
 570.5 518 l 1
 254.5 518 l 1
 254.5 470 l 1
 520.5 470 l 1
 437.5 387 366.5 295 344.5 132 c 1
 398.5 132 l 1
EndSplineSet
EndChar

StartChar: uni277D
Encoding: 10109 10109 681
GlifName: uni277D_
Width: 825
Flags: HW
LayerCount: 2
Fore
SplineSet
780 325.092773438 m 0
 780 102.314307976 628.786921755 -50 407.619140625 -50 c 0
 190.06303107 -50 45 95.933826488 45 314.795898438 c 0
 45 540.598154997 196.770451347 698 414.494140625 698 c 0
 630.307289558 698 780 545.276063965 780 325.092773438 c 0
497.616129608 323.87470272 m 1
 534.211511539 341.272658388 556 371.97670867 556 411 c 0
 556 478 500 522 415 522 c 0
 327 522 269 478 269 411 c 0
 269 371.939670861 291.623681272 341.214382191 329.869550824 323.825200412 c 1
 285.483926349 306.10675344 259 272.829166718 259 230 c 0
 259 166 321 124 415 124 c 0
 506 124 566 166 566 230 c 0
 566 272.86908518 540.336627364 306.168777174 497.616129608 323.87470272 c 1
419 348 m 2
 412 348 l 2
 355 348 322 369 322 406 c 0
 322 448 356 472 415 472 c 0
 471 472 503 448 503 406 c 0
 503 369 472 348 419 348 c 2
419 298 m 2
 479 298 513 275 513 234 c 0
 513 196 477 174 415 174 c 0
 349 174 312 196 312 234 c 0
 312 275 349 298 412 298 c 2
 419 298 l 2
EndSplineSet
EndChar

StartChar: uni277E
Encoding: 10110 10110 682
GlifName: uni277E_
Width: 825
Flags: HW
LayerCount: 2
Fore
SplineSet
780 325.092773438 m 0
 780 102.314307976 628.786921755 -50 407.619140625 -50 c 0
 190.06303107 -50 45 95.933826488 45 314.795898438 c 0
 45 540.598154997 196.770451347 698 414.494140625 698 c 0
 630.307289558 698 780 545.276063965 780 325.092773438 c 0
566 307 m 0
 566 439 502 522 402 522 c 0
 319 522 259 467 259 390 c 0
 259 314 317 259 397 259 c 0
 449 259 494 289 513 338 c 1
 514 330 515 321 515 312 c 0
 515 219 478 174 401 174 c 0
 352 174 322 192 313 226 c 1
 260 226 l 1
 273 163 327 124 401 124 c 0
 505 124 566 192 566 307 c 0
494 389 m 0
 494 341 457 309 402 309 c 0
 349 309 315 341 315 389 c 0
 315 438 349 470 402 470 c 0
 454 470 494 435 494 389 c 0
EndSplineSet
EndChar

StartChar: filledbox
Encoding: 9632 9632 683
GlifName: filledbox
Width: 825
Flags: HW
LayerCount: 2
Fore
SplineSet
780 -40 m 5
 45 -40 l 5
 45 690 l 1
 780 690 l 1
 780 -40 l 5
EndSplineSet
EndChar

StartChar: H22073
Encoding: 9633 9633 684
GlifName: H_22073
Width: 825
Flags: HW
LayerCount: 2
Fore
SplineSet
730 10 m 1
 730 640 l 1
 95 640 l 1
 95 10 l 1
 730 10 l 1
780 -40 m 1
 45 -40 l 1
 45 690 l 1
 780 690 l 1
 780 -40 l 1
EndSplineSet
EndChar

StartChar: triagup
Encoding: 9650 9650 685
GlifName: triagup
Width: 825
Flags: HW
LayerCount: 2
Fore
SplineSet
780 -40 m 1
 45 -40 l 1
 412 690 l 1
 780 -40 l 1
EndSplineSet
EndChar

StartChar: uni25B3
Encoding: 9651 9651 686
GlifName: uni25B_3
Width: 825
Flags: HW
LayerCount: 2
Fore
SplineSet
700 10 m 1
 412 580 l 1
 125 10 l 1
 700 10 l 1
780 -40 m 1
 45 -40 l 1
 412 690 l 1
 780 -40 l 1
EndSplineSet
EndChar

StartChar: uni25B6
Encoding: 9654 9654 687
GlifName: uni25B_6
Width: 825
Flags: HW
LayerCount: 2
Fore
SplineSet
47.5 -42.5 m 1
 47.5 692.5 l 1
 777.5 325.5 l 1
 47.5 -42.5 l 1
EndSplineSet
EndChar

StartChar: uni25B7
Encoding: 9655 9655 688
GlifName: uni25B_7
Width: 825
Flags: HW
LayerCount: 2
Fore
SplineSet
97.5 37.5 m 1
 667.5 325.5 l 5
 97.5 612.5 l 1
 97.5 37.5 l 1
47.5 -42.5 m 1
 47.5 692.5 l 1
 777.5 325.5 l 1
 47.5 -42.5 l 1
EndSplineSet
EndChar

StartChar: triagdn
Encoding: 9660 9660 689
GlifName: triagdn
Width: 825
Flags: HW
LayerCount: 2
Fore
SplineSet
45 690 m 1
 780 690 l 1
 413 -40 l 1
 45 690 l 1
EndSplineSet
EndChar

StartChar: uni25BD
Encoding: 9661 9661 690
GlifName: uni25B_D_
Width: 825
Flags: HW
LayerCount: 2
Fore
SplineSet
125 640 m 1
 413 70 l 5
 700 640 l 1
 125 640 l 1
45 690 m 1
 780 690 l 1
 413 -40 l 1
 45 690 l 1
EndSplineSet
EndChar

StartChar: uni25C0
Encoding: 9664 9664 691
GlifName: uni25C_0
Width: 825
Flags: HW
LayerCount: 2
Fore
SplineSet
777.5 692.5 m 1
 777.5 -42.5 l 1
 47.5 324.5 l 1
 777.5 692.5 l 1
EndSplineSet
EndChar

StartChar: uni25C1
Encoding: 9665 9665 692
GlifName: uni25C_1
Width: 825
Flags: HW
LayerCount: 2
Fore
SplineSet
727.5 612.5 m 1
 157.5 324.5 l 5
 727.5 37.5 l 1
 727.5 612.5 l 1
777.5 692.5 m 1
 777.5 -42.5 l 1
 47.5 324.5 l 1
 777.5 692.5 l 1
EndSplineSet
EndChar

StartChar: uni25C6
Encoding: 9670 9670 693
GlifName: uni25C_6
Width: 825
Flags: HW
LayerCount: 2
Fore
SplineSet
780 325 m 1
 408 -50 l 1
 45 315 l 1
 414 698 l 1
 780 325 l 1
EndSplineSet
EndChar

StartChar: uni25C7
Encoding: 9671 9671 694
GlifName: uni25C_7
Width: 825
Flags: HW
LayerCount: 2
Fore
SplineSet
780 325 m 1
 408 -50 l 1
 45 315 l 1
 414 698 l 1
 780 325 l 1
406 26 m 1
 705 327 l 1
 414 622 l 1
 121 320 l 1
 406 26 l 1
EndSplineSet
EndChar

StartChar: lozenge
Encoding: 9674 9674 695
GlifName: lozenge
Width: 605
Flags: HW
LayerCount: 2
Fore
SplineSet
296 16 m 5
 500 328 l 1
 304 632 l 1
 104 321 l 1
 296 16 l 5
560 329 m 1
 318 -50 l 1
 278 -50 l 1
 45 319 l 1
 284 698 l 1
 324 698 l 1
 560 329 l 1
EndSplineSet
EndChar

StartChar: circle
Encoding: 9675 9675 696
GlifName: circle
Width: 825
Flags: HW
LayerCount: 2
Fore
SplineSet
407.125976562 3 m 4
 597.570851752 3 727 133.844546794 727 326.372070312 c 4
 727 516.85316594 600.457186077 645 412.360351562 645 c 4
 223.499235974 645 98 515.791985871 98 321.349609375 c 4
 98 129.258998949 220.600861444 3 407.125976562 3 c 4
780 325.092773438 m 4
 780 102.314307976 628.786921755 -50 407.619140625 -50 c 4
 190.06303107 -50 45 95.933826488 45 314.795898438 c 4
 45 540.598154997 196.770451347 698 414.494140625 698 c 4
 630.307289558 698 780 545.276063965 780 325.092773438 c 4
EndSplineSet
EndChar

StartChar: H18533
Encoding: 9679 9679 697
GlifName: H_18533
Width: 825
Flags: HW
LayerCount: 2
Fore
SplineSet
780 325.092773438 m 0
 780 102.314307976 628.786921755 -50 407.619140625 -50 c 0
 190.06303107 -50 45 95.933826488 45 314.795898438 c 0
 45 540.598154997 196.770451347 698 414.494140625 698 c 0
 630.307289558 698 780 545.276063965 780 325.092773438 c 0
EndSplineSet
EndChar

StartChar: uni25D0
Encoding: 9680 9680 698
GlifName: uni25D_0
Width: 825
Flags: HW
LayerCount: 2
Fore
SplineSet
407.125976562 3 m 5
 597.570851752 3 727 133.844546794 727 326.372070312 c 0
 727 516.85316594 600.457186077 645 412.360351562 645 c 5
 407.125976562 3 l 5
780 325.092773438 m 0
 780 102.314307976 628.786921755 -50 407.619140625 -50 c 0
 190.06303107 -50 45 95.933826488 45 314.795898438 c 0
 45 540.598154997 196.770451347 698 414.494140625 698 c 0
 630.307289558 698 780 545.276063965 780 325.092773438 c 0
EndSplineSet
EndChar

StartChar: uni25D1
Encoding: 9681 9681 699
GlifName: uni25D_1
Width: 825
Flags: HW
LayerCount: 2
Fore
SplineSet
417.874023438 645 m 5
 227.428710938 645 98 514.155273438 98 321.627929688 c 0
 98 131.146484375 224.54296875 3 412.639648438 3 c 5
 417.874023438 645 l 5
45 322.907226562 m 0
 45 545.685546875 196.212890625 698 417.380859375 698 c 0
 634.936523438 698 780 552.06640625 780 333.204101562 c 0
 780 107.401367188 628.229492188 -50 410.505859375 -50 c 0
 194.692382812 -50 45 102.723632812 45 322.907226562 c 0
EndSplineSet
EndChar

StartChar: uni25D2
Encoding: 9682 9682 700
GlifName: uni25D_2
Width: 825
Flags: HW
LayerCount: 2
Fore
SplineSet
727 326.372070312 m 1
 727 516.85316594 600.457186077 645 412.360351562 645 c 0
 223.499235974 645 98 515.791985871 98 321.349609375 c 1
 727 326.372070312 l 1
780 325.092773438 m 0
 780 102.314307976 628.786921755 -50 407.619140625 -50 c 0
 190.06303107 -50 45 95.933826488 45 314.795898438 c 0
 45 540.598154997 196.770451347 698 414.494140625 698 c 0
 630.307289558 698 780 545.276063965 780 325.092773438 c 0
EndSplineSet
EndChar

StartChar: uni25D3
Encoding: 9683 9683 701
GlifName: uni25D_3
Width: 825
Flags: HW
LayerCount: 2
Fore
SplineSet
98 321.627929688 m 1
 98 131.146484375 224.54296875 3 412.639648438 3 c 0
 601.500976562 3 727 132.208007812 727 326.650390625 c 1
 98 321.627929688 l 1
45 322.907226562 m 0
 45 545.685546875 196.212890625 698 417.380859375 698 c 0
 634.936523438 698 780 552.06640625 780 333.204101562 c 0
 780 107.401367188 628.229492188 -50 410.505859375 -50 c 0
 194.692382812 -50 45 102.723632812 45 322.907226562 c 0
EndSplineSet
EndChar

StartChar: uni25E2
Encoding: 9698 9698 702
GlifName: uni25E_2
Width: 825
Flags: HW
LayerCount: 2
Fore
SplineSet
780 -40 m 1
 45 -40 l 5
 780 690 l 5
 780 -40 l 1
EndSplineSet
EndChar

StartChar: uni25E3
Encoding: 9699 9699 703
GlifName: uni25E_3
Width: 825
Flags: HW
LayerCount: 2
Fore
SplineSet
47.5 -42.5 m 1
 47.5 692.5 l 5
 777.5 -42.5 l 5
 47.5 -42.5 l 1
EndSplineSet
EndChar

StartChar: uni25E4
Encoding: 9700 9700 704
GlifName: uni25E_4
Width: 825
Flags: HW
LayerCount: 2
Fore
SplineSet
45 690 m 1
 780 690 l 5
 45 -40 l 5
 45 690 l 1
EndSplineSet
EndChar

StartChar: uni25E5
Encoding: 9701 9701 705
GlifName: uni25E_5
Width: 825
Flags: HW
LayerCount: 2
Fore
SplineSet
777.5 692.5 m 1
 777.5 -42.5 l 5
 47.5 692.5 l 5
 777.5 692.5 l 1
EndSplineSet
EndChar

StartChar: uni00B2
Encoding: 178 178 706
GlifName: uni00B_2
Width: 376
Flags: HW
LayerCount: 2
Fore
SplineSet
87 412 m 5
 337 412 l 1
 337 364 l 1
 35 364 l 1
 35 378 l 2
 35 480 120 509 192 537 c 0
 244 557 288 578 288 625 c 0
 288 675 254 704 195 704 c 0
 132 704 91 670 88 616 c 1
 35 616 l 1
 41 698 107 754 195 754 c 0
 282 754 341 701 341 621 c 0
 341 555 276 521 212 494 c 0
 149 468 96 448 87 412 c 5
EndSplineSet
EndChar

StartChar: uni00B3
Encoding: 179 179 707
GlifName: uni00B_3
Width: 377
Flags: HW
LayerCount: 2
Fore
SplineSet
265 579 m 5
 265 529 l 5
 162 529 l 1
 162 579 l 1
 265 579 l 5
222 539 m 1
 222 579 l 1
 258.314453125 579 279 599.287109375 279 634 c 0
 279 679.037109375 245.545898438 705 187 705 c 0
 131.958984375 705 95.8984375 678.340820312 94 636 c 1
 41 636 l 1
 46.83984375 706.615234375 105.969726562 755 187 755 c 0
 273.860351562 755 332 706.994140625 332 634 c 0
 332 577.1171875 287.875976562 539 222 539 c 1
222 569 m 1
 293.872070312 569 342 529.28125 342 470 c 0
 342 401.475585938 281.059570312 356 190 356 c 0
 104.380859375 356 40.904296875 401.67578125 35 468 c 1
 88 468 l 1
 90.5986328125 430.03125 130.229492188 406 190 406 c 0
 252.780273438 406 289 429.09765625 289 470 c 0
 289 507.629882812 264.5 529 222 529 c 1
 222 569 l 1
EndSplineSet
EndChar

StartChar: uni00B9
Encoding: 185 185 708
GlifName: uni00B_9
Width: 220
Flags: HW
LayerCount: 2
Fore
SplineSet
135 750 m 5
 185 750 l 5
 185 364 l 5
 135 364 l 5
 135 624 l 5
 25 624 l 5
 25 667 l 5
 68 667 l 6
 112 667 135 679 135 719 c 6
 135 750 l 5
EndSplineSet
EndChar

StartChar: zero.dnom
Encoding: 65736 -1 709
GlifName: zero.dnom
Width: 385
Flags: HW
LayerCount: 2
Fore
SplineSet
35 192 m 4
 35 311 98 390 193 390 c 4
 287 390 350 311 350 192 c 4
 350 72 287 -8 193 -8 c 4
 98 -8 35 72 35 192 c 4
297 192 m 4
 297 286 259 340 193 340 c 4
 127 340 88 286 88 192 c 4
 88 97 127 42 193 42 c 4
 259 42 297 97 297 192 c 4
EndSplineSet
EndChar

StartChar: one.dnom
Encoding: 65737 -1 710
GlifName: one.dnom
Width: 220
Flags: HW
LayerCount: 2
Fore
SplineSet
135 386 m 5
 185 386 l 5
 185 0 l 5
 135 0 l 5
 135 260 l 5
 25 260 l 5
 25 303 l 5
 68 303 l 6
 112 303 135 315 135 355 c 6
 135 386 l 5
EndSplineSet
EndChar

StartChar: two.dnom
Encoding: 65738 -1 711
GlifName: two.dnom
Width: 376
Flags: HW
LayerCount: 2
Fore
SplineSet
87 48 m 5
 337 48 l 1
 337 0 l 1
 35 0 l 1
 35 14 l 2
 35 116 120 145 192 173 c 0
 244 193 288 214 288 261 c 0
 288 311 254 340 195 340 c 0
 132 340 91 306 88 252 c 1
 35 252 l 1
 41 334 107 390 195 390 c 0
 282 390 341 337 341 257 c 0
 341 191 276 157 212 130 c 0
 149 104 96 84 87 48 c 5
EndSplineSet
EndChar

StartChar: three.dnom
Encoding: 65739 -1 712
GlifName: three.dnom
Width: 377
Flags: HW
LayerCount: 2
Fore
SplineSet
265 215 m 5
 265 165 l 5
 162 165 l 1
 162 215 l 1
 265 215 l 5
222 175 m 1
 222 215 l 1
 258.314453125 215 279 235.287109375 279 270 c 0
 279 315.037109375 245.545898438 341 187 341 c 0
 131.958984375 341 95.8984375 314.340820312 94 272 c 1
 41 272 l 1
 46.83984375 342.615234375 105.969726562 391 187 391 c 0
 273.860351562 391 332 342.994140625 332 270 c 0
 332 213.1171875 287.875976562 175 222 175 c 1
222 205 m 1
 293.872070312 205 342 165.28125 342 106 c 0
 342 37.4755859375 281.059570312 -8 190 -8 c 0
 104.380859375 -8 40.904296875 37.67578125 35 104 c 1
 88 104 l 1
 90.5986328125 66.03125 130.229492188 42 190 42 c 0
 252.780273438 42 289 65.09765625 289 106 c 0
 289 143.629882812 264.5 165 222 165 c 1
 222 205 l 1
EndSplineSet
EndChar

StartChar: four.dnom
Encoding: 65740 -1 713
GlifName: four.dnom
Width: 394
Flags: HW
LayerCount: 2
Fore
SplineSet
285 98 m 1
 285 0 l 1
 235 0 l 1
 235 98 l 1
 35 98 l 1
 35 155 l 1
 225 386 l 1
 285 386 l 1
 285 145 l 1
 359 145 l 1
 359 98 l 1
 285 98 l 1
235 145 m 1
 235 324 l 1
 88 145 l 1
 235 145 l 1
EndSplineSet
EndChar

StartChar: five.dnom
Encoding: 65741 -1 714
GlifName: five.dnom
Width: 363
Flags: HW
LayerCount: 2
Fore
SplineSet
275 129 m 0
 275 71.3369140625 241.494140625 42 183 42 c 0
 126.836914062 42 90.3896484375 65.884765625 88 104 c 1
 35 104 l 1
 40.5849609375 37.5810546875 99.9248046875 -8 183 -8 c 0
 269.325195312 -8 328 43.982421875 328 130 c 0
 328 208.446289062 276.943359375 265 196 265 c 0
 150.109375 265 113.268554688 245.796875 90 216 c 1
 103 338 l 1
 309 338 l 1
 309 386 l 1
 60 386 l 1
 35 162 l 1
 84 162 l 1
 103.811523438 194.615234375 140.131835938 215 189 215 c 0
 244.43359375 215 275 181.693359375 275 129 c 0
EndSplineSet
EndChar

StartChar: six.dnom
Encoding: 65742 -1 715
GlifName: six.dnom
Width: 377
Flags: HW
LayerCount: 2
Fore
SplineSet
35 187 m 0
 35 315.017578125 95.681640625 390 200 390 c 0
 270.741210938 390 321.755859375 349.459960938 334 283 c 1
 281 283 l 1
 273.125 319.97265625 245 340 200 340 c 0
 124.741210938 340 88 291.364257812 88 192 c 0
 88 182.823242188 89 174.412109375 90 166 c 1
 108.827148438 215.323242188 153.76953125 246 206 246 c 0
 285.1640625 246 342 192.7421875 342 119 c 0
 342 45.2578125 285.1640625 -8 206 -8 c 0
 101.731445312 -8 35 67.671875 35 187 c 0
110 119 m 0
 110 75.505859375 149.665039062 43 202 43 c 0
 254.658203125 43 289 73.216796875 289 119 c 0
 289 164.783203125 254.658203125 195 202 195 c 0
 146.91015625 195 110 164.325195312 110 119 c 0
EndSplineSet
EndChar

StartChar: seven.dnom
Encoding: 65743 -1 716
GlifName: seven.dnom
Width: 386
Flags: HW
LayerCount: 2
Fore
SplineSet
178 0 m 5
 191.01171875 133.446289062 256.150390625 239.3515625 351 328 c 5
 351 386 l 5
 35 386 l 5
 35 338 l 5
 300 338 l 5
 217.374023438 255.46484375 145.809570312 162.581054688 124 0 c 5
 178 0 l 5
EndSplineSet
EndChar

StartChar: eight.dnom
Encoding: 65744 -1 717
GlifName: eight.dnom
Width: 377
Flags: HW
LayerCount: 2
Fore
SplineSet
191 390 m 1
 191 340 l 1
 131.750976562 340 98 316.047851562 98 274 c 0
 98 237.19140625 130.883789062 216 188 216 c 1
 188 176 l 1
 102.104492188 176 45 217.130859375 45 279 c 0
 45 345.657226562 103.32421875 390 191 390 c 1
191 42 m 1
 191 -8 l 1
 97.0654296875 -8 35 34.1728515625 35 98 c 0
 35 162.874023438 96.0947265625 206 188 206 c 1
 188 166 l 1
 124.501953125 166 88 142.638671875 88 102 c 0
 88 63.8056640625 125.432617188 42 191 42 c 1
205 216 m 1
 205 166 l 1
 178 166 l 1
 178 216 l 1
 205 216 l 1
191 390 m 1
 275.818359375 390 332 345.771484375 332 279 c 0
 332 217.130859375 277.291992188 176 195 176 c 1
 195 216 l 1
 248.30859375 216 279 237.19140625 279 274 c 0
 279 316.1328125 247.177734375 340 191 340 c 1
 191 390 l 1
191 42 m 1
 253.190429688 42 289 63.923828125 289 102 c 0
 289 142.638671875 254.6875 166 195 166 c 1
 195 206 l 1
 283.30078125 206 342 162.874023438 342 98 c 0
 342 34.07421875 282.064453125 -8 191 -8 c 1
 191 42 l 1
EndSplineSet
EndChar

StartChar: nine.dnom
Encoding: 65745 -1 718
GlifName: nine.dnom
Width: 377
Flags: HW
LayerCount: 2
Fore
SplineSet
342 175 m 0
 342 59.5947265625 281.318359375 -8 177 -8 c 0
 102.563476562 -8 48.8828125 30.6455078125 36 94 c 1
 89 94 l 1
 97.5556640625 60.2705078125 128.111328125 42 177 42 c 0
 253.603515625 42 291 87.349609375 291 180 c 0
 291 189.176757812 290 197.587890625 289 206 c 1
 270.172851562 157.29296875 225.23046875 127 173 127 c 0
 92.671875 127 35 181.935546875 35 258 c 0
 35 334.645507812 94.7607421875 390 178 390 c 0
 278 390 342 306.567382812 342 175 c 0
270 257 m 0
 270 303.35546875 230.334960938 338 178 338 c 0
 125.341796875 338 91 305.794921875 91 257 c 0
 91 208.807617188 125.341796875 177 178 177 c 0
 233.08984375 177 270 209.2890625 270 257 c 0
EndSplineSet
EndChar

StartChar: zero.numr
Encoding: 65746 -1 719
GlifName: zero.numr
Width: 385
Flags: HW
LayerCount: 2
Fore
SplineSet
35 456 m 4
 35 575 98 654 193 654 c 4
 287 654 350 575 350 456 c 4
 350 336 287 256 193 256 c 4
 98 256 35 336 35 456 c 4
297 456 m 4
 297 550 259 604 193 604 c 4
 127 604 88 550 88 456 c 4
 88 361 127 306 193 306 c 4
 259 306 297 361 297 456 c 4
EndSplineSet
EndChar

StartChar: one.numr
Encoding: 65747 -1 720
GlifName: one.numr
Width: 220
Flags: HW
LayerCount: 2
Fore
SplineSet
135 650 m 5
 185 650 l 5
 185 264 l 5
 135 264 l 5
 135 524 l 5
 25 524 l 5
 25 567 l 5
 68 567 l 6
 112 567 135 579 135 619 c 6
 135 650 l 5
EndSplineSet
EndChar

StartChar: two.numr
Encoding: 65748 -1 721
GlifName: two.numr
Width: 376
Flags: HW
LayerCount: 2
Fore
SplineSet
87 312 m 5
 337 312 l 1
 337 264 l 1
 35 264 l 1
 35 278 l 2
 35 380 120 409 192 437 c 0
 244 457 288 478 288 525 c 0
 288 575 254 604 195 604 c 0
 132 604 91 570 88 516 c 1
 35 516 l 1
 41 598 107 654 195 654 c 0
 282 654 341 601 341 521 c 0
 341 455 276 421 212 394 c 0
 149 368 96 348 87 312 c 5
EndSplineSet
EndChar

StartChar: three.numr
Encoding: 65749 -1 722
GlifName: three.numr
Width: 377
Flags: HW
LayerCount: 2
Fore
SplineSet
265 479 m 5
 265 429 l 5
 162 429 l 1
 162 479 l 1
 265 479 l 5
222 439 m 1
 222 479 l 1
 258.314453125 479 279 499.287109375 279 534 c 0
 279 579.037109375 245.545898438 605 187 605 c 0
 131.958984375 605 95.8984375 578.340820312 94 536 c 1
 41 536 l 1
 46.83984375 606.615234375 105.969726562 655 187 655 c 0
 273.860351562 655 332 606.994140625 332 534 c 0
 332 477.1171875 287.875976562 439 222 439 c 1
222 469 m 1
 293.872070312 469 342 429.28125 342 370 c 0
 342 301.475585938 281.059570312 256 190 256 c 0
 104.380859375 256 40.904296875 301.67578125 35 368 c 1
 88 368 l 1
 90.5986328125 330.03125 130.229492188 306 190 306 c 0
 252.780273438 306 289 329.09765625 289 370 c 0
 289 407.629882812 264.5 429 222 429 c 1
 222 469 l 1
EndSplineSet
EndChar

StartChar: four.numr
Encoding: 65750 -1 723
GlifName: four.numr
Width: 394
Flags: HW
LayerCount: 2
Fore
SplineSet
285 362 m 1
 285 264 l 1
 235 264 l 1
 235 362 l 1
 35 362 l 1
 35 419 l 1
 225 650 l 1
 285 650 l 1
 285 409 l 1
 359 409 l 1
 359 362 l 1
 285 362 l 1
235 409 m 1
 235 588 l 1
 88 409 l 1
 235 409 l 1
EndSplineSet
EndChar

StartChar: five.numr
Encoding: 65751 -1 724
GlifName: five.numr
Width: 363
Flags: HW
LayerCount: 2
Fore
SplineSet
275 393 m 0
 275 335.336914062 241.494140625 306 183 306 c 0
 126.836914062 306 90.3896484375 329.884765625 88 368 c 1
 35 368 l 1
 40.5849609375 301.581054688 99.9248046875 256 183 256 c 0
 269.325195312 256 328 307.982421875 328 394 c 0
 328 472.446289062 276.943359375 529 196 529 c 0
 150.109375 529 113.268554688 509.796875 90 480 c 1
 103 602 l 1
 309 602 l 1
 309 650 l 1
 60 650 l 1
 35 426 l 1
 84 426 l 1
 103.811523438 458.615234375 140.131835938 479 189 479 c 0
 244.43359375 479 275 445.693359375 275 393 c 0
EndSplineSet
EndChar

StartChar: six.numr
Encoding: 65752 -1 725
GlifName: six.numr
Width: 377
Flags: HW
LayerCount: 2
Fore
SplineSet
35 451 m 0
 35 579.017578125 95.681640625 654 200 654 c 0
 270.741210938 654 321.755859375 613.459960938 334 547 c 1
 281 547 l 1
 273.125 583.97265625 245 604 200 604 c 0
 124.741210938 604 88 555.364257812 88 456 c 0
 88 446.823242188 89 438.412109375 90 430 c 1
 108.827148438 479.323242188 153.76953125 510 206 510 c 0
 285.1640625 510 342 456.7421875 342 383 c 0
 342 309.2578125 285.1640625 256 206 256 c 0
 101.731445312 256 35 331.671875 35 451 c 0
110 383 m 0
 110 339.505859375 149.665039062 307 202 307 c 0
 254.658203125 307 289 337.216796875 289 383 c 0
 289 428.783203125 254.658203125 459 202 459 c 0
 146.91015625 459 110 428.325195312 110 383 c 0
EndSplineSet
EndChar

StartChar: seven.numr
Encoding: 65753 -1 726
GlifName: seven.numr
Width: 386
Flags: HW
LayerCount: 2
Fore
SplineSet
178 264 m 5
 191.01171875 397.446289062 256.150390625 503.3515625 351 592 c 5
 351 650 l 5
 35 650 l 5
 35 602 l 5
 300 602 l 5
 217.374023438 519.46484375 145.809570312 426.581054688 124 264 c 5
 178 264 l 5
EndSplineSet
EndChar

StartChar: eight.numr
Encoding: 65754 -1 727
GlifName: eight.numr
Width: 377
Flags: HW
LayerCount: 2
Fore
SplineSet
191 654 m 1
 191 604 l 1
 131.750976562 604 98 580.047851562 98 538 c 0
 98 501.19140625 130.883789062 480 188 480 c 1
 188 440 l 1
 102.104492188 440 45 481.130859375 45 543 c 0
 45 609.657226562 103.32421875 654 191 654 c 1
191 306 m 1
 191 256 l 1
 97.0654296875 256 35 298.172851562 35 362 c 0
 35 426.874023438 96.0947265625 470 188 470 c 1
 188 430 l 1
 124.501953125 430 88 406.638671875 88 366 c 0
 88 327.805664062 125.432617188 306 191 306 c 1
205 480 m 1
 205 430 l 1
 178 430 l 1
 178 480 l 1
 205 480 l 1
191 654 m 1
 275.818359375 654 332 609.771484375 332 543 c 0
 332 481.130859375 277.291992188 440 195 440 c 1
 195 480 l 1
 248.30859375 480 279 501.19140625 279 538 c 0
 279 580.1328125 247.177734375 604 191 604 c 1
 191 654 l 1
191 306 m 1
 253.190429688 306 289 327.923828125 289 366 c 0
 289 406.638671875 254.6875 430 195 430 c 1
 195 470 l 1
 283.30078125 470 342 426.874023438 342 362 c 0
 342 298.07421875 282.064453125 256 191 256 c 1
 191 306 l 1
EndSplineSet
EndChar

StartChar: nine.numr
Encoding: 65755 -1 728
GlifName: nine.numr
Width: 377
Flags: HW
LayerCount: 2
Fore
SplineSet
342 439 m 0
 342 323.594726562 281.318359375 256 177 256 c 0
 102.563476562 256 48.8828125 294.645507812 36 358 c 1
 89 358 l 1
 97.5556640625 324.270507812 128.111328125 306 177 306 c 0
 253.603515625 306 291 351.349609375 291 444 c 0
 291 453.176757812 290 461.587890625 289 470 c 1
 270.172851562 421.29296875 225.23046875 391 173 391 c 0
 92.671875 391 35 445.935546875 35 522 c 0
 35 598.645507812 94.7607421875 654 178 654 c 0
 278 654 342 570.567382812 342 439 c 0
270 521 m 0
 270 567.35546875 230.334960938 602 178 602 c 0
 125.341796875 602 91 569.794921875 91 521 c 0
 91 472.807617188 125.341796875 441 178 441 c 0
 233.08984375 441 270 473.2890625 270 521 c 0
EndSplineSet
EndChar

StartChar: onequarter
Encoding: 188 188 730
GlifName: onequarter
Width: 834
Flags: HW
LayerCount: 2
Fore
SplineSet
725 98 m 1
 725 0 l 1
 675 0 l 1
 675 98 l 1
 475 98 l 1
 475 155 l 1
 665 386 l 1
 725 386 l 1
 725 145 l 1
 799 145 l 1
 799 98 l 1
 725 98 l 1
675 145 m 1
 675 324 l 1
 528 145 l 1
 675 145 l 1
195 650 m 1
 245 650 l 1
 245 264 l 1
 195 264 l 1
 195 524 l 1
 85 524 l 1
 85 567 l 1
 128 567 l 2
 172 567 195 579 195 619 c 2
 195 650 l 1
523 650 m 1
 579 650 l 1
 311 0 l 1
 255 0 l 1
 523 650 l 1
EndSplineSet
EndChar

StartChar: onehalf
Encoding: 189 189 731
GlifName: onehalf
Width: 834
Flags: HW
LayerCount: 2
Fore
SplineSet
542 48 m 5
 792 48 l 5
 792 0 l 5
 490 0 l 5
 490 14 l 6
 490 116 575 145 647 173 c 4
 699 193 743 214 743 261 c 4
 743 311 709 340 650 340 c 4
 587 340 546 306 543 252 c 5
 490 252 l 5
 496 334 562 390 650 390 c 4
 737 390 796 337 796 257 c 4
 796 191 731 157 667 130 c 4
 604 104 551 84 542 48 c 5
195 650 m 1
 245 650 l 1
 245 264 l 1
 195 264 l 1
 195 524 l 1
 85 524 l 1
 85 567 l 1
 128 567 l 2
 172 567 195 579 195 619 c 2
 195 650 l 1
523 650 m 1
 579 650 l 1
 311 0 l 1
 255 0 l 1
 523 650 l 1
EndSplineSet
EndChar

StartChar: threequarters
Encoding: 190 190 732
GlifName: threequarters
Width: 834
Flags: HW
LayerCount: 2
Fore
SplineSet
265 479 m 1
 265 429 l 1
 162 429 l 1
 162 479 l 1
 265 479 l 1
222 439 m 1
 222 479 l 1
 258.314453125 479 279 499.287109375 279 534 c 0
 279 579.037109375 245.545898438 605 187 605 c 0
 131.958984375 605 95.8984375 578.340820312 94 536 c 1
 41 536 l 1
 46.83984375 606.615234375 105.969726562 655 187 655 c 0
 273.860351562 655 332 606.994140625 332 534 c 0
 332 477.1171875 287.875976562 439 222 439 c 1
222 469 m 1
 293.872070312 469 342 429.28125 342 370 c 0
 342 301.475585938 281.059570312 256 190 256 c 0
 104.380859375 256 40.904296875 301.67578125 35 368 c 1
 88 368 l 1
 90.5986328125 330.03125 130.229492188 306 190 306 c 0
 252.780273438 306 289 329.09765625 289 370 c 0
 289 407.629882812 264.5 429 222 429 c 1
 222 469 l 1
725 98 m 1
 725 0 l 1
 675 0 l 1
 675 98 l 1
 475 98 l 1
 475 155 l 1
 665 386 l 1
 725 386 l 1
 725 145 l 1
 799 145 l 1
 799 98 l 1
 725 98 l 1
675 145 m 1
 675 324 l 1
 528 145 l 1
 675 145 l 1
523 650 m 1
 579 650 l 1
 311 0 l 1
 255 0 l 1
 523 650 l 1
EndSplineSet
EndChar

StartChar: section
Encoding: 167 167 733
GlifName: section
Width: 490
Flags: HW
LayerCount: 2
Fore
SplineSet
210 461 m 2
 285 451 l 2
 392.178486469 436.709535137 440 400.244646978 440 332.809310342 c 0
 440 258.40297649 380.882187601 213 284 213 c 1
 284 243 l 1
 348.433650395 243 390 275.032365954 390 324.687009406 c 0
 390 367.936539822 360.393421167 388.121433531 281 399 c 2
 206 409 l 2
 102.873138348 423.419806634 55 461.351986747 55 528.64453125 c 0
 55 609.537633723 123.202922367 660 232.53481453 660 c 0
 353.169240658 660 433.633826127 603.949599917 445 512 c 1
 391 512 l 1
 378.273873083 578.684186564 327.981174468 611 236.927531028 611 c 0
 155.377443543 611 105 581.016771922 105 532.48046875 c 0
 105 493.339826725 136.803485382 471.689083459 210 461 c 2
280 191 m 2
 205 201 l 2
 98.2188947694 215.237480697 50 251.443611076 50 317.384878492 c 0
 50 389.555837709 108.619402281 433 206 433 c 1
 206 409 l 1
 141.566349605 409 100 376.967634046 100 327.312990594 c 0
 100 284.063460178 129.606578833 263.878566469 209 253 c 2
 284 243 l 2
 387.126861652 228.580193366 435 190.648013253 435 123.35546875 c 4
 435 42.4623662766 366.797077633 -8 257.46518547 -8 c 0
 136.830759342 -8 56.366173873 48.0504000835 45 140 c 1
 99 140 l 1
 111.726126917 73.3158134355 162.018825532 41 253.072468972 41 c 0
 334.622556457 41 385 70.9832280782 385 119.51953125 c 4
 385 158.660173275 353.196514618 180.310916541 280 191 c 2
EndSplineSet
EndChar

StartChar: guillemotleft
Encoding: 171 171 734
GlifName: guillemotleft
Width: 570
Flags: HW
LayerCount: 2
Fore
SplineSet
535 500 m 1
 535 429 l 1
 343 268 l 1
 535 103 l 1
 535 40 l 1
 295 242 l 1
 295 298 l 1
 535 500 l 1
275 500 m 1
 275 429 l 1
 83 268 l 1
 275 103 l 1
 275 40 l 1
 35 242 l 1
 35 298 l 1
 275 500 l 1
EndSplineSet
EndChar

StartChar: guillemotright
Encoding: 187 187 735
GlifName: guillemotright
Width: 570
Flags: HW
LayerCount: 2
Fore
SplineSet
35 40 m 1
 35 111 l 1
 227 272 l 1
 35 437 l 1
 35 500 l 1
 275 298 l 1
 275 242 l 1
 35 40 l 1
295 40 m 1
 295 111 l 1
 487 272 l 1
 295 437 l 1
 295 500 l 1
 535 298 l 1
 535 242 l 1
 295 40 l 1
EndSplineSet
EndChar

StartChar: plusminus
Encoding: 177 177 736
GlifName: plusminus
Width: 546
Flags: HW
LayerCount: 2
Fore
SplineSet
511 0 m 1
 511 -48 l 1
 35 -48 l 1
 35 0 l 1
 511 0 l 1
297 300 m 1
 511 300 l 1
 511 252 l 1
 297 252 l 1
 297 38 l 1
 249 38 l 1
 249 252 l 1
 35 252 l 1
 35 300 l 1
 249 300 l 1
 249 514 l 1
 297 514 l 1
 297 300 l 1
EndSplineSet
EndChar

StartChar: dieresis
Encoding: 168 168 737
GlifName: dieresis
Width: 333
Flags: HW
LayerCount: 2
Fore
SplineSet
234 570 m 1
 298 570 l 1
 298 500 l 1
 234 500 l 1
 234 570 l 1
35 570 m 1
 99 570 l 1
 99 500 l 1
 35 500 l 1
 35 570 l 1
EndSplineSet
EndChar

StartChar: copyright
Encoding: 169 169 738
GlifName: copyright
Width: 825
Flags: HW
LayerCount: 2
Fore
SplineSet
223 324 m 0
 223 448.96124031 297.964757709 532 410 532 c 0
 509.818181818 532 582.636363636 466.251308901 590 371 c 5
 537 371 l 5
 533.958083832 438.70212766 484.526946108 482 410 482 c 0
 324.517241379 482 276 424.269230769 276 324 c 0
 276 222.666666667 325.287356322 164 410 164 c 0
 483.766467066 164 533.19760479 203.409090909 537 266 c 5
 590 266 l 5
 581 174.131868132 509.818181818 114 410 114 c 0
 297.964757709 114 223 198 223 324 c 0
407.125976562 3 m 0
 597.570851752 3 727 133.844546794 727 326.372070312 c 0
 727 516.85316594 600.457186077 645 412.360351562 645 c 0
 223.499235974 645 98 515.791985871 98 321.349609375 c 0
 98 129.258998949 220.600861444 3 407.125976562 3 c 0
780 325.092773438 m 0
 780 102.314307976 628.786921755 -50 407.619140625 -50 c 0
 190.06303107 -50 45 95.933826488 45 314.795898438 c 0
 45 540.598154997 196.770451347 698 414.494140625 698 c 0
 630.307289558 698 780 545.276063965 780 325.092773438 c 0
EndSplineSet
EndChar

StartChar: ordfeminine
Encoding: 170 170 739
GlifName: ordfeminine
Width: 425
Flags: HW
LayerCount: 2
Fore
SplineSet
372 373 m 2
 372 327.608695652 376 291.608695652 384 265 c 1
 332 265 l 5
 325 294.230769231 322 325.769230769 322 365 c 2
 322 522 l 2
 322 568.85483871 277.028169014 605 219 605 c 0
 147.853333333 605 109.96 579.220338983 103 527 c 1
 49 527 l 1
 54.8275862069 604.714285714 120.596059113 655 218 655 c 0
 305.772020725 655 372 596.805714286 372 521 c 2
 372 373 l 2
357 425 m 1
 357 330.391304348 282.163636364 255 189 255 c 0
 104.345454545 255 45 302.671232877 45 371 c 0
 45 431.789473684 85.465614129 471.899384533 148 476 c 2
 270 484 l 2
 307.445544554 486.455445545 322 496.436363636 322 520 c 1
 323 439 l 1
 163 428 l 2
 117.421678784 424.866490416 97 405.870588235 97 371 c 0
 97 330.4375 133.292682927 305 190 305 c 0
 266.182857143 305 322 355.666666667 322 425 c 1
 357 425 l 1
EndSplineSet
Substitution2: "'ss01' Style Set 1 in Latin lookup 0-1" ordfeminine.ss01
EndChar

StartChar: logicalnot
Encoding: 172 172 740
GlifName: logicalnot
Width: 512
Flags: HW
LayerCount: 2
Fore
SplineSet
427 252 m 1
 35 252 l 1
 35 300 l 1
 477 300 l 1
 477 134 l 1
 427 134 l 1
 427 252 l 1
EndSplineSet
EndChar

StartChar: uni00AD
Encoding: 173 173 741
GlifName: uni00A_D_
Width: 378
Flags: HW
LayerCount: 2
Fore
SplineSet
35 300 m 1
 343 300 l 1
 343 252 l 1
 35 252 l 1
 35 300 l 1
EndSplineSet
EndChar

StartChar: registered
Encoding: 174 174 742
GlifName: registered
Width: 825
Flags: HW
LayerCount: 2
Fore
SplineSet
438 283 m 1
 471 303 l 1
 544.293103448 303 571.856321839 280.445205479 580 214 c 2
 590 133 l 1
 540 133 l 1
 531 207 l 2
 525.154285714 260.714285714 498.051428571 283 438 283 c 1
461 474 m 2
 315 474 l 1
 315 331 l 1
 461 331 l 2
 508.946308725 331 537 359.156716418 537 408 c 0
 537 449.659574468 508.946308725 474 461 474 c 2
471 293 m 1
 463 283 l 1
 315 283 l 1
 315 133 l 1
 265 133 l 1
 265 522 l 1
 466 522 l 2
 540.274111675 522 590 476.761904762 590 408 c 0
 590 339.13372093 542.276041667 293 471 293 c 1
407.125976562 3 m 0
 597.570851752 3 727 133.844546794 727 326.372070312 c 0
 727 516.85316594 600.457186077 645 412.360351562 645 c 0
 223.499235974 645 98 515.791985871 98 321.349609375 c 0
 98 129.258998949 220.600861444 3 407.125976562 3 c 0
780 325.092773438 m 0
 780 102.314307976 628.786921755 -50 407.619140625 -50 c 0
 190.06303107 -50 45 95.933826488 45 314.795898438 c 0
 45 540.598154997 196.770451347 698 414.494140625 698 c 0
 630.307289558 698 780 545.276063965 780 325.092773438 c 0
EndSplineSet
EndChar

StartChar: macron
Encoding: 175 175 743
GlifName: macron
Width: 370
Flags: HW
LayerCount: 2
Fore
SplineSet
35 566 m 1
 335 566 l 1
 335 520 l 1
 35 520 l 1
 35 566 l 1
EndSplineSet
EndChar

StartChar: acute
Encoding: 180 180 744
GlifName: acute
Width: 245
Flags: HW
LayerCount: 2
Fore
SplineSet
210 650 m 1
 78 500 l 1
 35 500 l 1
 147 650 l 1
 210 650 l 1
EndSplineSet
EndChar

StartChar: mu
Encoding: 181 181 745
GlifName: mu
Width: 502
Flags: HW
LayerCount: 2
Fore
SplineSet
55 500 m 1
 105 500 l 1
 105 -163 l 1
 55 -163 l 1
 55 500 l 1
105 200 m 1
 105 88 161 40 247 40 c 0
 332 40 397 104 397 194 c 1
 426 188 l 1
 426 65 327 -10 237 -10 c 0
 136.824175824 -10 65 61 65 190 c 1
 105 200 l 1
447 0 m 1
 397 0 l 1
 397 500 l 1
 447 500 l 1
 447 0 l 1
EndSplineSet
EndChar

StartChar: paragraph
Encoding: 182 182 746
GlifName: paragraph
Width: 468
Flags: HW
LayerCount: 2
Fore
SplineSet
233 332 m 5
 114.074655205 332 35 395.898711277 35 492 c 0
 35 586.979798903 113.974682387 650 233 650 c 6
 413 650 l 5
 413 0 l 5
 363 0 l 5
 363 602 l 5
 283 602 l 5
 283 0 l 5
 233 0 l 5
 233 332 l 5
EndSplineSet
EndChar

StartChar: cedilla
Encoding: 184 184 747
GlifName: cedilla
Width: 286
Flags: HW
LayerCount: 2
Fore
SplineSet
98 10 m 1
 143 10 l 1
 134 -55 l 1
 149 -55 l 2
 209.91796875 -55 251 -95.6787109375 251 -156 c 0
 251 -223.034179688 201.39453125 -266 124 -266 c 2
 35 -266 l 1
 35 -216 l 1
 116 -216 l 2
 169.248046875 -216 198 -194.260742188 198 -154 c 0
 198 -123.19140625 177.208984375 -105 142 -105 c 2
 108 -105 l 1
 84 -75 l 1
 98 10 l 1
EndSplineSet
EndChar

StartChar: ordmasculine
Encoding: 186 186 748
GlifName: ordmasculine
Width: 425
Flags: HW
LayerCount: 2
Fore
SplineSet
35 456 m 0
 35 575 105.974683544 654 213 654 c 0
 318.974522293 654 390 575 390 456 c 0
 390 336 318.974522293 256 213 256 c 0
 105.974683544 256 35 336 35 456 c 0
337 456 m 0
 337 550 291.692307692 604 213 604 c 0
 134.428571429 604 88 550 88 456 c 0
 88 361 134.428571429 306 213 306 c 0
 291.692307692 306 337 361 337 456 c 0
EndSplineSet
EndChar

StartChar: ordfeminine.ss01
Encoding: 65756 -1 749
GlifName: ordfeminine.ss01
Width: 425
Flags: HW
LayerCount: 2
Fore
SplineSet
337 650 m 1
 387 650 l 1
 387 265 l 1
 337 265 l 1
 337 650 l 1
35 456 m 0
 35 575 104.379746835 654 209 654 c 4
 305.394904459 654 370 575 370 456 c 0
 370 336 305.394904459 256 209 256 c 4
 104.379746835 256 35 336 35 456 c 0
337 456 m 0
 337 550 291.692307692 604 213 604 c 0
 134.428571429 604 88 550 88 456 c 0
 88 361 134.428571429 306 213 306 c 0
 291.692307692 306 337 361 337 456 c 0
EndSplineSet
EndChar

StartChar: arrowleft
Encoding: 8592 8592 750
GlifName: arrowleft
Width: 780
Flags: HW
LayerCount: 2
Fore
SplineSet
84 313 m 1
 84 362 l 1
 735 363 l 1
 735 313 l 1
 84 313 l 1
45 338 m 5
 231 523 l 5
 265 489 l 5
 113 338 l 5
 265 186 l 5
 231 152 l 5
 45 338 l 5
EndSplineSet
EndChar

StartChar: uni2196
Encoding: 8598 8598 751
GlifName: uni2196
Width: 595
Flags: HW
LayerCount: 2
Fore
SplineSet
55 545 m 1
 90 580 l 1
 550 121 l 1
 515 85 l 1
 55 545 l 1
45 590 m 1
 307 590 l 1
 307 542 l 1
 93 542 l 1
 93 328 l 1
 45 328 l 1
 45 590 l 1
EndSplineSet
EndChar

StartChar: uni2197
Encoding: 8599 8599 752
GlifName: uni2197
Width: 595
Flags: HW
LayerCount: 2
Fore
SplineSet
505 580 m 1
 540 545 l 1
 81 85 l 1
 45 120 l 1
 505 580 l 1
550 590 m 1
 550 328 l 1
 502 328 l 1
 502 542 l 1
 288 542 l 1
 288 590 l 1
 550 590 l 1
EndSplineSet
EndChar

StartChar: uni2198
Encoding: 8600 8600 753
GlifName: uni2198
Width: 595
Flags: HW
LayerCount: 2
Fore
SplineSet
540 130 m 1
 505 95 l 1
 45 554 l 1
 80 590 l 1
 540 130 l 1
550 85 m 1
 288 85 l 1
 288 133 l 1
 502 133 l 1
 502 347 l 1
 550 347 l 1
 550 85 l 1
EndSplineSet
EndChar

StartChar: uni2199
Encoding: 8601 8601 754
GlifName: uni2199
Width: 595
Flags: HW
LayerCount: 2
Fore
SplineSet
90 95 m 1
 55 130 l 1
 514 590 l 1
 550 555 l 1
 90 95 l 1
45 85 m 1
 45 347 l 1
 93 347 l 1
 93 133 l 1
 307 133 l 1
 307 85 l 1
 45 85 l 1
EndSplineSet
EndChar

StartChar: arrowup
Encoding: 8593 8593 755
GlifName: arrowup
Width: 461
Flags: HW
LayerCount: 2
Fore
SplineSet
206 643.5 m 1
 255 643.5 l 1
 256 -7.5 l 5
 206 -7.5 l 1
 206 643.5 l 1
231 682.5 m 1
 416 496.5 l 1
 382 462.5 l 1
 231 614.5 l 1
 79 462.5 l 1
 45 496.5 l 1
 231 682.5 l 1
EndSplineSet
EndChar

StartChar: arrowright
Encoding: 8594 8594 756
GlifName: arrowright
Width: 780
Flags: HW
LayerCount: 2
Fore
SplineSet
696 362 m 1
 696 313 l 1
 45 312 l 5
 45 362 l 1
 696 362 l 1
735 337 m 1
 549 152 l 1
 515 186 l 1
 667 337 l 1
 515 489 l 1
 549 523 l 1
 735 337 l 1
EndSplineSet
EndChar

StartChar: arrowdown
Encoding: 8595 8595 757
GlifName: arrowdown
Width: 461
Flags: HW
LayerCount: 2
Fore
SplineSet
255 31.5 m 1
 206 31.5 l 1
 205 682.5 l 5
 255 682.5 l 1
 255 31.5 l 1
230 -7.5 m 1
 45 178.5 l 1
 79 212.5 l 1
 230 60.5 l 1
 382 212.5 l 1
 416 178.5 l 1
 230 -7.5 l 1
EndSplineSet
EndChar

StartChar: arrowboth
Encoding: 8596 8596 758
GlifName: arrowboth
Width: 780
Flags: HW
LayerCount: 2
Fore
SplineSet
735 337 m 1
 549 152 l 1
 515 186 l 1
 667 337 l 1
 515 489 l 1
 549 523 l 1
 735 337 l 1
84 313 m 1
 84 362 l 1
 696 362 l 1
 697 313 l 1
 84 313 l 1
45 338 m 1
 231 523 l 1
 265 489 l 1
 113 338 l 1
 265 186 l 1
 231 152 l 1
 45 338 l 1
EndSplineSet
EndChar

StartChar: arrowupdn
Encoding: 8597 8597 759
GlifName: arrowupdn
Width: 461
Flags: HW
LayerCount: 2
Fore
SplineSet
230 -7.5 m 1
 45 178.5 l 1
 79 212.5 l 1
 230 60.5 l 1
 382 212.5 l 1
 416 178.5 l 1
 230 -7.5 l 1
206 643.5 m 1
 255 643.5 l 1
 255 31.5 l 1
 206 30.5 l 1
 206 643.5 l 1
231 682.5 m 1
 416 496.5 l 1
 382 462.5 l 1
 231 614.5 l 1
 79 462.5 l 1
 45 496.5 l 1
 231 682.5 l 1
EndSplineSet
EndChar

StartChar: arrowdblleft
Encoding: 8656 8656 760
GlifName: arrowdblleft
Width: 780
Flags: HW
LayerCount: 2
Fore
SplineSet
150 243 m 1
 150 292 l 1
 734 293 l 1
 734 243 l 5
 150 243 l 1
150 383 m 1
 150 432 l 1
 735 433 l 1
 735 383 l 1
 150 383 l 1
45 338 m 1
 231 523 l 1
 265 489 l 1
 113 338 l 1
 265 186 l 1
 231 152 l 1
 45 338 l 1
EndSplineSet
EndChar

StartChar: arrowdblup
Encoding: 8657 8657 761
GlifName: arrowdblup
Width: 461
Flags: HW
LayerCount: 2
Fore
SplineSet
136 577.5 m 1
 185 577.5 l 1
 186 -6.5 l 1
 136 -6.5 l 1
 136 577.5 l 1
276 577.5 m 1
 325 577.5 l 1
 326 -6.5 l 1
 276 -6.5 l 5
 276 577.5 l 1
231 682.5 m 1
 416 496.5 l 1
 382 462.5 l 1
 231 614.5 l 1
 79 462.5 l 1
 45 496.5 l 1
 231 682.5 l 1
EndSplineSet
EndChar

StartChar: arrowdblright
Encoding: 8658 8658 762
GlifName: arrowdblright
Width: 780
Flags: HW
LayerCount: 2
Fore
SplineSet
630 432 m 1
 630 383 l 1
 46 382 l 1
 46 432 l 5
 630 432 l 1
630 292 m 1
 630 243 l 1
 45 242 l 1
 45 292 l 1
 630 292 l 1
735 337 m 1
 549 152 l 1
 515 186 l 1
 667 337 l 1
 515 489 l 1
 549 523 l 1
 735 337 l 1
EndSplineSet
EndChar

StartChar: arrowdbldown
Encoding: 8659 8659 763
GlifName: arrowdbldown
Width: 461
Flags: HW
LayerCount: 2
Fore
SplineSet
325 98.5 m 1
 276 98.5 l 1
 275 682.5 l 1
 325 682.5 l 1
 325 98.5 l 1
185 98.5 m 1
 136 98.5 l 1
 135 682.5 l 1
 185 682.5 l 5
 185 98.5 l 1
230 -6.5 m 1
 45 179.5 l 1
 79 213.5 l 1
 230 61.5 l 1
 382 213.5 l 1
 416 179.5 l 1
 230 -6.5 l 1
EndSplineSet
EndChar

StartChar: arrowdblboth
Encoding: 8660 8660 764
GlifName: arrowdblboth
Width: 780
Flags: HW
LayerCount: 2
Fore
SplineSet
735 337 m 1
 549 152 l 1
 515 186 l 1
 667 337 l 1
 515 489 l 1
 549 523 l 1
 735 337 l 1
150 243 m 1
 150 292 l 1
 630 293 l 1
 630 243 l 1
 150 243 l 1
150 383 m 1
 150 432 l 1
 630 433 l 1
 630 383 l 1
 150 383 l 1
45 338 m 1
 231 523 l 1
 265 489 l 1
 113 338 l 1
 265 186 l 1
 231 152 l 1
 45 338 l 1
EndSplineSet
EndChar

StartChar: uni21D5
Encoding: 8661 8661 765
GlifName: uni21D_5
Width: 461
Flags: HW
LayerCount: 2
Fore
SplineSet
230 -7.5 m 1
 45 178.5 l 1
 79 212.5 l 1
 230 60.5 l 1
 382 212.5 l 1
 416 178.5 l 1
 230 -7.5 l 1
136 577.5 m 1
 185 577.5 l 1
 186 97.5 l 1
 136 97.5 l 1
 136 577.5 l 1
276 577.5 m 1
 325 577.5 l 1
 326 97.5 l 1
 276 97.5 l 1
 276 577.5 l 1
231 682.5 m 1
 416 496.5 l 1
 382 462.5 l 1
 231 614.5 l 1
 79 462.5 l 1
 45 496.5 l 1
 231 682.5 l 1
EndSplineSet
EndChar

StartChar: uni21D6
Encoding: 8662 8662 766
GlifName: uni21D_6
Width: 645
Flags: HW
LayerCount: 2
Fore
SplineSet
52 440 m 1
 87 475 l 1
 501 63 l 1
 465 27 l 1
 52 440 l 1
151 539 m 1
 186 574 l 1
 600 161 l 1
 565 126 l 1
 151 539 l 1
45 582 m 1
 308 582 l 1
 308 534 l 1
 93 534 l 1
 93 319 l 1
 45 319 l 1
 45 582 l 1
EndSplineSet
EndChar

StartChar: uni21D7
Encoding: 8663 8663 767
GlifName: uni21D_7
Width: 645
Flags: HW
LayerCount: 2
Fore
SplineSet
458 575 m 1
 493 540 l 1
 81 126 l 1
 45 162 l 1
 458 575 l 1
557 476 m 1
 592 441 l 1
 179 27 l 1
 144 62 l 1
 557 476 l 1
600 582 m 1
 600 319 l 1
 552 319 l 1
 552 534 l 1
 337 534 l 1
 337 582 l 1
 600 582 l 1
EndSplineSet
EndChar

StartChar: uni21D8
Encoding: 8664 8664 768
GlifName: uni21D_8
Width: 645
Flags: HW
LayerCount: 2
Fore
SplineSet
593 169 m 1
 558 134 l 1
 144 546 l 1
 180 582 l 1
 593 169 l 1
494 70 m 1
 459 35 l 1
 45 448 l 1
 80 483 l 1
 494 70 l 1
600 27 m 1
 337 27 l 1
 337 75 l 1
 552 75 l 1
 552 290 l 1
 600 290 l 1
 600 27 l 1
EndSplineSet
EndChar

StartChar: uni21D9
Encoding: 8665 8665 769
GlifName: uni21D_9
Width: 645
Flags: HW
LayerCount: 2
Fore
SplineSet
187 34 m 1
 152 69 l 1
 564 483 l 1
 600 447 l 1
 187 34 l 1
88 133 m 1
 53 168 l 1
 466 582 l 1
 501 547 l 1
 88 133 l 1
45 27 m 1
 45 290 l 1
 93 290 l 1
 93 75 l 1
 308 75 l 1
 308 27 l 1
 45 27 l 1
EndSplineSet
EndChar

StartChar: uni21C4
Encoding: 8644 8644 770
GlifName: uni21C_4
Width: 780
Flags: HW
LayerCount: 2
Fore
SplineSet
84 173 m 5
 84 222 l 5
 735 223 l 5
 735 173 l 5
 84 173 l 5
45 198 m 5
 191 343 l 5
 225 309 l 5
 113 198 l 5
 225 86 l 5
 191 52 l 5
 45 198 l 5
696 472 m 1
 696 423 l 1
 45 422 l 1
 45 472 l 1
 696 472 l 1
735 447 m 1
 589 302 l 1
 555 336 l 1
 667 447 l 1
 555 559 l 1
 589 593 l 1
 735 447 l 1
EndSplineSet
EndChar

StartChar: uni21C5
Encoding: 8645 8645 771
GlifName: uni21C_5
Width: 780
Flags: HW
LayerCount: 2
Fore
SplineSet
240.5 628.5 m 5
 289.5 628.5 l 5
 290.5 -22.5 l 5
 240.5 -22.5 l 5
 240.5 628.5 l 5
265.5 667.5 m 5
 410.5 521.5 l 5
 376.5 487.5 l 5
 265.5 599.5 l 5
 153.5 487.5 l 5
 119.5 521.5 l 5
 265.5 667.5 l 5
539.5 16.5 m 1
 490.5 16.5 l 1
 489.5 667.5 l 1
 539.5 667.5 l 1
 539.5 16.5 l 1
514.5 -22.5 m 1
 369.5 123.5 l 1
 403.5 157.5 l 1
 514.5 45.5 l 1
 626.5 157.5 l 1
 660.5 123.5 l 1
 514.5 -22.5 l 1
EndSplineSet
EndChar

StartChar: uni21C6
Encoding: 8646 8646 772
GlifName: uni21C_6
Width: 780
Flags: HW
LayerCount: 2
Fore
SplineSet
696 173 m 1
 45 173 l 1
 45 223 l 1
 696 222 l 1
 696 173 l 1
735 198 m 1
 589 52 l 1
 555 86 l 1
 667 198 l 1
 555 309 l 1
 589 343 l 1
 735 198 l 1
84 472 m 1
 735 472 l 1
 735 422 l 1
 84 423 l 1
 84 472 l 1
45 447 m 1
 191 593 l 1
 225 559 l 1
 113 447 l 1
 225 336 l 1
 191 302 l 1
 45 447 l 1
EndSplineSet
EndChar

StartChar: uni21C7
Encoding: 8647 8647 773
GlifName: uni21C_7
Width: 780
Flags: HW
LayerCount: 2
Fore
SplineSet
84 454 m 5
 84 503 l 5
 735 504 l 5
 735 454 l 5
 84 454 l 5
45 479 m 5
 191 624 l 5
 225 590 l 5
 113 479 l 5
 225 367 l 5
 191 333 l 5
 45 479 l 5
84 153 m 5
 84 202 l 5
 735 203 l 5
 735 153 l 5
 84 153 l 5
45 178 m 5
 191 323 l 5
 225 289 l 5
 113 178 l 5
 225 66 l 5
 191 32 l 5
 45 178 l 5
EndSplineSet
EndChar

StartChar: uni21C8
Encoding: 8648 8648 774
GlifName: uni21C_8
Width: 682
Flags: HW
LayerCount: 2
Fore
SplineSet
467 634 m 5
 516 634 l 5
 517 -17 l 5
 467 -17 l 5
 467 634 l 5
492 673 m 5
 637 527 l 5
 603 493 l 5
 492 605 l 5
 380 493 l 5
 346 527 l 5
 492 673 l 5
166 634 m 5
 215 634 l 5
 216 -17 l 5
 166 -17 l 5
 166 634 l 5
191 673 m 5
 336 527 l 5
 302 493 l 5
 191 605 l 5
 79 493 l 5
 45 527 l 5
 191 673 l 5
EndSplineSet
EndChar

StartChar: uni21C9
Encoding: 8649 8649 775
GlifName: uni21C_9
Width: 780
Flags: HW
LayerCount: 2
Fore
SplineSet
696 202 m 5
 696 153 l 5
 45 152 l 5
 45 202 l 5
 696 202 l 5
735 177 m 5
 589 32 l 5
 555 66 l 5
 667 177 l 5
 555 289 l 5
 589 323 l 5
 735 177 l 5
696 503 m 5
 696 454 l 5
 45 453 l 5
 45 503 l 5
 696 503 l 5
735 478 m 5
 589 333 l 5
 555 367 l 5
 667 478 l 5
 555 590 l 5
 589 624 l 5
 735 478 l 5
EndSplineSet
EndChar

StartChar: uni21CA
Encoding: 8650 8650 776
GlifName: uni21C_A_
Width: 682
Flags: HW
LayerCount: 2
Fore
SplineSet
215 22 m 1
 166 22 l 1
 165 673 l 1
 215 673 l 1
 215 22 l 1
190 -17 m 1
 45 129 l 1
 79 163 l 1
 190 51 l 1
 302 163 l 1
 336 129 l 1
 190 -17 l 1
516 22 m 1
 467 22 l 1
 466 673 l 1
 516 673 l 1
 516 22 l 1
491 -17 m 1
 346 129 l 1
 380 163 l 1
 491 51 l 1
 603 163 l 1
 637 129 l 1
 491 -17 l 1
EndSplineSet
EndChar

StartChar: uni21CB
Encoding: 8651 8651 777
GlifName: uni21C_B_
Width: 780
Flags: HW
LayerCount: 2
Fore
SplineSet
138 442 m 1
 735 442 l 1
 735 392 l 1
 45 393 l 1
 45 417 l 1
 191 563 l 1
 225 529 l 1
 138 442 l 1
642 213 m 1
 45 213 l 1
 45 263 l 1
 735 262 l 1
 735 238 l 1
 589 92 l 1
 555 126 l 1
 642 213 l 1
EndSplineSet
EndChar

StartChar: uni21CC
Encoding: 8652 8652 778
GlifName: uni21C_C_
Width: 780
Flags: HW
LayerCount: 2
Fore
SplineSet
642 442 m 1
 555 529 l 1
 589 563 l 1
 735 417 l 1
 735 393 l 1
 45 392 l 1
 45 442 l 1
 642 442 l 1
138 213 m 1
 225 126 l 1
 191 92 l 1
 45 238 l 1
 45 262 l 1
 735 263 l 1
 735 213 l 1
 138 213 l 1
EndSplineSet
EndChar

StartChar: uni21CD
Encoding: 8653 8653 779
GlifName: uni21C_D_
Width: 780
Flags: HW
LayerCount: 2
Fore
SplineSet
529 583 m 5
 581 583 l 5
 413 73 l 5
 361 73 l 5
 529 583 l 5
150 243 m 1
 150 292 l 1
 734 293 l 1
 734 243 l 1
 150 243 l 1
150 383 m 1
 150 432 l 1
 735 433 l 1
 735 383 l 1
 150 383 l 1
45 338 m 1
 231 523 l 1
 265 489 l 1
 113 338 l 1
 265 186 l 1
 231 152 l 1
 45 338 l 1
EndSplineSet
EndChar

StartChar: uni21CE
Encoding: 8654 8654 780
GlifName: uni21C_E_
Width: 780
Flags: HW
LayerCount: 2
Fore
SplineSet
443 583 m 5
 495 583 l 5
 327 73 l 5
 275 73 l 5
 443 583 l 5
735 337 m 1
 549 152 l 1
 515 186 l 1
 667 337 l 1
 515 489 l 1
 549 523 l 1
 735 337 l 1
150 243 m 1
 150 292 l 1
 630 293 l 1
 630 243 l 1
 150 243 l 1
150 383 m 1
 150 432 l 1
 630 433 l 1
 630 383 l 1
 150 383 l 1
45 338 m 1
 231 523 l 1
 265 489 l 1
 113 338 l 1
 265 186 l 1
 231 152 l 1
 45 338 l 1
EndSplineSet
EndChar

StartChar: uni21CF
Encoding: 8655 8655 781
GlifName: uni21C_F_
Width: 780
Flags: HW
LayerCount: 2
Fore
SplineSet
372 583 m 5
 424 583 l 5
 256 73 l 5
 204 73 l 5
 372 583 l 5
630 432 m 1
 630 383 l 1
 46 382 l 1
 46 432 l 1
 630 432 l 1
630 292 m 1
 630 243 l 1
 45 242 l 1
 45 292 l 1
 630 292 l 1
735 337 m 1
 549 152 l 1
 515 186 l 1
 667 337 l 1
 515 489 l 1
 549 523 l 1
 735 337 l 1
EndSplineSet
EndChar

StartChar: uni21B4
Encoding: 8628 8628 782
GlifName: uni21B_4
Width: 763
Flags: HW
LayerCount: 2
Fore
SplineSet
532 68.5 m 5
 347 254.5 l 5
 381 288.5 l 5
 532 136.5 l 5
 684 288.5 l 5
 718 254.5 l 5
 532 68.5 l 5
557 107.5 m 5
 508 107.5 l 5
 507.07421875 480.5 l 5
 45 480.5 l 5
 45 528.5 l 5
 557 528.5 l 5
 557 107.5 l 5
EndSplineSet
EndChar

StartChar: carriagereturn
Encoding: 8629 8629 783
GlifName: carriagereturn
Width: 550
Flags: HW
LayerCount: 2
Fore
SplineSet
45 203 m 5
 231 388 l 5
 265 354 l 5
 113 203 l 5
 265 51 l 5
 231 17 l 5
 45 203 l 5
83 178 m 5
 83 227 l 5
 457 228 l 5
 457 690 l 5
 505 690 l 5
 505 178 l 5
 83 178 l 5
EndSplineSet
EndChar

StartChar: uni219A
Encoding: 8602 8602 784
GlifName: uni219A_
Width: 780
Flags: HW
LayerCount: 2
Fore
SplineSet
529 583 m 5
 581 583 l 5
 413 73 l 5
 361 73 l 5
 529 583 l 5
84 313 m 1
 84 362 l 1
 735 363 l 1
 735 313 l 1
 84 313 l 1
45 338 m 1
 231 523 l 1
 265 489 l 1
 113 338 l 1
 265 186 l 1
 231 152 l 1
 45 338 l 1
EndSplineSet
EndChar

StartChar: uni219B
Encoding: 8603 8603 785
GlifName: uni219B_
Width: 780
Flags: HW
LayerCount: 2
Fore
SplineSet
372 583 m 1
 424 583 l 1
 256 73 l 1
 204 73 l 1
 372 583 l 1
696 362 m 1
 696 313 l 1
 45 312 l 1
 45 362 l 1
 696 362 l 1
735 337 m 1
 549 152 l 1
 515 186 l 1
 667 337 l 1
 515 489 l 1
 549 523 l 1
 735 337 l 1
EndSplineSet
EndChar

StartChar: uni219E
Encoding: 8606 8606 786
GlifName: uni219E_
Width: 780
Flags: HW
LayerCount: 2
Fore
SplineSet
215 338 m 5
 401 523 l 5
 435 489 l 5
 283 338 l 5
 435 186 l 5
 401 152 l 5
 215 338 l 5
84 313 m 1
 84 362 l 1
 735 363 l 1
 735 313 l 1
 84 313 l 1
45 338 m 1
 231 523 l 1
 265 489 l 1
 113 338 l 1
 265 186 l 1
 231 152 l 1
 45 338 l 1
EndSplineSet
EndChar

StartChar: uni219F
Encoding: 8607 8607 787
GlifName: uni219F_
Width: 461
Flags: HW
LayerCount: 2
Fore
SplineSet
231 512 m 5
 416 326 l 5
 382 292 l 5
 231 444 l 5
 79 292 l 5
 45 326 l 5
 231 512 l 5
206 644 m 1
 255 644 l 1
 256 -8 l 1
 206 -8 l 1
 206 644 l 1
231 682 m 1
 416 496 l 1
 382 462 l 1
 231 614 l 1
 79 462 l 1
 45 496 l 1
 231 682 l 1
EndSplineSet
EndChar

StartChar: uni21A0
Encoding: 8608 8608 788
GlifName: uni21A_0
Width: 780
Flags: HW
LayerCount: 2
Fore
SplineSet
565 337 m 5
 379 152 l 5
 345 186 l 5
 497 337 l 5
 345 489 l 5
 379 523 l 5
 565 337 l 5
696 362 m 1
 696 313 l 1
 45 312 l 1
 45 362 l 1
 696 362 l 1
735 337 m 1
 549 152 l 1
 515 186 l 1
 667 337 l 1
 515 489 l 1
 549 523 l 1
 735 337 l 1
EndSplineSet
EndChar

StartChar: uni21A1
Encoding: 8609 8609 789
GlifName: uni21A_1
Width: 461
Flags: HW
LayerCount: 2
Fore
SplineSet
230 162 m 5
 45 348 l 5
 79 382 l 5
 230 230 l 5
 382 382 l 5
 416 348 l 5
 230 162 l 5
255 32 m 1
 206 32 l 1
 205 682 l 1
 255 682 l 1
 255 32 l 1
230 -8 m 1
 45 178 l 1
 79 212 l 1
 230 60 l 1
 382 212 l 1
 416 178 l 1
 230 -8 l 1
EndSplineSet
EndChar

StartChar: uni21A2
Encoding: 8610 8610 790
GlifName: uni21A_2
Width: 780
Flags: HW
LayerCount: 2
Fore
SplineSet
515 338 m 1
 701 523 l 1
 735 489 l 1
 583 338 l 1
 735 186 l 1
 701 152 l 1
 515 338 l 1
84 313 m 1
 84 362 l 1
 565 363 l 5
 565 313 l 5
 84 313 l 1
45 338 m 1
 231 523 l 1
 265 489 l 1
 113 338 l 1
 265 186 l 1
 231 152 l 1
 45 338 l 1
EndSplineSet
EndChar

StartChar: uni21A3
Encoding: 8611 8611 791
GlifName: uni21A_3
Width: 780
Flags: HW
LayerCount: 2
Fore
SplineSet
265 337 m 1
 79 152 l 1
 45 186 l 1
 197 337 l 1
 45 489 l 1
 79 523 l 1
 265 337 l 1
696 362 m 1
 696 313 l 1
 215 312 l 5
 215 362 l 5
 696 362 l 1
735 337 m 1
 549 152 l 1
 515 186 l 1
 667 337 l 1
 515 489 l 1
 549 523 l 1
 735 337 l 1
EndSplineSet
EndChar

